<?xml version="1.0" encoding="UTF-8"?><svg id="uuid-b7a1393f-208e-42a4-b9e4-3be5ef0dbdac" xmlns="http://www.w3.org/2000/svg" viewBox="0 0 1059.96 595.28"><defs><style>.uuid-ce7e27e6-20df-4bbc-ae4c-6ac16bd79a07{stroke:#6a8ec2;}.uuid-ce7e27e6-20df-4bbc-ae4c-6ac16bd79a07,.uuid-5fe0ac85-ace3-44bf-9ded-0fe27624fc15{stroke-width:4px;}.uuid-ce7e27e6-20df-4bbc-ae4c-6ac16bd79a07,.uuid-5fe0ac85-ace3-44bf-9ded-0fe27624fc15,.uuid-913c392c-e588-4fc8-8e2e-f8a1bacab029,.uuid-b4e9ef78-09f1-47db-8470-518d07b9cd67,.uuid-996a2666-2466-48ef-9005-db7937874632,.uuid-94c49a35-815e-4012-9640-3a284d3c0c20{stroke-miterlimit:10;}.uuid-ce7e27e6-20df-4bbc-ae4c-6ac16bd79a07,.uuid-5fe0ac85-ace3-44bf-9ded-0fe27624fc15,.uuid-913c392c-e588-4fc8-8e2e-f8a1bacab029,.uuid-94c49a35-815e-4012-9640-3a284d3c0c20{fill:none;}.uuid-5fe0ac85-ace3-44bf-9ded-0fe27624fc15{stroke:#6a8ec1;}.uuid-913c392c-e588-4fc8-8e2e-f8a1bacab029{stroke:#1d1d1b;}.uuid-b4e9ef78-09f1-47db-8470-518d07b9cd67{fill:#d6e7d3;}.uuid-b4e9ef78-09f1-47db-8470-518d07b9cd67,.uuid-94c49a35-815e-4012-9640-3a284d3c0c20{stroke:#7fb366;stroke-width:.48px;}.uuid-1e53dadb-9094-433b-87f8-af6e8faf1aed{fill:#6a8ec2;}.uuid-996a2666-2466-48ef-9005-db7937874632{fill:#e2d6e7;stroke:#9473a6;stroke-width:.5px;}.uuid-160eb3fa-8775-4bb7-9e06-65cb03ca8fb8{fill:#6a8ec1;}.uuid-1d67d12f-67f3-468b-8d3c-6bd0f7968ef9{fill:#1d1d1b;}</style></defs><rect class="uuid-b4e9ef78-09f1-47db-8470-518d07b9cd67" x="596.96" y="223.32" width="263.34" height="99.48"/><line class="uuid-94c49a35-815e-4012-9640-3a284d3c0c20" x1="728.63" y1="223.32" x2="728.63" y2="322.8"/><line class="uuid-94c49a35-815e-4012-9640-3a284d3c0c20" x1="596.96" y1="260.56" x2="860.3" y2="260.56"/><g><path class="uuid-1d67d12f-67f3-468b-8d3c-6bd0f7968ef9" d="M769.34,247.43l-3.15-11.17h1.94l1.47,5.63,.98,3.79h.1l.98-3.79,1.49-5.63h1.86l-3.15,11.17h-2.5Z"/><path class="uuid-1d67d12f-67f3-468b-8d3c-6bd0f7968ef9" d="M782.77,247.43l-.85-2.99h-3.55l-.85,2.99h-1.82l3.26-11.17h2.45l3.26,11.17h-1.9Zm-2.56-9.36h-.13l-1.38,4.9h2.88l-1.38-4.9Z"/><path class="uuid-1d67d12f-67f3-468b-8d3c-6bd0f7968ef9" d="M786.71,247.43v-11.17h1.79v9.66h5.09v1.5h-6.88Z"/><path class="uuid-1d67d12f-67f3-468b-8d3c-6bd0f7968ef9" d="M795.96,247.43v-11.17h6.99v1.5h-5.2v3.25h5.01v1.5h-5.01v3.41h5.2v1.5h-6.99Z"/><path class="uuid-1d67d12f-67f3-468b-8d3c-6bd0f7968ef9" d="M807.08,236.26v6.88c0,.46,.01,.88,.04,1.25,.03,.37,.1,.69,.23,.95s.32,.46,.58,.6,.61,.21,1.06,.21,.8-.07,1.06-.21c.26-.14,.45-.34,.58-.6s.21-.58,.23-.95,.04-.79,.04-1.25v-6.88h1.79v6.54c0,.8-.05,1.5-.14,2.1-.09,.6-.27,1.1-.54,1.5-.27,.4-.64,.7-1.13,.9-.49,.2-1.12,.3-1.9,.3s-1.41-.1-1.9-.3c-.49-.2-.86-.5-1.13-.9-.27-.4-.45-.9-.54-1.5-.09-.6-.14-1.3-.14-2.1v-6.54h1.79Z"/><path class="uuid-1d67d12f-67f3-468b-8d3c-6bd0f7968ef9" d="M816.9,247.43h-1.78v-11.17h4.18c1.07,0,1.88,.3,2.44,.89,.56,.6,.84,1.42,.84,2.46,0,.85-.21,1.55-.62,2.11s-1.01,.89-1.79,1.02l2.58,4.69h-1.98l-2.37-4.53h-1.49v4.53Zm2.14-5.95c1.11,0,1.66-.51,1.66-1.53v-.69c0-1.02-.55-1.53-1.66-1.53h-2.14v3.74h2.14Z"/></g><g><path class="uuid-1d67d12f-67f3-468b-8d3c-6bd0f7968ef9" d="M791.14,294.27v-2.19h-5.5v-1.18l4.83-7.79h1.95v7.87h1.66v1.1h-1.66v2.19h-1.28Zm-4.3-3.3h4.3v-6.83h-.06l-4.24,6.83Z"/><path class="uuid-1d67d12f-67f3-468b-8d3c-6bd0f7968ef9" d="M803.29,294.27h-7.46v-1.38l3.73-3.36c.54-.49,.99-.99,1.34-1.51s.53-1.06,.53-1.64v-.19c0-.67-.18-1.19-.53-1.56-.35-.37-.88-.55-1.57-.55s-1.21,.17-1.58,.52c-.37,.35-.64,.81-.82,1.38l-1.2-.45c.11-.33,.25-.65,.44-.97,.19-.31,.42-.59,.71-.84s.64-.44,1.05-.59c.41-.15,.89-.22,1.43-.22s1.05,.08,1.48,.24c.43,.16,.79,.38,1.09,.67,.29,.29,.52,.63,.67,1.02,.15,.39,.23,.83,.23,1.3,0,.43-.06,.83-.18,1.2-.12,.37-.29,.73-.51,1.07-.22,.34-.48,.67-.78,1-.3,.33-.64,.65-1.02,.97l-3.12,2.72h6.06v1.17Z"/></g><g><path class="uuid-1d67d12f-67f3-468b-8d3c-6bd0f7968ef9" d="M628.06,247.43l-3.15-11.17h1.94l1.47,5.63,.98,3.79h.1l.98-3.79,1.49-5.63h1.86l-3.15,11.17h-2.5Z"/><path class="uuid-1d67d12f-67f3-468b-8d3c-6bd0f7968ef9" d="M641.5,247.43l-.85-2.99h-3.55l-.85,2.99h-1.82l3.26-11.17h2.45l3.26,11.17h-1.9Zm-2.56-9.36h-.13l-1.38,4.9h2.88l-1.38-4.9Z"/><path class="uuid-1d67d12f-67f3-468b-8d3c-6bd0f7968ef9" d="M646.83,247.43h-1.78v-11.17h4.18c1.07,0,1.88,.3,2.44,.89,.56,.6,.84,1.42,.84,2.46,0,.85-.21,1.55-.62,2.11s-1.01,.89-1.79,1.02l2.58,4.69h-1.98l-2.37-4.53h-1.49v4.53Zm2.14-5.95c1.11,0,1.66-.51,1.66-1.53v-.69c0-1.02-.55-1.53-1.66-1.53h-2.14v3.74h2.14Z"/><path class="uuid-1d67d12f-67f3-468b-8d3c-6bd0f7968ef9" d="M654.59,247.43v-1.36h2.62v-8.45h-2.62v-1.36h7.04v1.36h-2.62v8.45h2.62v1.36h-7.04Z"/><path class="uuid-1d67d12f-67f3-468b-8d3c-6bd0f7968ef9" d="M670.3,247.43l-.85-2.99h-3.55l-.85,2.99h-1.82l3.26-11.17h2.45l3.26,11.17h-1.9Zm-2.56-9.36h-.13l-1.38,4.9h2.88l-1.38-4.9Z"/><path class="uuid-1d67d12f-67f3-468b-8d3c-6bd0f7968ef9" d="M673.84,236.26h3.86c1.01,0,1.8,.26,2.36,.78s.84,1.24,.84,2.14c0,.65-.16,1.17-.48,1.55-.32,.38-.75,.66-1.3,.82v.08c.65,.15,1.17,.43,1.57,.86,.39,.42,.59,1.02,.59,1.78,0,.46-.07,.88-.22,1.26-.15,.38-.36,.72-.64,1-.28,.28-.61,.5-1,.66-.39,.16-.82,.23-1.29,.23h-4.29v-11.17Zm3.49,4.8c.56,0,.99-.11,1.29-.33,.29-.22,.44-.58,.44-1.1v-.58c0-.51-.15-.88-.44-1.1-.29-.22-.72-.33-1.29-.33h-1.73v3.42h1.73Zm.26,4.99c.6,0,1.06-.12,1.38-.37,.32-.25,.48-.64,.48-1.18v-.58c0-.54-.16-.94-.48-1.18-.32-.25-.78-.37-1.38-.37h-1.98v3.68h1.98Z"/><path class="uuid-1d67d12f-67f3-468b-8d3c-6bd0f7968ef9" d="M683.83,247.43v-11.17h1.79v9.66h5.09v1.5h-6.88Z"/><path class="uuid-1d67d12f-67f3-468b-8d3c-6bd0f7968ef9" d="M693.08,247.43v-11.17h6.99v1.5h-5.2v3.25h5.01v1.5h-5.01v3.41h5.2v1.5h-6.99Z"/></g><g><path class="uuid-1d67d12f-67f3-468b-8d3c-6bd0f7968ef9" d="M649.95,294.27v-11.17h7.04v1.17h-5.7v3.76h5.22v1.17h-5.22v5.07h-1.34Z"/><path class="uuid-1d67d12f-67f3-468b-8d3c-6bd0f7968ef9" d="M662.91,294.46c-.68,0-1.27-.13-1.76-.39-.49-.26-.9-.64-1.22-1.13-.32-.49-.55-1.09-.7-1.81s-.22-1.53-.22-2.45,.07-1.72,.22-2.44c.15-.72,.38-1.33,.7-1.82,.32-.49,.72-.87,1.22-1.13,.49-.26,1.08-.39,1.76-.39s1.27,.13,1.76,.39c.49,.26,.9,.64,1.22,1.13,.32,.49,.55,1.1,.7,1.82,.15,.72,.22,1.53,.22,2.44s-.08,1.73-.22,2.45c-.15,.71-.38,1.32-.7,1.81-.32,.49-.73,.87-1.22,1.13-.49,.26-1.08,.39-1.76,.39Zm0-1.17c.45,0,.83-.09,1.14-.26,.31-.18,.57-.42,.77-.74,.2-.32,.35-.71,.44-1.16,.09-.45,.14-.96,.14-1.53v-1.82c0-.55-.05-1.06-.14-1.52-.09-.46-.24-.85-.44-1.17-.2-.32-.46-.57-.77-.74-.31-.18-.69-.26-1.14-.26s-.83,.09-1.14,.26-.57,.42-.77,.74c-.2,.32-.35,.71-.44,1.17-.09,.46-.14,.96-.14,1.52v1.82c0,.57,.04,1.07,.14,1.53,.09,.45,.24,.84,.44,1.16,.2,.32,.46,.57,.77,.74s.69,.26,1.14,.26Z"/><path class="uuid-1d67d12f-67f3-468b-8d3c-6bd0f7968ef9" d="M672.51,294.46c-.68,0-1.27-.13-1.76-.39-.49-.26-.9-.64-1.22-1.13-.32-.49-.55-1.09-.7-1.81s-.22-1.53-.22-2.45,.07-1.72,.22-2.44c.15-.72,.38-1.33,.7-1.82,.32-.49,.72-.87,1.22-1.13,.49-.26,1.08-.39,1.76-.39s1.27,.13,1.76,.39c.49,.26,.9,.64,1.22,1.13,.32,.49,.55,1.1,.7,1.82,.15,.72,.22,1.53,.22,2.44s-.08,1.73-.22,2.45c-.15,.71-.38,1.32-.7,1.81-.32,.49-.73,.87-1.22,1.13-.49,.26-1.08,.39-1.76,.39Zm0-1.17c.45,0,.83-.09,1.14-.26,.31-.18,.57-.42,.77-.74,.2-.32,.35-.71,.44-1.16,.09-.45,.14-.96,.14-1.53v-1.82c0-.55-.05-1.06-.14-1.52-.09-.46-.24-.85-.44-1.17-.2-.32-.46-.57-.77-.74-.31-.18-.69-.26-1.14-.26s-.83,.09-1.14,.26-.57,.42-.77,.74c-.2,.32-.35,.71-.44,1.17-.09,.46-.14,.96-.14,1.52v1.82c0,.57,.04,1.07,.14,1.53,.09,.45,.24,.84,.44,1.16,.2,.32,.46,.57,.77,.74s.69,.26,1.14,.26Z"/></g><rect class="uuid-996a2666-2466-48ef-9005-db7937874632" x="436.95" y="365.87" width="263.34" height="99.48"/><line class="uuid-996a2666-2466-48ef-9005-db7937874632" x1="568.62" y1="365.87" x2="568.62" y2="465.35"/><line class="uuid-996a2666-2466-48ef-9005-db7937874632" x1="436.95" y1="403.11" x2="700.28" y2="403.11"/><g><path class="uuid-1d67d12f-67f3-468b-8d3c-6bd0f7968ef9" d="M609.32,389.98l-3.15-11.17h1.94l1.47,5.63,.98,3.79h.1l.98-3.79,1.49-5.63h1.86l-3.15,11.17h-2.5Z"/><path class="uuid-1d67d12f-67f3-468b-8d3c-6bd0f7968ef9" d="M622.76,389.98l-.85-2.99h-3.55l-.85,2.99h-1.82l3.26-11.17h2.45l3.26,11.17h-1.9Zm-2.56-9.36h-.13l-1.38,4.9h2.88l-1.38-4.9Z"/><path class="uuid-1d67d12f-67f3-468b-8d3c-6bd0f7968ef9" d="M626.7,389.98v-11.17h1.79v9.66h5.09v1.5h-6.88Z"/><path class="uuid-1d67d12f-67f3-468b-8d3c-6bd0f7968ef9" d="M635.94,389.98v-11.17h6.99v1.5h-5.2v3.25h5.01v1.5h-5.01v3.41h5.2v1.5h-6.99Z"/><path class="uuid-1d67d12f-67f3-468b-8d3c-6bd0f7968ef9" d="M647.06,378.81v6.88c0,.46,.01,.88,.04,1.25,.03,.37,.1,.69,.23,.95s.32,.46,.58,.6,.61,.21,1.06,.21,.8-.07,1.06-.21c.26-.14,.45-.34,.58-.6s.21-.58,.23-.95,.04-.79,.04-1.25v-6.88h1.79v6.54c0,.8-.05,1.5-.14,2.1-.09,.6-.27,1.1-.54,1.5-.27,.4-.64,.7-1.13,.9-.49,.2-1.12,.3-1.9,.3s-1.41-.1-1.9-.3c-.49-.2-.86-.5-1.13-.9-.27-.4-.45-.9-.54-1.5-.09-.6-.14-1.3-.14-2.1v-6.54h1.79Z"/><path class="uuid-1d67d12f-67f3-468b-8d3c-6bd0f7968ef9" d="M656.89,389.98h-1.78v-11.17h4.18c1.07,0,1.88,.3,2.44,.89,.56,.6,.84,1.42,.84,2.46,0,.85-.21,1.55-.62,2.11s-1.01,.89-1.79,1.02l2.58,4.69h-1.98l-2.37-4.53h-1.49v4.53Zm2.14-5.95c1.11,0,1.66-.51,1.66-1.53v-.69c0-1.02-.55-1.53-1.66-1.53h-2.14v3.74h2.14Z"/></g><g><path class="uuid-1d67d12f-67f3-468b-8d3c-6bd0f7968ef9" d="M468.05,389.98l-3.15-11.17h1.94l1.47,5.63,.98,3.79h.1l.98-3.79,1.49-5.63h1.86l-3.15,11.17h-2.5Z"/><path class="uuid-1d67d12f-67f3-468b-8d3c-6bd0f7968ef9" d="M481.49,389.98l-.85-2.99h-3.55l-.85,2.99h-1.82l3.26-11.17h2.45l3.26,11.17h-1.9Zm-2.56-9.36h-.13l-1.38,4.9h2.88l-1.38-4.9Z"/><path class="uuid-1d67d12f-67f3-468b-8d3c-6bd0f7968ef9" d="M486.81,389.98h-1.78v-11.17h4.18c1.07,0,1.88,.3,2.44,.89,.56,.6,.84,1.42,.84,2.46,0,.85-.21,1.55-.62,2.11s-1.01,.89-1.79,1.02l2.58,4.69h-1.98l-2.37-4.53h-1.49v4.53Zm2.14-5.95c1.11,0,1.66-.51,1.66-1.53v-.69c0-1.02-.55-1.53-1.66-1.53h-2.14v3.74h2.14Z"/><path class="uuid-1d67d12f-67f3-468b-8d3c-6bd0f7968ef9" d="M494.57,389.98v-1.36h2.62v-8.45h-2.62v-1.36h7.04v1.36h-2.62v8.45h2.62v1.36h-7.04Z"/><path class="uuid-1d67d12f-67f3-468b-8d3c-6bd0f7968ef9" d="M510.29,389.98l-.85-2.99h-3.55l-.85,2.99h-1.82l3.26-11.17h2.45l3.26,11.17h-1.9Zm-2.56-9.36h-.13l-1.38,4.9h2.88l-1.38-4.9Z"/><path class="uuid-1d67d12f-67f3-468b-8d3c-6bd0f7968ef9" d="M513.82,378.81h3.86c1.01,0,1.8,.26,2.36,.78s.84,1.24,.84,2.14c0,.65-.16,1.17-.48,1.55-.32,.38-.75,.66-1.3,.82v.08c.65,.15,1.17,.43,1.57,.86,.39,.42,.59,1.02,.59,1.78,0,.46-.07,.88-.22,1.26-.15,.38-.36,.72-.64,1-.28,.28-.61,.5-1,.66-.39,.16-.82,.23-1.29,.23h-4.29v-11.17Zm3.49,4.8c.56,0,.99-.11,1.29-.33,.29-.22,.44-.58,.44-1.1v-.58c0-.51-.15-.88-.44-1.1-.29-.22-.72-.33-1.29-.33h-1.73v3.42h1.73Zm.26,4.99c.6,0,1.06-.12,1.38-.37,.32-.25,.48-.64,.48-1.18v-.58c0-.54-.16-.94-.48-1.18-.32-.25-.78-.37-1.38-.37h-1.98v3.68h1.98Z"/><path class="uuid-1d67d12f-67f3-468b-8d3c-6bd0f7968ef9" d="M523.82,389.98v-11.17h1.79v9.66h5.09v1.5h-6.88Z"/><path class="uuid-1d67d12f-67f3-468b-8d3c-6bd0f7968ef9" d="M533.07,389.98v-11.17h6.99v1.5h-5.2v3.25h5.01v1.5h-5.01v3.41h5.2v1.5h-6.99Z"/></g><g><path class="uuid-1d67d12f-67f3-468b-8d3c-6bd0f7968ef9" d="M489.9,425.65h3.79c.96,0,1.71,.26,2.26,.78s.82,1.22,.82,2.1c0,.67-.16,1.2-.49,1.58s-.74,.66-1.26,.82v.05c.63,.15,1.15,.43,1.55,.84,.41,.41,.61,1.01,.61,1.78,0,.45-.08,.87-.22,1.26s-.36,.74-.63,1.02c-.27,.29-.59,.51-.96,.68-.37,.17-.77,.25-1.19,.25h-4.27v-11.17Zm3.65,4.85c.57,0,1.01-.12,1.33-.38,.32-.25,.48-.63,.48-1.14v-.62c0-.51-.16-.9-.48-1.15-.32-.26-.76-.38-1.33-.38h-2.3v3.68h2.3Zm.22,5.15c.62,0,1.1-.14,1.46-.42,.35-.28,.53-.7,.53-1.28v-.66c0-.57-.18-.99-.53-1.27-.35-.28-.84-.42-1.46-.42h-2.53v4.05h2.53Z"/><path class="uuid-1d67d12f-67f3-468b-8d3c-6bd0f7968ef9" d="M505.79,436.82l-.94-3.18h-3.92l-.94,3.18h-1.39l3.42-11.17h1.78l3.42,11.17h-1.42Zm-2.83-9.74h-.14l-1.57,5.39h3.28l-1.57-5.39Z"/><path class="uuid-1d67d12f-67f3-468b-8d3c-6bd0f7968ef9" d="M510.48,436.82h-1.34v-11.17h4.06c1.03,0,1.82,.28,2.37,.85,.54,.57,.82,1.36,.82,2.37,0,.91-.24,1.63-.7,2.18-.47,.54-1.15,.86-2.05,.94l2.85,4.83h-1.5l-2.72-4.77h-1.78v4.77Zm2.69-5.9c.57,0,1.01-.14,1.32-.42,.31-.28,.47-.69,.47-1.21v-.83c0-.52-.16-.92-.47-1.21-.31-.28-.75-.42-1.32-.42h-2.69v4.1h2.69Z"/></g><g><path class="uuid-160eb3fa-8775-4bb7-9e06-65cb03ca8fb8" d="M479.75,506.15v-11.17h1.34v10h5.3v1.17h-6.64Z"/><path class="uuid-160eb3fa-8775-4bb7-9e06-65cb03ca8fb8" d="M488.87,506.15v-11.17h6.88v1.17h-5.54v3.76h5.34v1.17h-5.34v3.9h5.54v1.17h-6.88Z"/><path class="uuid-160eb3fa-8775-4bb7-9e06-65cb03ca8fb8" d="M502.2,506.34c-1.37,0-2.38-.5-3.05-1.49-.67-.99-1-2.42-1-4.29s.33-3.3,1-4.29c.67-.99,1.68-1.49,3.05-1.49,.51,0,.95,.07,1.33,.21,.37,.14,.69,.33,.96,.56s.49,.5,.67,.79,.34,.59,.48,.89l-1.15,.53c-.1-.25-.21-.48-.34-.7s-.28-.41-.46-.58c-.18-.17-.38-.3-.62-.39s-.53-.14-.87-.14c-.89,0-1.54,.34-1.98,1.01-.43,.67-.65,1.57-.65,2.69v1.82c0,1.12,.22,2.02,.65,2.69,.43,.67,1.09,1.01,1.98,1.01,.34,0,.63-.05,.87-.14s.45-.23,.62-.39c.18-.17,.33-.36,.46-.58s.24-.45,.34-.7l1.15,.53c-.14,.31-.3,.61-.48,.9s-.41,.55-.67,.78c-.27,.24-.59,.42-.96,.56-.37,.14-.82,.21-1.33,.21Z"/><path class="uuid-160eb3fa-8775-4bb7-9e06-65cb03ca8fb8" d="M512.1,496.15v10h-1.34v-10h-3.73v-1.17h8.8v1.17h-3.73Z"/><path class="uuid-160eb3fa-8775-4bb7-9e06-65cb03ca8fb8" d="M518.85,494.98v6.7c0,.54,.02,1.03,.05,1.46s.12,.79,.26,1.1,.35,.54,.65,.7c.29,.16,.7,.24,1.22,.24s.93-.08,1.22-.24c.29-.16,.51-.39,.65-.7s.22-.67,.26-1.1c.03-.43,.05-.91,.05-1.46v-6.7h1.34v6.38c0,.83-.04,1.56-.12,2.18-.08,.62-.25,1.14-.5,1.55-.25,.42-.61,.73-1.07,.94s-1.07,.31-1.83,.31-1.37-.1-1.83-.31-.82-.52-1.07-.94c-.25-.42-.42-.93-.5-1.55-.08-.62-.12-1.34-.12-2.18v-6.38h1.34Z"/><path class="uuid-160eb3fa-8775-4bb7-9e06-65cb03ca8fb8" d="M528.61,506.15h-1.34v-11.17h4.06c1.03,0,1.82,.28,2.37,.85,.54,.57,.82,1.36,.82,2.37,0,.91-.24,1.63-.7,2.18-.47,.54-1.15,.86-2.05,.94l2.85,4.83h-1.5l-2.72-4.77h-1.78v4.77Zm2.69-5.9c.57,0,1.01-.14,1.32-.42,.31-.28,.47-.69,.47-1.21v-.83c0-.52-.16-.92-.47-1.21-.31-.28-.75-.42-1.32-.42h-2.69v4.1h2.69Z"/><path class="uuid-160eb3fa-8775-4bb7-9e06-65cb03ca8fb8" d="M536.87,506.15v-11.17h6.88v1.17h-5.54v3.76h5.34v1.17h-5.34v3.9h5.54v1.17h-6.88Z"/><path class="uuid-160eb3fa-8775-4bb7-9e06-65cb03ca8fb8" d="M559.4,506.34c-1,0-1.82-.19-2.46-.56-.64-.37-1.17-.85-1.58-1.42l.98-.8c.44,.54,.9,.95,1.38,1.22s1.06,.4,1.74,.4c.81,0,1.43-.19,1.86-.56s.64-.89,.64-1.56c0-.54-.15-.96-.46-1.26-.31-.3-.85-.52-1.62-.64l-1.25-.21c-.54-.1-1-.24-1.37-.43-.37-.19-.66-.42-.89-.7-.22-.27-.38-.57-.48-.9-.1-.33-.14-.67-.14-1.02,0-1.03,.34-1.8,1.01-2.32s1.58-.79,2.72-.79c.9,0,1.65,.15,2.26,.46,.61,.3,1.11,.73,1.48,1.27l-.94,.82c-.31-.41-.68-.74-1.12-.99-.44-.26-1-.38-1.7-.38-.76,0-1.34,.16-1.74,.48-.41,.32-.61,.79-.61,1.43,0,.5,.15,.9,.46,1.22s.85,.54,1.64,.68l1.2,.21c.54,.1,1,.24,1.38,.43s.67,.42,.9,.69c.23,.27,.39,.57,.49,.9,.1,.33,.14,.68,.14,1.04,0,1.04-.34,1.85-1.02,2.43-.68,.59-1.64,.88-2.89,.88Z"/><path class="uuid-160eb3fa-8775-4bb7-9e06-65cb03ca8fb8" d="M565.67,506.15v-11.17h6.88v1.17h-5.54v3.76h5.34v1.17h-5.34v3.9h5.54v1.17h-6.88Z"/><path class="uuid-160eb3fa-8775-4bb7-9e06-65cb03ca8fb8" d="M576.45,494.98v6.7c0,.54,.02,1.03,.05,1.46s.12,.79,.26,1.1,.35,.54,.65,.7c.29,.16,.7,.24,1.22,.24s.93-.08,1.22-.24c.29-.16,.51-.39,.65-.7s.22-.67,.26-1.1c.03-.43,.05-.91,.05-1.46v-6.7h1.34v6.38c0,.83-.04,1.56-.12,2.18-.08,.62-.25,1.14-.5,1.55-.25,.42-.61,.73-1.07,.94s-1.07,.31-1.83,.31-1.37-.1-1.83-.31-.82-.52-1.07-.94c-.25-.42-.42-.93-.5-1.55-.08-.62-.12-1.34-.12-2.18v-6.38h1.34Z"/><path class="uuid-160eb3fa-8775-4bb7-9e06-65cb03ca8fb8" d="M585.35,506.15v-11.17h1.34v10h5.3v1.17h-6.64Z"/><path class="uuid-160eb3fa-8775-4bb7-9e06-65cb03ca8fb8" d="M594.47,506.15v-11.17h6.88v1.17h-5.54v3.76h5.34v1.17h-5.34v3.9h5.54v1.17h-6.88Z"/></g><line class="uuid-913c392c-e588-4fc8-8e2e-f8a1bacab029" x1="646.98" y1="439.65" x2="621.92" y2="439.65"/><rect class="uuid-996a2666-2466-48ef-9005-db7937874632" x="756.98" y="365.87" width="263.34" height="99.48"/><line class="uuid-996a2666-2466-48ef-9005-db7937874632" x1="888.64" y1="365.87" x2="888.64" y2="465.35"/><line class="uuid-996a2666-2466-48ef-9005-db7937874632" x1="756.98" y1="403.11" x2="1020.31" y2="403.11"/><g><path class="uuid-1d67d12f-67f3-468b-8d3c-6bd0f7968ef9" d="M929.35,389.98l-3.15-11.17h1.94l1.47,5.63,.98,3.79h.1l.98-3.79,1.49-5.63h1.86l-3.15,11.17h-2.5Z"/><path class="uuid-1d67d12f-67f3-468b-8d3c-6bd0f7968ef9" d="M942.79,389.98l-.85-2.99h-3.55l-.85,2.99h-1.82l3.26-11.17h2.45l3.26,11.17h-1.9Zm-2.56-9.36h-.13l-1.38,4.9h2.88l-1.38-4.9Z"/><path class="uuid-1d67d12f-67f3-468b-8d3c-6bd0f7968ef9" d="M946.73,389.98v-11.17h1.79v9.66h5.09v1.5h-6.88Z"/><path class="uuid-1d67d12f-67f3-468b-8d3c-6bd0f7968ef9" d="M955.97,389.98v-11.17h6.99v1.5h-5.2v3.25h5.01v1.5h-5.01v3.41h5.2v1.5h-6.99Z"/><path class="uuid-1d67d12f-67f3-468b-8d3c-6bd0f7968ef9" d="M967.09,378.81v6.88c0,.46,.01,.88,.04,1.25,.03,.37,.1,.69,.23,.95s.32,.46,.58,.6,.61,.21,1.06,.21,.8-.07,1.06-.21c.26-.14,.45-.34,.58-.6s.21-.58,.23-.95,.04-.79,.04-1.25v-6.88h1.79v6.54c0,.8-.05,1.5-.14,2.1-.09,.6-.27,1.1-.54,1.5-.27,.4-.64,.7-1.13,.9-.49,.2-1.12,.3-1.9,.3s-1.41-.1-1.9-.3c-.49-.2-.86-.5-1.13-.9-.27-.4-.45-.9-.54-1.5-.09-.6-.14-1.3-.14-2.1v-6.54h1.79Z"/><path class="uuid-1d67d12f-67f3-468b-8d3c-6bd0f7968ef9" d="M976.92,389.98h-1.78v-11.17h4.18c1.07,0,1.88,.3,2.44,.89,.56,.6,.84,1.42,.84,2.46,0,.85-.21,1.55-.62,2.11s-1.01,.89-1.79,1.02l2.58,4.69h-1.98l-2.37-4.53h-1.49v4.53Zm2.14-5.95c1.11,0,1.66-.51,1.66-1.53v-.69c0-1.02-.55-1.53-1.66-1.53h-2.14v3.74h2.14Z"/></g><g><path class="uuid-1d67d12f-67f3-468b-8d3c-6bd0f7968ef9" d="M788.07,389.98l-3.15-11.17h1.94l1.47,5.63,.98,3.79h.1l.98-3.79,1.49-5.63h1.86l-3.15,11.17h-2.5Z"/><path class="uuid-1d67d12f-67f3-468b-8d3c-6bd0f7968ef9" d="M801.51,389.98l-.85-2.99h-3.55l-.85,2.99h-1.82l3.26-11.17h2.45l3.26,11.17h-1.9Zm-2.56-9.36h-.13l-1.38,4.9h2.88l-1.38-4.9Z"/><path class="uuid-1d67d12f-67f3-468b-8d3c-6bd0f7968ef9" d="M806.84,389.98h-1.78v-11.17h4.18c1.07,0,1.88,.3,2.44,.89,.56,.6,.84,1.42,.84,2.46,0,.85-.21,1.55-.62,2.11s-1.01,.89-1.79,1.02l2.58,4.69h-1.98l-2.37-4.53h-1.49v4.53Zm2.14-5.95c1.11,0,1.66-.51,1.66-1.53v-.69c0-1.02-.55-1.53-1.66-1.53h-2.14v3.74h2.14Z"/><path class="uuid-1d67d12f-67f3-468b-8d3c-6bd0f7968ef9" d="M814.6,389.98v-1.36h2.62v-8.45h-2.62v-1.36h7.04v1.36h-2.62v8.45h2.62v1.36h-7.04Z"/><path class="uuid-1d67d12f-67f3-468b-8d3c-6bd0f7968ef9" d="M830.31,389.98l-.85-2.99h-3.55l-.85,2.99h-1.82l3.26-11.17h2.45l3.26,11.17h-1.9Zm-2.56-9.36h-.13l-1.38,4.9h2.88l-1.38-4.9Z"/><path class="uuid-1d67d12f-67f3-468b-8d3c-6bd0f7968ef9" d="M833.85,378.81h3.86c1.01,0,1.8,.26,2.36,.78s.84,1.24,.84,2.14c0,.65-.16,1.17-.48,1.55-.32,.38-.75,.66-1.3,.82v.08c.65,.15,1.17,.43,1.57,.86,.39,.42,.59,1.02,.59,1.78,0,.46-.07,.88-.22,1.26-.15,.38-.36,.72-.64,1-.28,.28-.61,.5-1,.66-.39,.16-.82,.23-1.29,.23h-4.29v-11.17Zm3.49,4.8c.56,0,.99-.11,1.29-.33,.29-.22,.44-.58,.44-1.1v-.58c0-.51-.15-.88-.44-1.1-.29-.22-.72-.33-1.29-.33h-1.73v3.42h1.73Zm.26,4.99c.6,0,1.06-.12,1.38-.37,.32-.25,.48-.64,.48-1.18v-.58c0-.54-.16-.94-.48-1.18-.32-.25-.78-.37-1.38-.37h-1.98v3.68h1.98Z"/><path class="uuid-1d67d12f-67f3-468b-8d3c-6bd0f7968ef9" d="M843.85,389.98v-11.17h1.79v9.66h5.09v1.5h-6.88Z"/><path class="uuid-1d67d12f-67f3-468b-8d3c-6bd0f7968ef9" d="M853.1,389.98v-11.17h6.99v1.5h-5.2v3.25h5.01v1.5h-5.01v3.41h5.2v1.5h-6.99Z"/></g><g><path class="uuid-1d67d12f-67f3-468b-8d3c-6bd0f7968ef9" d="M809.93,425.65h3.79c.96,0,1.71,.26,2.26,.78s.82,1.22,.82,2.1c0,.67-.16,1.2-.49,1.58s-.74,.66-1.26,.82v.05c.63,.15,1.15,.43,1.55,.84,.41,.41,.61,1.01,.61,1.78,0,.45-.08,.87-.22,1.26s-.36,.74-.63,1.02c-.27,.29-.59,.51-.96,.68-.37,.17-.77,.25-1.19,.25h-4.27v-11.17Zm3.65,4.85c.57,0,1.01-.12,1.33-.38,.32-.25,.48-.63,.48-1.14v-.62c0-.51-.16-.9-.48-1.15-.32-.26-.76-.38-1.33-.38h-2.3v3.68h2.3Zm.22,5.15c.62,0,1.1-.14,1.46-.42,.35-.28,.53-.7,.53-1.28v-.66c0-.57-.18-.99-.53-1.27-.35-.28-.84-.42-1.46-.42h-2.53v4.05h2.53Z"/><path class="uuid-1d67d12f-67f3-468b-8d3c-6bd0f7968ef9" d="M825.82,436.82l-.94-3.18h-3.92l-.94,3.18h-1.39l3.42-11.17h1.78l3.42,11.17h-1.42Zm-2.83-9.74h-.14l-1.57,5.39h3.28l-1.57-5.39Z"/><path class="uuid-1d67d12f-67f3-468b-8d3c-6bd0f7968ef9" d="M836.56,436.82h-8.06v-1.2l6.32-8.8h-6.05v-1.17h7.52v1.2l-6.34,8.8h6.61v1.17Z"/></g><line class="uuid-913c392c-e588-4fc8-8e2e-f8a1bacab029" x1="967.01" y1="439.65" x2="941.94" y2="439.65"/><g><line class="uuid-5fe0ac85-ace3-44bf-9ded-0fe27624fc15" x1="471.83" y1="501.14" x2="444.89" y2="501.14"/><polygon class="uuid-160eb3fa-8775-4bb7-9e06-65cb03ca8fb8" points="446.64 495.16 436.28 501.14 446.64 507.13 446.64 495.16"/></g><g><path class="uuid-5fe0ac85-ace3-44bf-9ded-0fe27624fc15" d="M969.91,431.5c29.27,0,60.94-12.38,60.94-52.69,0-85.09-124.08-88.93-211.22-89.08"/><polygon class="uuid-160eb3fa-8775-4bb7-9e06-65cb03ca8fb8" points="821.42 283.81 811.02 289.72 821.34 295.77 821.42 283.81"/></g><g><path class="uuid-ce7e27e6-20df-4bbc-ae4c-6ac16bd79a07" d="M646.98,432.19c68.07,0,136.87-74.48,144.67-122.4"/><polygon class="uuid-1e53dadb-9094-433b-87f8-af6e8faf1aed" points="797.32 312.11 792.39 301.21 785.41 310.94 797.32 312.11"/></g></svg>