<svg version="1.1" viewBox="0.0 0.0 600.0 371.0" fill="none" stroke="none" stroke-linecap="square" stroke-miterlimit="10" width="600" height="371" xmlns:xlink="http://www.w3.org/1999/xlink" xmlns="http://www.w3.org/2000/svg"><path fill="#ffffff" d="M0 0L600.0 0L600.0 371.0L0 371.0L0 0Z" fill-rule="nonzero"/><path stroke="#333333" stroke-width="1.0" stroke-linecap="butt" d="M53.5 104.5L53.5 300.5" fill-rule="nonzero"/><path stroke="#cccccc" stroke-width="1.0" stroke-linecap="butt" d="M159.5 104.5L159.5 300.5" fill-rule="nonzero"/><path stroke="#cccccc" stroke-width="1.0" stroke-linecap="butt" d="M264.5 104.5L264.5 300.5" fill-rule="nonzero"/><path stroke="#cccccc" stroke-width="1.0" stroke-linecap="butt" d="M370.5 104.5L370.5 300.5" fill-rule="nonzero"/><path stroke="#cccccc" stroke-width="1.0" stroke-linecap="butt" d="M475.5 104.5L475.5 300.5" fill-rule="nonzero"/><path stroke="#cccccc" stroke-width="1.0" stroke-linecap="butt" d="M581.5 104.5L581.5 300.5" fill-rule="nonzero"/><clipPath id="id_0"><path d="M53.55 104.78333L581.45 104.78333L581.45 300.45L53.55 300.45L53.55 104.78333Z" clip-rule="nonzero"/></clipPath><path stroke="#000000" stroke-width="2.0" stroke-linecap="butt" stroke-opacity="0.0" clip-path="url(#id_0)" d="M54.0 202.0L54.0 157.0L143.0 157.0C144.10457 157.0 145.0 157.89543 145.0 159.0L145.0 200.0C145.0 201.10457 144.10457 202.0 143.0 202.0Z" fill-rule="nonzero"/><path fill="#4285f4" clip-path="url(#id_0)" d="M54.0 202.0L54.0 157.0L143.0 157.0C144.10457 157.0 145.0 157.89543 145.0 159.0L145.0 200.0C145.0 201.10457 144.10457 202.0 143.0 202.0Z" fill-rule="nonzero"/><path stroke="#000000" stroke-width="2.0" stroke-linecap="butt" stroke-opacity="0.0" clip-path="url(#id_0)" d="M54.0 249.0L54.0 204.0L543.0 204.0C544.10455 204.0 545.0 204.89543 545.0 206.0L545.0 247.0C545.0 248.10457 544.10455 249.0 543.0 249.0Z" fill-rule="nonzero"/><path fill="#ea4335" clip-path="url(#id_0)" d="M54.0 249.0L54.0 204.0L543.0 204.0C544.10455 204.0 545.0 204.89543 545.0 206.0L545.0 247.0C545.0 248.10457 544.10455 249.0 543.0 249.0Z" fill-rule="nonzero"/><path stroke="#4285f4" stroke-width="3.0" stroke-linejoin="round" stroke-linecap="round" d="M105.551346 183.5L105.551346 181.76562L102.03572 181.76562L102.03572 180.32812L105.770096 174.875L107.145096 174.875L107.145096 180.32812L108.22322 180.32812L108.22322 181.76562L107.145096 181.76562L107.145096 183.5L105.551346 183.5ZM105.551346 180.32812L105.551346 177.39062L103.582596 180.32812L105.551346 180.32812ZM109.270096 181.21875L110.863846 181.03125Q110.94197 181.64062 111.270096 181.96875Q111.613846 182.28125 112.082596 182.28125Q112.59822 182.28125 112.94197 181.89062Q113.28572 181.5 113.28572 180.84375Q113.28572 180.23438 112.94197 179.875Q112.613846 179.5 112.145096 179.5Q111.81697 179.5 111.37947 179.625L111.56697 178.28125Q112.238846 178.29688 112.582596 178.0Q112.94197 177.6875 112.94197 177.17188Q112.94197 176.75 112.676346 176.5Q112.426346 176.23438 111.988846 176.23438Q111.56697 176.23438 111.270096 176.53125Q110.97322 176.8125 110.91072 177.375L109.395096 177.125Q109.551346 176.34375 109.863846 175.875Q110.19197 175.40625 110.75447 175.14062Q111.332596 174.875 112.03572 174.875Q113.25447 174.875 113.988846 175.64062Q114.582596 176.28125 114.582596 177.07812Q114.582596 178.20312 113.34822 178.875Q114.09822 179.04688 114.53572 179.59375Q114.97322 180.14062 114.97322 180.92188Q114.97322 182.04688 114.145096 182.84375Q113.31697 183.64062 112.09822 183.64062Q110.926346 183.64062 110.16072 182.96875Q109.395096 182.29688 109.270096 181.21875ZM120.53572 183.5L118.895096 183.5L118.895096 177.29688Q117.988846 178.14062 116.770096 178.54688L116.770096 177.04688Q117.41072 176.84375 118.16072 176.25Q118.926346 175.65625 119.207596 174.875L120.53572 174.875L120.53572 183.5ZM123.645096 181.85938L125.28572 181.85938L125.28572 183.03125Q125.28572 183.75 125.16072 184.15625Q125.03572 184.57812 124.69197 184.90625Q124.34822 185.23438 123.832596 185.42188L123.50447 184.73438Q124.00447 184.57812 124.207596 184.28125Q124.426346 184.0 124.44197 183.5L123.645096 183.5L123.645096 181.85938ZM131.8951 181.96875L131.8951 183.5L126.113846 183.5Q126.207596 182.625 126.676346 181.85938Q127.145096 181.07812 128.53572 179.79688Q129.6451 178.76562 129.8951 178.39062Q130.23885 177.875 130.23885 177.375Q130.23885 176.82812 129.94197 176.53125Q129.6451 176.23438 129.12947 176.23438Q128.61385 176.23438 128.30135 176.54688Q128.00447 176.85938 127.957596 177.57812L126.31697 177.42188Q126.457596 176.0625 127.22322 175.46875Q128.00447 174.875 129.16072 174.875Q130.44197 174.875 131.16072 175.5625Q131.8951 176.25 131.8951 177.26562Q131.8951 177.84375 131.67635 178.375Q131.47322 178.89062 131.0201 179.46875Q130.72322 179.84375 129.94197 180.5625Q129.16072 181.28125 128.9576 181.51562Q128.75447 181.75 128.61385 181.96875L131.8951 181.96875ZM133.3326 176.5625L133.3326 175.03125L138.9576 175.03125L138.9576 176.21875Q138.25447 176.90625 137.53572 178.1875Q136.81697 179.46875 136.44197 180.92188Q136.06697 182.35938 136.06697 183.5L134.48885 183.5Q134.5201 181.71875 135.2076 179.875Q135.91072 178.01562 137.06697 176.5625L133.3326 176.5625Z" fill-rule="nonzero"/><path fill="#ffffff" d="M105.551346 183.5L105.551346 181.76562L102.03572 181.76562L102.03572 180.32812L105.770096 174.875L107.145096 174.875L107.145096 180.32812L108.22322 180.32812L108.22322 181.76562L107.145096 181.76562L107.145096 183.5L105.551346 183.5ZM105.551346 180.32812L105.551346 177.39062L103.582596 180.32812L105.551346 180.32812ZM109.270096 181.21875L110.863846 181.03125Q110.94197 181.64062 111.270096 181.96875Q111.613846 182.28125 112.082596 182.28125Q112.59822 182.28125 112.94197 181.89062Q113.28572 181.5 113.28572 180.84375Q113.28572 180.23438 112.94197 179.875Q112.613846 179.5 112.145096 179.5Q111.81697 179.5 111.37947 179.625L111.56697 178.28125Q112.238846 178.29688 112.582596 178.0Q112.94197 177.6875 112.94197 177.17188Q112.94197 176.75 112.676346 176.5Q112.426346 176.23438 111.988846 176.23438Q111.56697 176.23438 111.270096 176.53125Q110.97322 176.8125 110.91072 177.375L109.395096 177.125Q109.551346 176.34375 109.863846 175.875Q110.19197 175.40625 110.75447 175.14062Q111.332596 174.875 112.03572 174.875Q113.25447 174.875 113.988846 175.64062Q114.582596 176.28125 114.582596 177.07812Q114.582596 178.20312 113.34822 178.875Q114.09822 179.04688 114.53572 179.59375Q114.97322 180.14062 114.97322 180.92188Q114.97322 182.04688 114.145096 182.84375Q113.31697 183.64062 112.09822 183.64062Q110.926346 183.64062 110.16072 182.96875Q109.395096 182.29688 109.270096 181.21875ZM120.53572 183.5L118.895096 183.5L118.895096 177.29688Q117.988846 178.14062 116.770096 178.54688L116.770096 177.04688Q117.41072 176.84375 118.16072 176.25Q118.926346 175.65625 119.207596 174.875L120.53572 174.875L120.53572 183.5ZM123.645096 181.85938L125.28572 181.85938L125.28572 183.03125Q125.28572 183.75 125.16072 184.15625Q125.03572 184.57812 124.69197 184.90625Q124.34822 185.23438 123.832596 185.42188L123.50447 184.73438Q124.00447 184.57812 124.207596 184.28125Q124.426346 184.0 124.44197 183.5L123.645096 183.5L123.645096 181.85938ZM131.8951 181.96875L131.8951 183.5L126.113846 183.5Q126.207596 182.625 126.676346 181.85938Q127.145096 181.07812 128.53572 179.79688Q129.6451 178.76562 129.8951 178.39062Q130.23885 177.875 130.23885 177.375Q130.23885 176.82812 129.94197 176.53125Q129.6451 176.23438 129.12947 176.23438Q128.61385 176.23438 128.30135 176.54688Q128.00447 176.85938 127.957596 177.57812L126.31697 177.42188Q126.457596 176.0625 127.22322 175.46875Q128.00447 174.875 129.16072 174.875Q130.44197 174.875 131.16072 175.5625Q131.8951 176.25 131.8951 177.26562Q131.8951 177.84375 131.67635 178.375Q131.47322 178.89062 131.0201 179.46875Q130.72322 179.84375 129.94197 180.5625Q129.16072 181.28125 128.9576 181.51562Q128.75447 181.75 128.61385 181.96875L131.8951 181.96875ZM133.3326 176.5625L133.3326 175.03125L138.9576 175.03125L138.9576 176.21875Q138.25447 176.90625 137.53572 178.1875Q136.81697 179.46875 136.44197 180.92188Q136.06697 182.35938 136.06697 183.5L134.48885 183.5Q134.5201 181.71875 135.2076 179.875Q135.91072 178.01562 137.06697 176.5625L133.3326 176.5625Z" fill-rule="nonzero"/><path stroke="#ea4335" stroke-width="3.0" stroke-linejoin="round" stroke-linecap="round" d="M501.49728 228.96875L501.49728 230.5L495.71603 230.5Q495.80978 229.625 496.27853 228.85938Q496.74728 228.07812 498.1379 226.79688Q499.24728 225.76562 499.49728 225.39062Q499.84103 224.875 499.84103 224.375Q499.84103 223.82812 499.54416 223.53125Q499.24728 223.23438 498.73166 223.23438Q498.21603 223.23438 497.90353 223.54688Q497.60666 223.85938 497.55978 224.57812L495.91916 224.42188Q496.05978 223.0625 496.8254 222.46875Q497.60666 221.875 498.7629 221.875Q500.04416 221.875 500.7629 222.5625Q501.49728 223.25 501.49728 224.26562Q501.49728 224.84375 501.27853 225.375Q501.0754 225.89062 500.62228 226.46875Q500.3254 226.84375 499.54416 227.5625Q498.7629 228.28125 498.55978 228.51562Q498.35666 228.75 498.21603 228.96875L501.49728 228.96875ZM502.87228 228.21875L504.46603 228.03125Q504.54416 228.64062 504.87228 228.96875Q505.21603 229.28125 505.68478 229.28125Q506.2004 229.28125 506.54416 228.89062Q506.8879 228.5 506.8879 227.84375Q506.8879 227.23438 506.54416 226.875Q506.21603 226.5 505.74728 226.5Q505.41916 226.5 504.98166 226.625L505.16916 225.28125Q505.84103 225.29688 506.18478 225.0Q506.54416 224.6875 506.54416 224.17188Q506.54416 223.75 506.27853 223.5Q506.02853 223.23438 505.59103 223.23438Q505.16916 223.23438 504.87228 223.53125Q504.5754 223.8125 504.5129 224.375L502.99728 224.125Q503.15353 223.34375 503.46603 222.875Q503.79416 222.40625 504.35666 222.14062Q504.93478 221.875 505.6379 221.875Q506.85666 221.875 507.59103 222.64062Q508.18478 223.28125 508.18478 224.07812Q508.18478 225.20312 506.9504 225.875Q507.7004 226.04688 508.1379 226.59375Q508.5754 227.14062 508.5754 227.92188Q508.5754 229.04688 507.74728 229.84375Q506.91916 230.64062 505.7004 230.64062Q504.52853 230.64062 503.7629 229.96875Q502.99728 229.29688 502.87228 228.21875ZM515.4973 228.96875L515.4973 230.5L509.71603 230.5Q509.80978 229.625 510.27853 228.85938Q510.74728 228.07812 512.13794 226.79688Q513.2473 225.76562 513.4973 225.39062Q513.84106 224.875 513.84106 224.375Q513.84106 223.82812 513.5442 223.53125Q513.2473 223.23438 512.7317 223.23438Q512.21606 223.23438 511.90353 223.54688Q511.60666 223.85938 511.55978 224.57812L509.91916 224.42188Q510.05978 223.0625 510.8254 222.46875Q511.60666 221.875 512.76294 221.875Q514.0442 221.875 514.76294 222.5625Q515.4973 223.25 515.4973 224.26562Q515.4973 224.84375 515.27856 225.375Q515.07544 225.89062 514.6223 226.46875Q514.32544 226.84375 513.5442 227.5625Q512.76294 228.28125 512.5598 228.51562Q512.3567 228.75 512.21606 228.96875L515.4973 228.96875ZM518.34106 225.85938Q517.70044 225.59375 517.40356 225.125Q517.1223 224.65625 517.1223 224.09375Q517.1223 223.125 517.7942 222.5Q518.46606 221.875 519.70044 221.875Q520.9192 221.875 521.59106 222.5Q522.27856 223.125 522.27856 224.09375Q522.27856 224.6875 521.96606 225.15625Q521.65356 225.625 521.09106 225.85938Q521.8098 226.15625 522.1848 226.70312Q522.5598 227.25 522.5598 227.96875Q522.5598 229.15625 521.7942 229.90625Q521.0442 230.65625 519.77856 230.65625Q518.6067 230.65625 517.82544 230.03125Q516.90356 229.3125 516.90356 228.04688Q516.90356 227.34375 517.2473 226.76562Q517.59106 226.1875 518.34106 225.85938ZM518.6848 224.20312Q518.6848 224.70312 518.95044 224.98438Q519.2317 225.25 519.70044 225.25Q520.1692 225.25 520.45044 224.96875Q520.7317 224.6875 520.7317 224.20312Q520.7317 223.73438 520.45044 223.46875Q520.1692 223.1875 519.71606 223.1875Q519.2473 223.1875 518.96606 223.46875Q518.6848 223.75 518.6848 224.20312ZM518.52856 227.89062Q518.52856 228.5625 518.8723 228.95312Q519.2317 229.32812 519.7473 229.32812Q520.26294 229.32812 520.59106 228.96875Q520.9192 228.59375 520.9192 227.90625Q520.9192 227.29688 520.57544 226.9375Q520.2473 226.5625 519.7317 226.5625Q519.1223 226.5625 518.82544 226.98438Q518.52856 227.40625 518.52856 227.89062ZM524.2473 228.85938L525.88794 228.85938L525.88794 230.03125Q525.88794 230.75 525.76294 231.15625Q525.63794 231.57812 525.2942 231.90625Q524.95044 232.23438 524.4348 232.42188L524.1067 231.73438Q524.6067 231.57812 524.8098 231.28125Q525.02856 231.0 525.0442 230.5L524.2473 230.5L524.2473 228.85938ZM530.15356 230.5L530.15356 228.76562L526.63794 228.76562L526.63794 227.32812L530.3723 221.875L531.7473 221.875L531.7473 227.32812L532.82544 227.32812L532.82544 228.76562L531.7473 228.76562L531.7473 230.5L530.15356 230.5ZM530.15356 227.32812L530.15356 224.39062L528.1848 227.32812L530.15356 227.32812ZM539.4973 228.96875L539.4973 230.5L533.71606 230.5Q533.8098 229.625 534.27856 228.85938Q534.7473 228.07812 536.13794 226.79688Q537.2473 225.76562 537.4973 225.39062Q537.84106 224.875 537.84106 224.375Q537.84106 223.82812 537.5442 223.53125Q537.2473 223.23438 536.7317 223.23438Q536.21606 223.23438 535.90356 223.54688Q535.6067 223.85938 535.5598 224.57812L533.9192 224.42188Q534.0598 223.0625 534.82544 222.46875Q535.6067 221.875 536.76294 221.875Q538.0442 221.875 538.76294 222.5625Q539.4973 223.25 539.4973 224.26562Q539.4973 224.84375 539.27856 225.375Q539.07544 225.89062 538.6223 226.46875Q538.32544 226.84375 537.5442 227.5625Q536.76294 228.28125 536.5598 228.51562Q536.3567 228.75 536.21606 228.96875L539.4973 228.96875Z" fill-rule="nonzero"/><path fill="#ffffff" d="M501.49728 228.96875L501.49728 230.5L495.71603 230.5Q495.80978 229.625 496.27853 228.85938Q496.74728 228.07812 498.1379 226.79688Q499.24728 225.76562 499.49728 225.39062Q499.84103 224.875 499.84103 224.375Q499.84103 223.82812 499.54416 223.53125Q499.24728 223.23438 498.73166 223.23438Q498.21603 223.23438 497.90353 223.54688Q497.60666 223.85938 497.55978 224.57812L495.91916 224.42188Q496.05978 223.0625 496.8254 222.46875Q497.60666 221.875 498.7629 221.875Q500.04416 221.875 500.7629 222.5625Q501.49728 223.25 501.49728 224.26562Q501.49728 224.84375 501.27853 225.375Q501.0754 225.89062 500.62228 226.46875Q500.3254 226.84375 499.54416 227.5625Q498.7629 228.28125 498.55978 228.51562Q498.35666 228.75 498.21603 228.96875L501.49728 228.96875ZM502.87228 228.21875L504.46603 228.03125Q504.54416 228.64062 504.87228 228.96875Q505.21603 229.28125 505.68478 229.28125Q506.2004 229.28125 506.54416 228.89062Q506.8879 228.5 506.8879 227.84375Q506.8879 227.23438 506.54416 226.875Q506.21603 226.5 505.74728 226.5Q505.41916 226.5 504.98166 226.625L505.16916 225.28125Q505.84103 225.29688 506.18478 225.0Q506.54416 224.6875 506.54416 224.17188Q506.54416 223.75 506.27853 223.5Q506.02853 223.23438 505.59103 223.23438Q505.16916 223.23438 504.87228 223.53125Q504.5754 223.8125 504.5129 224.375L502.99728 224.125Q503.15353 223.34375 503.46603 222.875Q503.79416 222.40625 504.35666 222.14062Q504.93478 221.875 505.6379 221.875Q506.85666 221.875 507.59103 222.64062Q508.18478 223.28125 508.18478 224.07812Q508.18478 225.20312 506.9504 225.875Q507.7004 226.04688 508.1379 226.59375Q508.5754 227.14062 508.5754 227.92188Q508.5754 229.04688 507.74728 229.84375Q506.91916 230.64062 505.7004 230.64062Q504.52853 230.64062 503.7629 229.96875Q502.99728 229.29688 502.87228 228.21875ZM515.4973 228.96875L515.4973 230.5L509.71603 230.5Q509.80978 229.625 510.27853 228.85938Q510.74728 228.07812 512.13794 226.79688Q513.2473 225.76562 513.4973 225.39062Q513.84106 224.875 513.84106 224.375Q513.84106 223.82812 513.5442 223.53125Q513.2473 223.23438 512.7317 223.23438Q512.21606 223.23438 511.90353 223.54688Q511.60666 223.85938 511.55978 224.57812L509.91916 224.42188Q510.05978 223.0625 510.8254 222.46875Q511.60666 221.875 512.76294 221.875Q514.0442 221.875 514.76294 222.5625Q515.4973 223.25 515.4973 224.26562Q515.4973 224.84375 515.27856 225.375Q515.07544 225.89062 514.6223 226.46875Q514.32544 226.84375 513.5442 227.5625Q512.76294 228.28125 512.5598 228.51562Q512.3567 228.75 512.21606 228.96875L515.4973 228.96875ZM518.34106 225.85938Q517.70044 225.59375 517.40356 225.125Q517.1223 224.65625 517.1223 224.09375Q517.1223 223.125 517.7942 222.5Q518.46606 221.875 519.70044 221.875Q520.9192 221.875 521.59106 222.5Q522.27856 223.125 522.27856 224.09375Q522.27856 224.6875 521.96606 225.15625Q521.65356 225.625 521.09106 225.85938Q521.8098 226.15625 522.1848 226.70312Q522.5598 227.25 522.5598 227.96875Q522.5598 229.15625 521.7942 229.90625Q521.0442 230.65625 519.77856 230.65625Q518.6067 230.65625 517.82544 230.03125Q516.90356 229.3125 516.90356 228.04688Q516.90356 227.34375 517.2473 226.76562Q517.59106 226.1875 518.34106 225.85938ZM518.6848 224.20312Q518.6848 224.70312 518.95044 224.98438Q519.2317 225.25 519.70044 225.25Q520.1692 225.25 520.45044 224.96875Q520.7317 224.6875 520.7317 224.20312Q520.7317 223.73438 520.45044 223.46875Q520.1692 223.1875 519.71606 223.1875Q519.2473 223.1875 518.96606 223.46875Q518.6848 223.75 518.6848 224.20312ZM518.52856 227.89062Q518.52856 228.5625 518.8723 228.95312Q519.2317 229.32812 519.7473 229.32812Q520.26294 229.32812 520.59106 228.96875Q520.9192 228.59375 520.9192 227.90625Q520.9192 227.29688 520.57544 226.9375Q520.2473 226.5625 519.7317 226.5625Q519.1223 226.5625 518.82544 226.98438Q518.52856 227.40625 518.52856 227.89062ZM524.2473 228.85938L525.88794 228.85938L525.88794 230.03125Q525.88794 230.75 525.76294 231.15625Q525.63794 231.57812 525.2942 231.90625Q524.95044 232.23438 524.4348 232.42188L524.1067 231.73438Q524.6067 231.57812 524.8098 231.28125Q525.02856 231.0 525.0442 230.5L524.2473 230.5L524.2473 228.85938ZM530.15356 230.5L530.15356 228.76562L526.63794 228.76562L526.63794 227.32812L530.3723 221.875L531.7473 221.875L531.7473 227.32812L532.82544 227.32812L532.82544 228.76562L531.7473 228.76562L531.7473 230.5L530.15356 230.5ZM530.15356 227.32812L530.15356 224.39062L528.1848 227.32812L530.15356 227.32812ZM539.4973 228.96875L539.4973 230.5L533.71606 230.5Q533.8098 229.625 534.27856 228.85938Q534.7473 228.07812 536.13794 226.79688Q537.2473 225.76562 537.4973 225.39062Q537.84106 224.875 537.84106 224.375Q537.84106 223.82812 537.5442 223.53125Q537.2473 223.23438 536.7317 223.23438Q536.21606 223.23438 535.90356 223.54688Q535.6067 223.85938 535.5598 224.57812L533.9192 224.42188Q534.0598 223.0625 534.82544 222.46875Q535.6067 221.875 536.76294 221.875Q538.0442 221.875 538.76294 222.5625Q539.4973 223.25 539.4973 224.26562Q539.4973 224.84375 539.27856 225.375Q539.07544 225.89062 538.6223 226.46875Q538.32544 226.84375 537.5442 227.5625Q536.76294 228.28125 536.5598 228.51562Q536.3567 228.75 536.21606 228.96875L539.4973 228.96875Z" fill-rule="nonzero"/><path fill="#000000" d="M297.45312 346.075L297.45312 345.075L301.07812 345.0594L301.07812 348.2469Q300.25 348.91876 299.35938 349.2625Q298.46875 349.59064 297.53125 349.59064Q296.26562 349.59064 295.21875 349.0594Q294.1875 348.5125 293.65625 347.4969Q293.14062 346.46564 293.14062 345.2Q293.14062 343.9344 293.65625 342.85626Q294.1875 341.7625 295.17188 341.2469Q296.15625 340.71564 297.4375 340.71564Q298.375 340.71564 299.125 341.0125Q299.875 341.3094 300.29688 341.85626Q300.73438 342.3875 300.95312 343.2625L299.9375 343.54376Q299.73438 342.8875 299.4375 342.5125Q299.15625 342.1375 298.625 341.91876Q298.09375 341.6844 297.45312 341.6844Q296.67188 341.6844 296.09375 341.91876Q295.53125 342.15314 295.17188 342.54376Q294.82812 342.9344 294.64062 343.40314Q294.3125 344.2 294.3125 345.1219Q294.3125 346.27814 294.70312 347.0594Q295.10938 347.825 295.85938 348.2Q296.60938 348.575 297.46875 348.575Q298.20312 348.575 298.90625 348.29376Q299.60938 347.9969 299.96875 347.6844L299.96875 346.075L297.45312 346.075ZM302.48438 349.45L302.48438 340.85626L308.28125 340.85626L308.28125 341.8719L303.625 341.8719L303.625 344.52814L307.65625 344.52814L307.65625 345.54376L303.625 345.54376L303.625 349.45L302.48438 349.45ZM309.375 349.45L309.375 340.85626L310.51562 340.85626L310.51562 348.4344L314.75 348.4344L314.75 349.45L309.375 349.45ZM316.07812 345.2625Q316.07812 343.1219 317.21875 341.91876Q318.375 340.7 320.1875 340.7Q321.39062 340.7 322.34375 341.27814Q323.29688 341.84064 323.79688 342.85626Q324.29688 343.8719 324.29688 345.16876Q324.29688 346.46564 323.76562 347.4969Q323.23438 348.52814 322.26562 349.0594Q321.3125 349.59064 320.1875 349.59064Q318.96875 349.59064 318.01562 349.0125Q317.0625 348.41876 316.5625 347.41876Q316.07812 346.40314 316.07812 345.2625ZM317.25 345.27814Q317.25 346.84064 318.07812 347.73126Q318.92188 348.6219 320.1875 348.6219Q321.46875 348.6219 322.29688 347.73126Q323.125 346.825 323.125 345.15314Q323.125 344.10626 322.76562 343.325Q322.42188 342.54376 321.73438 342.1219Q321.04688 341.6844 320.20312 341.6844Q319.0 341.6844 318.125 342.5125Q317.25 343.34064 317.25 345.27814ZM325.42188 349.45L325.42188 340.85626L328.67188 340.85626Q329.51562 340.85626 329.96875 340.9344Q330.60938 341.04376 331.03125 341.34064Q331.46875 341.6375 331.71875 342.16876Q331.98438 342.7 331.98438 343.34064Q331.98438 344.4344 331.28125 345.2Q330.59375 345.95 328.76562 345.95L326.5625 345.95L326.5625 349.45L325.42188 349.45ZM326.5625 344.95L328.78125 344.95Q329.89062 344.95 330.34375 344.54376Q330.8125 344.1219 330.8125 343.3719Q330.8125 342.84064 330.53125 342.46564Q330.26562 342.075 329.82812 341.95Q329.53125 341.8719 328.76562 341.8719L326.5625 341.8719L326.5625 344.95ZM332.5 349.59064L334.98438 340.71564L335.82812 340.71564L333.34375 349.59064L332.5 349.59064ZM335.875 347.59064L336.90625 347.4344Q337.0 348.0594 337.39062 348.3875Q337.79688 348.71564 338.53125 348.71564Q339.25 348.71564 339.59375 348.4344Q339.95312 348.1375 339.95312 347.73126Q339.95312 347.3719 339.64062 347.16876Q339.42188 347.02814 338.5625 346.8094Q337.40625 346.5125 336.95312 346.3094Q336.51562 346.09064 336.28125 345.71564Q336.04688 345.34064 336.04688 344.8719Q336.04688 344.46564 336.23438 344.10626Q336.42188 343.7469 336.75 343.5125Q337.0 343.34064 337.42188 343.21564Q337.84375 343.09064 338.34375 343.09064Q339.0625 343.09064 339.60938 343.3094Q340.17188 343.5125 340.4375 343.8719Q340.70312 344.23126 340.79688 344.825L339.76562 344.96564Q339.70312 344.4969 339.35938 344.23126Q339.03125 343.95 338.40625 343.95Q337.6875 343.95 337.375 344.2Q337.0625 344.4344 337.0625 344.7625Q337.0625 344.96564 337.1875 345.1219Q337.32812 345.29376 337.59375 345.40314Q337.75 345.46564 338.53125 345.66876Q339.65625 345.98126 340.09375 346.16876Q340.53125 346.35626 340.78125 346.71564Q341.03125 347.075 341.03125 347.6219Q341.03125 348.15314 340.71875 348.6219Q340.42188 349.075 339.84375 349.34064Q339.26562 349.59064 338.53125 349.59064Q337.3125 349.59064 336.67188 349.09064Q336.04688 348.575 335.875 347.59064Z" fill-rule="nonzero"/><path fill="#000000" d="M19.534374 206.61667L19.534374 198.02292L25.33125 198.02292L25.33125 199.03854L20.675 199.03854L20.675 201.6948L24.70625 201.6948L24.70625 202.71042L20.675 202.71042L20.675 206.61667L19.534374 206.61667ZM26.471874 206.61667L26.471874 198.02292L29.721874 198.02292Q30.565624 198.02292 31.01875 198.10104Q31.659374 198.21042 32.08125 198.5073Q32.51875 198.80417 32.76875 199.33542Q33.034374 199.86667 33.034374 200.5073Q33.034374 201.60104 32.33125 202.36667Q31.64375 203.11667 29.815624 203.11667L27.6125 203.11667L27.6125 206.61667L26.471874 206.61667ZM27.6125 202.11667L29.83125 202.11667Q30.940624 202.11667 31.39375 201.71042Q31.8625 201.28854 31.8625 200.53854Q31.8625 200.0073 31.58125 199.6323Q31.315624 199.24167 30.878124 199.11667Q30.58125 199.03854 29.815624 199.03854L27.6125 199.03854L27.6125 202.11667ZM34.05 204.35104L35.1125 204.21042Q35.284374 205.10104 35.721874 205.5073Q36.159374 205.89792 36.784374 205.89792Q37.534374 205.89792 38.05 205.3823Q38.565624 204.86667 38.565624 204.10104Q38.565624 203.3823 38.08125 202.91354Q37.6125 202.42917 36.878124 202.42917Q36.58125 202.42917 36.128124 202.55417L36.253124 201.61667Q36.3625 201.6323 36.425 201.6323Q37.096874 201.6323 37.628124 201.28854Q38.175 200.92917 38.175 200.1948Q38.175 199.61667 37.784374 199.24167Q37.39375 198.85104 36.76875 198.85104Q36.159374 198.85104 35.7375 199.24167Q35.33125 199.6323 35.221874 200.39792L34.159374 200.21042Q34.346874 199.16354 35.034374 198.58542Q35.721874 197.99167 36.7375 197.99167Q37.440624 197.99167 38.034374 198.30417Q38.628124 198.60104 38.940624 199.11667Q39.253124 199.6323 39.253124 200.22604Q39.253124 200.77292 38.95625 201.24167Q38.659374 201.6948 38.08125 201.96042Q38.83125 202.1323 39.253124 202.6948Q39.675 203.24167 39.675 204.08542Q39.675 205.21042 38.846874 205.99167Q38.034374 206.77292 36.784374 206.77292Q35.659374 206.77292 34.909374 206.10104Q34.159374 205.41354 34.05 204.35104ZM46.596874 205.60104L46.596874 206.61667L40.909374 206.61667Q40.909374 206.24167 41.034374 205.8823Q41.253124 205.30417 41.721874 204.74167Q42.20625 204.17917 43.1125 203.4448Q44.51875 202.28854 45.003124 201.61667Q45.503124 200.9448 45.503124 200.35104Q45.503124 199.72604 45.05 199.30417Q44.596874 198.86667 43.878124 198.86667Q43.1125 198.86667 42.659374 199.3198Q42.20625 199.77292 42.190624 200.58542L41.1125 200.47604Q41.221874 199.2573 41.940624 198.6323Q42.675 197.99167 43.909374 197.99167Q45.14375 197.99167 45.8625 198.67917Q46.58125 199.36667 46.58125 200.3823Q46.58125 200.89792 46.3625 201.39792Q46.159374 201.8823 45.659374 202.4448Q45.175 202.99167 44.05 203.9448Q43.096874 204.74167 42.815624 205.03854Q42.55 205.3198 42.378124 205.60104L46.596874 205.60104Z" fill-rule="nonzero"/><path fill="#000000" d="M50.55 313.21564Q50.55 311.6844 50.8625 310.7625Q51.175 309.825 51.784374 309.325Q52.409374 308.825 53.346874 308.825Q54.034374 308.825 54.55 309.10626Q55.08125 309.3875 55.425 309.91876Q55.76875 310.4344 55.95625 311.1844Q56.14375 311.9344 56.14375 313.21564Q56.14375 314.73126 55.83125 315.65314Q55.534374 316.575 54.909374 317.09064Q54.3 317.59064 53.346874 317.59064Q52.1125 317.59064 51.39375 316.7Q50.55 315.6375 50.55 313.21564ZM51.628124 313.21564Q51.628124 315.325 52.128124 316.02814Q52.628124 316.73126 53.346874 316.73126Q54.08125 316.73126 54.565624 316.02814Q55.065624 315.325 55.065624 313.21564Q55.065624 311.09064 54.565624 310.40314Q54.08125 309.7 53.33125 309.7Q52.6125 309.7 52.175 310.3094Q51.628124 311.09064 51.628124 313.21564Z" fill-rule="nonzero"/><path fill="#000000" d="M149.13 315.2L150.23938 315.10626Q150.36438 315.91876 150.80188 316.325Q151.255 316.73126 151.89563 316.73126Q152.64563 316.73126 153.17688 316.15314Q153.70813 315.575 153.70813 314.6375Q153.70813 313.73126 153.1925 313.21564Q152.6925 312.6844 151.86438 312.6844Q151.36438 312.6844 150.9425 312.91876Q150.53625 313.15314 150.30188 313.5125L149.3175 313.3875L150.14563 308.98126L154.42688 308.98126L154.42688 309.98126L150.98938 309.98126L150.53625 312.29376Q151.30188 311.7469 152.14563 311.7469Q153.27063 311.7469 154.03625 312.52814Q154.8175 313.3094 154.8175 314.54376Q154.8175 315.7 154.14563 316.5594Q153.3175 317.59064 151.89563 317.59064Q150.72375 317.59064 149.97375 316.9344Q149.23938 316.27814 149.13 315.2ZM156.13 313.21564Q156.13 311.6844 156.4425 310.7625Q156.755 309.825 157.36438 309.325Q157.98938 308.825 158.92688 308.825Q159.61438 308.825 160.13 309.10626Q160.66125 309.3875 161.005 309.91876Q161.34875 310.4344 161.53625 311.1844Q161.72375 311.9344 161.72375 313.21564Q161.72375 314.73126 161.41125 315.65314Q161.11438 316.575 160.48938 317.09064Q159.88 317.59064 158.92688 317.59064Q157.6925 317.59064 156.97375 316.7Q156.13 315.6375 156.13 313.21564ZM157.20813 313.21564Q157.20813 315.325 157.70813 316.02814Q158.20813 316.73126 158.92688 316.73126Q159.66125 316.73126 160.14563 316.02814Q160.64563 315.325 160.64563 313.21564Q160.64563 311.09064 160.14563 310.40314Q159.66125 309.7 158.91125 309.7Q158.1925 309.7 157.755 310.3094Q157.20813 311.09064 157.20813 313.21564ZM163.13 313.21564Q163.13 311.6844 163.4425 310.7625Q163.755 309.825 164.36438 309.325Q164.98938 308.825 165.92688 308.825Q166.61438 308.825 167.13 309.10626Q167.66125 309.3875 168.005 309.91876Q168.34875 310.4344 168.53625 311.1844Q168.72375 311.9344 168.72375 313.21564Q168.72375 314.73126 168.41125 315.65314Q168.11438 316.575 167.48938 317.09064Q166.88 317.59064 165.92688 317.59064Q164.6925 317.59064 163.97375 316.7Q163.13 315.6375 163.13 313.21564ZM164.20813 313.21564Q164.20813 315.325 164.70813 316.02814Q165.20813 316.73126 165.92688 316.73126Q166.66125 316.73126 167.14563 316.02814Q167.64563 315.325 167.64563 313.21564Q167.64563 311.09064 167.14563 310.40314Q166.66125 309.7 165.91125 309.7Q165.1925 309.7 164.755 310.3094Q164.20813 311.09064 164.20813 313.21564Z" fill-rule="nonzero"/><path fill="#000000" d="M255.17876 317.45L254.13188 317.45L254.13188 310.73126Q253.74126 311.09064 253.11626 311.46564Q252.50688 311.825 252.0225 311.9969L252.0225 310.98126Q252.8975 310.5594 253.55376 309.98126Q254.22563 309.3875 254.50688 308.825L255.17876 308.825L255.17876 317.45ZM258.21002 313.21564Q258.21002 311.6844 258.52252 310.7625Q258.83502 309.825 259.4444 309.325Q260.0694 308.825 261.0069 308.825Q261.6944 308.825 262.21002 309.10626Q262.74127 309.3875 263.08502 309.91876Q263.42877 310.4344 263.61627 311.1844Q263.80377 311.9344 263.80377 313.21564Q263.80377 314.73126 263.49127 315.65314Q263.1944 316.575 262.5694 317.09064Q261.96002 317.59064 261.0069 317.59064Q259.77252 317.59064 259.05377 316.7Q258.21002 315.6375 258.21002 313.21564ZM259.28815 313.21564Q259.28815 315.325 259.78815 316.02814Q260.28815 316.73126 261.0069 316.73126Q261.74127 316.73126 262.22565 316.02814Q262.72565 315.325 262.72565 313.21564Q262.72565 311.09064 262.22565 310.40314Q261.74127 309.7 260.99127 309.7Q260.27252 309.7 259.83502 310.3094Q259.28815 311.09064 259.28815 313.21564ZM265.21002 313.21564Q265.21002 311.6844 265.52252 310.7625Q265.83502 309.825 266.4444 309.325Q267.0694 308.825 268.0069 308.825Q268.6944 308.825 269.21002 309.10626Q269.74127 309.3875 270.08502 309.91876Q270.42877 310.4344 270.61627 311.1844Q270.80377 311.9344 270.80377 313.21564Q270.80377 314.73126 270.49127 315.65314Q270.1944 316.575 269.5694 317.09064Q268.96002 317.59064 268.0069 317.59064Q266.77252 317.59064 266.05377 316.7Q265.21002 315.6375 265.21002 313.21564ZM266.28815 313.21564Q266.28815 315.325 266.78815 316.02814Q267.28815 316.73126 268.0069 316.73126Q268.74127 316.73126 269.22565 316.02814Q269.72565 315.325 269.72565 313.21564Q269.72565 311.09064 269.22565 310.40314Q268.74127 309.7 267.99127 309.7Q267.27252 309.7 266.83502 310.3094Q266.28815 311.09064 266.28815 313.21564ZM272.21002 313.21564Q272.21002 311.6844 272.52252 310.7625Q272.83502 309.825 273.4444 309.325Q274.0694 308.825 275.0069 308.825Q275.6944 308.825 276.21002 309.10626Q276.74127 309.3875 277.08502 309.91876Q277.42877 310.4344 277.61627 311.1844Q277.80377 311.9344 277.80377 313.21564Q277.80377 314.73126 277.49127 315.65314Q277.1944 316.575 276.5694 317.09064Q275.96002 317.59064 275.0069 317.59064Q273.77252 317.59064 273.05377 316.7Q272.21002 315.6375 272.21002 313.21564ZM273.28815 313.21564Q273.28815 315.325 273.78815 316.02814Q274.28815 316.73126 275.0069 316.73126Q275.74127 316.73126 276.22565 316.02814Q276.72565 315.325 276.72565 313.21564Q276.72565 311.09064 276.22565 310.40314Q275.74127 309.7 274.99127 309.7Q274.27252 309.7 273.83502 310.3094Q273.28815 311.09064 273.28815 313.21564Z" fill-rule="nonzero"/><path fill="#000000" d="M360.75876 317.45L359.71188 317.45L359.71188 310.73126Q359.32126 311.09064 358.69626 311.46564Q358.08688 311.825 357.6025 311.9969L357.6025 310.98126Q358.4775 310.5594 359.13376 309.98126Q359.80563 309.3875 360.08688 308.825L360.75876 308.825L360.75876 317.45ZM363.79 315.2L364.89938 315.10626Q365.02438 315.91876 365.46188 316.325Q365.915 316.73126 366.55563 316.73126Q367.30563 316.73126 367.83688 316.15314Q368.36813 315.575 368.36813 314.6375Q368.36813 313.73126 367.8525 313.21564Q367.3525 312.6844 366.52438 312.6844Q366.02438 312.6844 365.6025 312.91876Q365.19626 313.15314 364.96188 313.5125L363.9775 313.3875L364.80563 308.98126L369.08688 308.98126L369.08688 309.98126L365.64938 309.98126L365.19626 312.29376Q365.96188 311.7469 366.80563 311.7469Q367.93063 311.7469 368.69626 312.52814Q369.4775 313.3094 369.4775 314.54376Q369.4775 315.7 368.80563 316.5594Q367.9775 317.59064 366.55563 317.59064Q365.38376 317.59064 364.63376 316.9344Q363.89938 316.27814 363.79 315.2ZM370.79 313.21564Q370.79 311.6844 371.1025 310.7625Q371.415 309.825 372.02438 309.325Q372.64938 308.825 373.58688 308.825Q374.27438 308.825 374.79 309.10626Q375.32126 309.3875 375.665 309.91876Q376.00876 310.4344 376.19626 311.1844Q376.38376 311.9344 376.38376 313.21564Q376.38376 314.73126 376.07126 315.65314Q375.77438 316.575 375.14938 317.09064Q374.54 317.59064 373.58688 317.59064Q372.3525 317.59064 371.63376 316.7Q370.79 315.6375 370.79 313.21564ZM371.86813 313.21564Q371.86813 315.325 372.36813 316.02814Q372.86813 316.73126 373.58688 316.73126Q374.32126 316.73126 374.80563 316.02814Q375.30563 315.325 375.30563 313.21564Q375.30563 311.09064 374.80563 310.40314Q374.32126 309.7 373.57126 309.7Q372.8525 309.7 372.415 310.3094Q371.86813 311.09064 371.86813 313.21564ZM377.79 313.21564Q377.79 311.6844 378.1025 310.7625Q378.415 309.825 379.02438 309.325Q379.64938 308.825 380.58688 308.825Q381.27438 308.825 381.79 309.10626Q382.32126 309.3875 382.665 309.91876Q383.00876 310.4344 383.19626 311.1844Q383.38376 311.9344 383.38376 313.21564Q383.38376 314.73126 383.07126 315.65314Q382.77438 316.575 382.14938 317.09064Q381.54 317.59064 380.58688 317.59064Q379.3525 317.59064 378.63376 316.7Q377.79 315.6375 377.79 313.21564ZM378.86813 313.21564Q378.86813 315.325 379.36813 316.02814Q379.86813 316.73126 380.58688 316.73126Q381.32126 316.73126 381.80563 316.02814Q382.30563 315.325 382.30563 313.21564Q382.30563 311.09064 381.80563 310.40314Q381.32126 309.7 380.57126 309.7Q379.8525 309.7 379.415 310.3094Q378.86813 311.09064 378.86813 313.21564Z" fill-rule="nonzero"/><path fill="#000000" d="M467.91687 316.4344L467.91687 317.45L462.22937 317.45Q462.22937 317.075 462.35437 316.71564Q462.57312 316.1375 463.04187 315.575Q463.52625 315.0125 464.4325 314.27814Q465.83875 313.1219 466.32312 312.45Q466.82312 311.77814 466.82312 311.1844Q466.82312 310.5594 466.37 310.1375Q465.91687 309.7 465.19812 309.7Q464.4325 309.7 463.97937 310.15314Q463.52625 310.60626 463.51062 311.41876L462.4325 311.3094Q462.54187 310.09064 463.26062 309.46564Q463.995 308.825 465.22937 308.825Q466.46375 308.825 467.1825 309.5125Q467.90125 310.2 467.90125 311.21564Q467.90125 311.73126 467.6825 312.23126Q467.47937 312.71564 466.97937 313.27814Q466.495 313.825 465.37 314.77814Q464.41687 315.575 464.13562 315.8719Q463.87 316.15314 463.69812 316.4344L467.91687 316.4344ZM469.37 313.21564Q469.37 311.6844 469.6825 310.7625Q469.995 309.825 470.60437 309.325Q471.22937 308.825 472.16687 308.825Q472.85437 308.825 473.37 309.10626Q473.90125 309.3875 474.245 309.91876Q474.58875 310.4344 474.77625 311.1844Q474.96375 311.9344 474.96375 313.21564Q474.96375 314.73126 474.65125 315.65314Q474.35437 316.575 473.72937 317.09064Q473.12 317.59064 472.16687 317.59064Q470.9325 317.59064 470.21375 316.7Q469.37 315.6375 469.37 313.21564ZM470.44812 313.21564Q470.44812 315.325 470.94812 316.02814Q471.44812 316.73126 472.16687 316.73126Q472.90125 316.73126 473.38562 316.02814Q473.88562 315.325 473.88562 313.21564Q473.88562 311.09064 473.38562 310.40314Q472.90125 309.7 472.15125 309.7Q471.4325 309.7 470.995 310.3094Q470.44812 311.09064 470.44812 313.21564ZM476.37 313.21564Q476.37 311.6844 476.6825 310.7625Q476.995 309.825 477.60437 309.325Q478.22937 308.825 479.16687 308.825Q479.85437 308.825 480.37 309.10626Q480.90125 309.3875 481.245 309.91876Q481.58875 310.4344 481.77625 311.1844Q481.96375 311.9344 481.96375 313.21564Q481.96375 314.73126 481.65125 315.65314Q481.35437 316.575 480.72937 317.09064Q480.12 317.59064 479.16687 317.59064Q477.9325 317.59064 477.21375 316.7Q476.37 315.6375 476.37 313.21564ZM477.44812 313.21564Q477.44812 315.325 477.94812 316.02814Q478.44812 316.73126 479.16687 316.73126Q479.90125 316.73126 480.38562 316.02814Q480.88562 315.325 480.88562 313.21564Q480.88562 311.09064 480.38562 310.40314Q479.90125 309.7 479.15125 309.7Q478.4325 309.7 477.995 310.3094Q477.44812 311.09064 477.44812 313.21564ZM483.37 313.21564Q483.37 311.6844 483.6825 310.7625Q483.995 309.825 484.60437 309.325Q485.22937 308.825 486.16687 308.825Q486.85437 308.825 487.37 309.10626Q487.90125 309.3875 488.245 309.91876Q488.58875 310.4344 488.77625 311.1844Q488.96375 311.9344 488.96375 313.21564Q488.96375 314.73126 488.65125 315.65314Q488.35437 316.575 487.72937 317.09064Q487.12 317.59064 486.16687 317.59064Q484.9325 317.59064 484.21375 316.7Q483.37 315.6375 483.37 313.21564ZM484.44812 313.21564Q484.44812 315.325 484.94812 316.02814Q485.44812 316.73126 486.16687 316.73126Q486.90125 316.73126 487.38562 316.02814Q487.88562 315.325 487.88562 313.21564Q487.88562 311.09064 487.38562 310.40314Q486.90125 309.7 486.15125 309.7Q485.4325 309.7 484.995 310.3094Q484.44812 311.09064 484.44812 313.21564Z" fill-rule="nonzero"/><path fill="#000000" d="M573.4969 316.4344L573.4969 317.45L567.8094 317.45Q567.8094 317.075 567.9344 316.71564Q568.15314 316.1375 568.6219 315.575Q569.10626 315.0125 570.0125 314.27814Q571.41876 313.1219 571.90314 312.45Q572.40314 311.77814 572.40314 311.1844Q572.40314 310.5594 571.95 310.1375Q571.4969 309.7 570.77814 309.7Q570.0125 309.7 569.5594 310.15314Q569.10626 310.60626 569.09064 311.41876L568.0125 311.3094Q568.1219 310.09064 568.84064 309.46564Q569.575 308.825 570.8094 308.825Q572.04376 308.825 572.7625 309.5125Q573.48126 310.2 573.48126 311.21564Q573.48126 311.73126 573.2625 312.23126Q573.0594 312.71564 572.5594 313.27814Q572.075 313.825 570.95 314.77814Q569.9969 315.575 569.71564 315.8719Q569.45 316.15314 569.27814 316.4344L573.4969 316.4344ZM574.95 315.2L576.0594 315.10626Q576.1844 315.91876 576.6219 316.325Q577.075 316.73126 577.71564 316.73126Q578.46564 316.73126 578.9969 316.15314Q579.52814 315.575 579.52814 314.6375Q579.52814 313.73126 579.0125 313.21564Q578.5125 312.6844 577.6844 312.6844Q577.1844 312.6844 576.7625 312.91876Q576.35626 313.15314 576.1219 313.5125L575.1375 313.3875L575.96564 308.98126L580.2469 308.98126L580.2469 309.98126L576.8094 309.98126L576.35626 312.29376Q577.1219 311.7469 577.96564 311.7469Q579.09064 311.7469 579.85626 312.52814Q580.6375 313.3094 580.6375 314.54376Q580.6375 315.7 579.96564 316.5594Q579.1375 317.59064 577.71564 317.59064Q576.54376 317.59064 575.79376 316.9344Q575.0594 316.27814 574.95 315.2ZM581.95 313.21564Q581.95 311.6844 582.2625 310.7625Q582.575 309.825 583.1844 309.325Q583.8094 308.825 584.7469 308.825Q585.4344 308.825 585.95 309.10626Q586.48126 309.3875 586.825 309.91876Q587.16876 310.4344 587.35626 311.1844Q587.54376 311.9344 587.54376 313.21564Q587.54376 314.73126 587.23126 315.65314Q586.9344 316.575 586.3094 317.09064Q585.7 317.59064 584.7469 317.59064Q583.5125 317.59064 582.79376 316.7Q581.95 315.6375 581.95 313.21564ZM583.02814 313.21564Q583.02814 315.325 583.52814 316.02814Q584.02814 316.73126 584.7469 316.73126Q585.48126 316.73126 585.96564 316.02814Q586.46564 315.325 586.46564 313.21564Q586.46564 311.09064 585.96564 310.40314Q585.48126 309.7 584.73126 309.7Q584.0125 309.7 583.575 310.3094Q583.02814 311.09064 583.02814 313.21564ZM588.95 313.21564Q588.95 311.6844 589.2625 310.7625Q589.575 309.825 590.1844 309.325Q590.8094 308.825 591.7469 308.825Q592.4344 308.825 592.95 309.10626Q593.48126 309.3875 593.825 309.91876Q594.16876 310.4344 594.35626 311.1844Q594.54376 311.9344 594.54376 313.21564Q594.54376 314.73126 594.23126 315.65314Q593.9344 316.575 593.3094 317.09064Q592.7 317.59064 591.7469 317.59064Q590.5125 317.59064 589.79376 316.7Q588.95 315.6375 588.95 313.21564ZM590.02814 313.21564Q590.02814 315.325 590.52814 316.02814Q591.02814 316.73126 591.7469 316.73126Q592.48126 316.73126 592.96564 316.02814Q593.46564 315.325 593.46564 313.21564Q593.46564 311.09064 592.96564 310.40314Q592.48126 309.7 591.73126 309.7Q591.0125 309.7 590.575 310.3094Q590.02814 311.09064 590.02814 313.21564Z" fill-rule="nonzero"/><path fill="#4285f4" d="M198.0 80.416664C198.0 79.86438 198.44771 79.416664 199.0 79.416664L209.0 79.416664C209.55229 79.416664 210.0 79.86438 210.0 80.416664L210.0 90.416664C210.0 90.96895 209.55229 91.416664 209.0 91.416664L199.0 91.416664C198.44771 91.416664 198.0 90.96895 198.0 90.416664Z" fill-rule="nonzero"/><path fill="#1a1a1a" d="M218.9375 89.416664L218.9375 80.822914L222.75 80.822914Q223.90625 80.822914 224.5 81.05729Q225.09375 81.291664 225.45312 81.885414Q225.8125 82.46354 225.8125 83.166664Q225.8125 84.08854 225.21875 84.71354Q224.625 85.33854 223.39062 85.510414Q223.84375 85.729164 224.07812 85.93229Q224.57812 86.385414 225.01562 87.072914L226.51562 89.416664L225.07812 89.416664L223.95312 87.635414Q223.45312 86.854164 223.125 86.447914Q222.8125 86.041664 222.54688 85.885414Q222.29688 85.71354 222.03125 85.635414Q221.84375 85.604164 221.40625 85.604164L220.07812 85.604164L220.07812 89.416664L218.9375 89.416664ZM220.07812 84.61979L222.53125 84.61979Q223.29688 84.61979 223.73438 84.46354Q224.1875 84.291664 224.40625 83.947914Q224.64062 83.58854 224.64062 83.166664Q224.64062 82.55729 224.1875 82.166664Q223.75 81.77604 222.79688 81.77604L220.07812 81.77604L220.07812 84.61979ZM231.875 89.416664L231.875 88.49479Q231.14062 89.55729 229.89062 89.55729Q229.34375 89.55729 228.85938 89.354164Q228.39062 89.135414 228.15625 88.822914Q227.92188 88.49479 227.82812 88.02604Q227.76562 87.729164 227.76562 87.041664L227.76562 83.197914L228.82812 83.197914L228.82812 86.65104Q228.82812 87.46354 228.89062 87.760414Q228.98438 88.166664 229.29688 88.416664Q229.625 88.65104 230.10938 88.65104Q230.57812 88.65104 230.98438 88.416664Q231.40625 88.166664 231.57812 87.74479Q231.76562 87.322914 231.76562 86.52604L231.76562 83.197914L232.8125 83.197914L232.8125 89.416664L231.875 89.416664ZM234.375 87.55729L235.40625 87.40104Q235.5 88.02604 235.89062 88.354164Q236.29688 88.68229 237.03125 88.68229Q237.75 88.68229 238.09375 88.40104Q238.45312 88.104164 238.45312 87.697914Q238.45312 87.33854 238.14062 87.135414Q237.92188 86.99479 237.0625 86.77604Q235.90625 86.479164 235.45312 86.27604Q235.01562 86.05729 234.78125 85.68229Q234.54688 85.30729 234.54688 84.83854Q234.54688 84.43229 234.73438 84.072914Q234.92188 83.71354 235.25 83.479164Q235.5 83.30729 235.92188 83.18229Q236.34375 83.05729 236.84375 83.05729Q237.5625 83.05729 238.10938 83.27604Q238.67188 83.479164 238.9375 83.83854Q239.20312 84.197914 239.29688 84.791664L238.26562 84.93229Q238.20312 84.46354 237.85938 84.197914Q237.53125 83.916664 236.90625 83.916664Q236.1875 83.916664 235.875 84.166664Q235.5625 84.40104 235.5625 84.729164Q235.5625 84.93229 235.6875 85.08854Q235.82812 85.260414 236.09375 85.36979Q236.25 85.43229 237.03125 85.635414Q238.15625 85.947914 238.59375 86.135414Q239.03125 86.322914 239.28125 86.68229Q239.53125 87.041664 239.53125 87.58854Q239.53125 88.11979 239.21875 88.58854Q238.92188 89.041664 238.34375 89.30729Q237.76562 89.55729 237.03125 89.55729Q235.8125 89.55729 235.17188 89.05729Q234.54688 88.541664 234.375 87.55729ZM244.09375 88.479164L244.25 89.40104Q243.79688 89.49479 243.45312 89.49479Q242.875 89.49479 242.5625 89.322914Q242.25 89.135414 242.10938 88.83854Q241.98438 88.541664 241.98438 87.58854L241.98438 84.010414L241.21875 84.010414L241.21875 83.197914L241.98438 83.197914L241.98438 81.65104L243.03125 81.02604L243.03125 83.197914L244.09375 83.197914L244.09375 84.010414L243.03125 84.010414L243.03125 87.65104Q243.03125 88.104164 243.07812 88.229164Q243.14062 88.354164 243.26562 88.43229Q243.39062 88.510414 243.625 88.510414Q243.8125 88.510414 244.09375 88.479164ZM244.375 86.83854L244.375 85.77604L247.625 85.77604L247.625 86.83854L244.375 86.83854ZM255.0625 86.40104L256.1875 86.697914Q255.82812 88.08854 254.90625 88.822914Q253.98438 89.55729 252.64062 89.55729Q251.25 89.55729 250.375 88.99479Q249.5 88.43229 249.04688 87.36979Q248.59375 86.291664 248.59375 85.05729Q248.59375 83.71354 249.10938 82.71354Q249.625 81.71354 250.5625 81.197914Q251.51562 80.68229 252.65625 80.68229Q253.9375 80.68229 254.8125 81.33854Q255.70312 81.99479 256.04688 83.18229L254.92188 83.447914Q254.625 82.510414 254.04688 82.08854Q253.48438 81.65104 252.625 81.65104Q251.64062 81.65104 250.96875 82.135414Q250.3125 82.604164 250.03125 83.40104Q249.76562 84.197914 249.76562 85.05729Q249.76562 86.15104 250.07812 86.96354Q250.40625 87.77604 251.07812 88.18229Q251.75 88.58854 252.54688 88.58854Q253.5 88.58854 254.15625 88.041664Q254.82812 87.49479 255.0625 86.40104ZM263.5625 80.822914L264.70312 80.822914L264.70312 85.791664Q264.70312 87.08854 264.40625 87.854164Q264.10938 88.604164 263.34375 89.08854Q262.57812 89.55729 261.34375 89.55729Q260.14062 89.55729 259.35938 89.15104Q258.59375 88.729164 258.26562 87.947914Q257.9375 87.15104 257.9375 85.791664L257.9375 80.822914L259.07812 80.822914L259.07812 85.77604Q259.07812 86.90104 259.28125 87.43229Q259.5 87.96354 260.0 88.260414Q260.51562 88.541664 261.25 88.541664Q262.5 88.541664 263.03125 87.979164Q263.5625 87.40104 263.5625 85.77604L263.5625 80.822914ZM266.92188 89.416664L266.92188 80.822914L269.89062 80.822914Q270.89062 80.822914 271.42188 80.947914Q272.15625 81.11979 272.67188 81.55729Q273.35938 82.135414 273.6875 83.041664Q274.03125 83.93229 274.03125 85.072914Q274.03125 86.05729 273.79688 86.80729Q273.57812 87.55729 273.21875 88.05729Q272.85938 88.55729 272.42188 88.83854Q272.0 89.11979 271.40625 89.27604Q270.8125 89.416664 270.03125 89.416664L266.92188 89.416664ZM268.0625 88.40104L269.89062 88.40104Q270.75 88.40104 271.23438 88.24479Q271.71875 88.08854 272.0 87.791664Q272.40625 87.40104 272.625 86.71354Q272.85938 86.02604 272.85938 85.05729Q272.85938 83.71354 272.40625 82.99479Q271.96875 82.260414 271.34375 82.010414Q270.875 81.83854 269.875 81.83854L268.0625 81.83854L268.0625 88.40104ZM274.98438 89.416664L278.28125 80.822914L279.5 80.822914L283.01562 89.416664L281.73438 89.416664L280.71875 86.80729L277.14062 86.80729L276.1875 89.416664L274.98438 89.416664ZM277.46875 85.885414L280.375 85.885414L279.48438 83.510414Q279.0625 82.43229 278.875 81.729164Q278.70312 82.55729 278.40625 83.36979L277.46875 85.885414Z" fill-rule="nonzero"/><path fill="#ea4335" d="M298.0 80.416664C298.0 79.86438 298.44772 79.416664 299.0 79.416664L309.0 79.416664C309.55228 79.416664 310.0 79.86438 310.0 80.416664L310.0 90.416664C310.0 90.96895 309.55228 91.416664 309.0 91.416664L299.0 91.416664C298.44772 91.416664 298.0 90.96895 298.0 90.416664Z" fill-rule="nonzero"/><path fill="#1a1a1a" d="M318.92188 89.416664L318.92188 80.822914L320.07812 80.822914L324.59375 87.572914L324.59375 80.822914L325.6875 80.822914L325.6875 89.416664L324.51562 89.416664L320.0 82.666664L320.0 89.416664L318.92188 89.416664ZM330.375 89.416664L327.04688 80.822914L328.28125 80.822914L330.51562 87.072914Q330.78125 87.822914 330.96875 88.479164Q331.17188 87.77604 331.4375 87.072914L333.75 80.822914L334.90625 80.822914L331.54688 89.416664L330.375 89.416664ZM335.125 89.416664L335.125 80.822914L336.25 80.822914L336.25 89.416664L335.125 89.416664ZM337.92188 89.416664L337.92188 80.822914L340.89062 80.822914Q341.89062 80.822914 342.42188 80.947914Q343.15625 81.11979 343.67188 81.55729Q344.35938 82.135414 344.6875 83.041664Q345.03125 83.93229 345.03125 85.072914Q345.03125 86.05729 344.79688 86.80729Q344.57812 87.55729 344.21875 88.05729Q343.85938 88.55729 343.42188 88.83854Q343.0 89.11979 342.40625 89.27604Q341.8125 89.416664 341.03125 89.416664L337.92188 89.416664ZM339.0625 88.40104L340.89062 88.40104Q341.75 88.40104 342.23438 88.24479Q342.71875 88.08854 343.0 87.791664Q343.40625 87.40104 343.625 86.71354Q343.85938 86.02604 343.85938 85.05729Q343.85938 83.71354 343.40625 82.99479Q342.96875 82.260414 342.34375 82.010414Q341.875 81.83854 340.875 81.83854L339.0625 81.83854L339.0625 88.40104ZM347.125 89.416664L347.125 80.822914L348.25 80.822914L348.25 89.416664L347.125 89.416664ZM348.98438 89.416664L352.28125 80.822914L353.5 80.822914L357.01562 89.416664L355.73438 89.416664L354.71875 86.80729L351.14062 86.80729L350.1875 89.416664L348.98438 89.416664ZM351.46875 85.885414L354.375 85.885414L353.48438 83.510414Q353.0625 82.43229 352.875 81.729164Q352.70312 82.55729 352.40625 83.36979L351.46875 85.885414ZM363.85938 87.135414L364.89062 87.27604Q364.71875 88.33854 364.01562 88.947914Q363.3125 89.55729 362.29688 89.55729Q361.01562 89.55729 360.23438 88.729164Q359.46875 87.885414 359.46875 86.322914Q359.46875 85.322914 359.79688 84.572914Q360.14062 83.80729 360.8125 83.43229Q361.5 83.05729 362.3125 83.05729Q363.3125 83.05729 363.95312 83.572914Q364.60938 84.072914 364.79688 85.02604L363.76562 85.18229Q363.625 84.55729 363.25 84.24479Q362.875 83.916664 362.34375 83.916664Q361.54688 83.916664 361.04688 84.49479Q360.54688 85.05729 360.54688 86.291664Q360.54688 87.55729 361.03125 88.11979Q361.51562 88.68229 362.28125 88.68229Q362.90625 88.68229 363.3125 88.30729Q363.73438 87.93229 363.85938 87.135414ZM369.875 89.416664L369.875 88.49479Q369.14062 89.55729 367.89062 89.55729Q367.34375 89.55729 366.85938 89.354164Q366.39062 89.135414 366.15625 88.822914Q365.92188 88.49479 365.82812 88.02604Q365.76562 87.729164 365.76562 87.041664L365.76562 83.197914L366.82812 83.197914L366.82812 86.65104Q366.82812 87.46354 366.89062 87.760414Q366.98438 88.166664 367.29688 88.416664Q367.625 88.65104 368.10938 88.65104Q368.57812 88.65104 368.98438 88.416664Q369.40625 88.166664 369.57812 87.74479Q369.76562 87.322914 369.76562 86.52604L369.76562 83.197914L370.8125 83.197914L370.8125 89.416664L369.875 89.416664ZM372.875 89.416664L372.875 80.822914L376.10938 80.822914Q377.09375 80.822914 377.6875 81.08854Q378.28125 81.354164 378.60938 81.90104Q378.95312 82.43229 378.95312 83.02604Q378.95312 83.572914 378.65625 84.05729Q378.35938 84.541664 377.75 84.83854Q378.53125 85.072914 378.9375 85.635414Q379.35938 86.18229 379.35938 86.93229Q379.35938 87.52604 379.10938 88.05729Q378.85938 88.572914 378.48438 88.854164Q378.10938 89.135414 377.53125 89.27604Q376.96875 89.416664 376.15625 89.416664L372.875 89.416664ZM374.01562 84.43229L375.875 84.43229Q376.625 84.43229 376.95312 84.33854Q377.39062 84.21354 377.60938 83.916664Q377.82812 83.604164 377.82812 83.15104Q377.82812 82.729164 377.625 82.40104Q377.42188 82.072914 377.03125 81.96354Q376.65625 81.83854 375.73438 81.83854L374.01562 81.83854L374.01562 84.43229ZM374.01562 88.40104L376.15625 88.40104Q376.70312 88.40104 376.92188 88.354164Q377.32812 88.291664 377.57812 88.135414Q377.84375 87.96354 378.01562 87.65104Q378.1875 87.33854 378.1875 86.93229Q378.1875 86.447914 377.9375 86.08854Q377.70312 85.729164 377.26562 85.58854Q376.82812 85.447914 376.0 85.447914L374.01562 85.447914L374.01562 88.40104ZM380.875 89.416664L380.875 80.822914L382.01562 80.822914L382.01562 88.40104L386.25 88.40104L386.25 89.416664L380.875 89.416664ZM386.98438 89.416664L390.28125 80.822914L391.5 80.822914L395.01562 89.416664L393.73438 89.416664L392.71875 86.80729L389.14062 86.80729L388.1875 89.416664L386.98438 89.416664ZM389.46875 85.885414L392.375 85.885414L391.48438 83.510414Q391.0625 82.43229 390.875 81.729164Q390.70312 82.55729 390.40625 83.36979L389.46875 85.885414ZM394.54688 86.65104L395.60938 86.55729Q395.6875 87.21354 395.96875 87.61979Q396.25 88.02604 396.82812 88.291664Q397.42188 88.541664 398.15625 88.541664Q398.79688 88.541664 399.29688 88.354164Q399.79688 88.15104 400.03125 87.822914Q400.28125 87.479164 400.28125 87.08854Q400.28125 86.68229 400.04688 86.385414Q399.8125 86.072914 399.28125 85.86979Q398.92188 85.729164 397.73438 85.447914Q396.5625 85.166664 396.09375 84.916664Q395.46875 84.58854 395.17188 84.11979Q394.875 83.635414 394.875 83.041664Q394.875 82.40104 395.23438 81.83854Q395.60938 81.260414 396.3125 80.979164Q397.03125 80.68229 397.89062 80.68229Q398.84375 80.68229 399.57812 80.99479Q400.3125 81.291664 400.70312 81.90104Q401.09375 82.49479 401.125 83.24479L400.03125 83.322914Q399.9375 82.510414 399.42188 82.104164Q398.92188 81.68229 397.9375 81.68229Q396.90625 81.68229 396.4375 82.05729Q395.96875 82.43229 395.96875 82.96354Q395.96875 83.43229 396.29688 83.729164Q396.625 84.02604 398.0 84.33854Q399.39062 84.65104 399.90625 84.885414Q400.65625 85.24479 401.01562 85.77604Q401.375 86.291664 401.375 86.99479Q401.375 87.68229 400.98438 88.291664Q400.59375 88.885414 399.85938 89.229164Q399.125 89.55729 398.20312 89.55729Q397.03125 89.55729 396.23438 89.229164Q395.45312 88.885414 395.0 88.197914Q394.5625 87.510414 394.54688 86.65104Z" fill-rule="nonzero"/><path fill="#999999" d="M20.175 55.83125L21.425 55.721874Q21.51875 56.471874 21.846874 56.95625Q22.175 57.440624 22.846874 57.7375Q23.534374 58.034374 24.39375 58.034374Q25.14375 58.034374 25.721874 57.815624Q26.315624 57.58125 26.596874 57.190624Q26.878124 56.8 26.878124 56.33125Q26.878124 55.8625 26.596874 55.51875Q26.33125 55.159374 25.70625 54.909374Q25.3 54.753124 23.909374 54.425Q22.534374 54.096874 21.9875 53.8Q21.26875 53.425 20.909374 52.878124Q20.565624 52.315624 20.565624 51.6125Q20.565624 50.8625 20.9875 50.20625Q21.425 49.534374 22.253124 49.20625Q23.08125 48.8625 24.096874 48.8625Q25.20625 48.8625 26.05 49.221874Q26.909374 49.58125 27.3625 50.284374Q27.815624 50.971874 27.8625 51.846874L26.58125 51.940624Q26.4875 51.003124 25.89375 50.51875Q25.3 50.01875 24.14375 50.01875Q22.940624 50.01875 22.39375 50.471874Q21.846874 50.909374 21.846874 51.534374Q21.846874 52.065624 22.2375 52.425Q22.6125 52.76875 24.221874 53.14375Q25.846874 53.503124 26.440624 53.76875Q27.315624 54.175 27.7375 54.8Q28.159374 55.409374 28.159374 56.221874Q28.159374 57.01875 27.690624 57.7375Q27.2375 58.440624 26.378124 58.83125Q25.51875 59.221874 24.45625 59.221874Q23.096874 59.221874 22.175 58.83125Q21.253124 58.425 20.721874 57.628124Q20.20625 56.83125 20.175 55.83125ZM34.315624 55.1125L34.315624 53.940624L38.565624 53.940624L38.565624 57.659374Q37.58125 58.440624 36.534374 58.83125Q35.503124 59.221874 34.409374 59.221874Q32.940624 59.221874 31.721874 58.596874Q30.51875 57.95625 29.909374 56.76875Q29.3 55.565624 29.3 54.08125Q29.3 52.628124 29.909374 51.3625Q30.51875 50.08125 31.659374 49.471874Q32.815624 48.8625 34.315624 48.8625Q35.39375 48.8625 36.26875 49.221874Q37.159374 49.565624 37.659374 50.190624Q38.159374 50.815624 38.409374 51.83125L37.221874 52.159374Q36.9875 51.39375 36.64375 50.95625Q36.315624 50.51875 35.690624 50.253124Q35.08125 49.9875 34.315624 49.9875Q33.409374 49.9875 32.7375 50.26875Q32.08125 50.55 31.675 51.003124Q31.26875 51.440624 31.05 51.9875Q30.659374 52.925 30.659374 54.003124Q30.659374 55.346874 31.1125 56.253124Q31.58125 57.14375 32.45625 57.58125Q33.346874 58.01875 34.346874 58.01875Q35.20625 58.01875 36.01875 57.690624Q36.846874 57.3625 37.26875 56.9875L37.26875 55.1125L34.315624 55.1125ZM40.659374 59.05L40.659374 49.034374L47.909374 49.034374L47.909374 50.20625L41.9875 50.20625L41.9875 53.284374L47.534374 53.284374L47.534374 54.45625L41.9875 54.45625L41.9875 57.8625L48.14375 57.8625L48.14375 59.05L40.659374 59.05ZM49.596874 59.05L49.596874 49.034374L51.58125 49.034374L53.95625 56.128124Q54.284374 57.1125 54.440624 57.6125Q54.6125 57.065624 54.971874 56.003124L57.3625 49.034374L59.159374 49.034374L59.159374 59.05L57.878124 59.05L57.878124 50.659374L54.95625 59.05L53.76875 59.05L50.8625 50.51875L50.8625 59.05L49.596874 59.05ZM60.596874 59.05L60.596874 49.034374L62.58125 49.034374L64.95625 56.128124Q65.28438 57.1125 65.44063 57.6125Q65.6125 57.065624 65.97188 56.003124L68.3625 49.034374L70.15938 49.034374L70.15938 59.05L68.87813 59.05L68.87813 50.659374L65.95625 59.05L64.76875 59.05L61.8625 50.51875L61.8625 59.05L60.596874 59.05ZM81.59688 57.8625L81.59688 59.05L74.97188 59.05Q74.95625 58.6125 75.1125 58.190624Q75.37813 57.51875 75.925 56.8625Q76.4875 56.20625 77.53438 55.346874Q79.175 54.003124 79.7375 53.221874Q80.31563 52.440624 80.31563 51.7375Q80.31563 51.003124 79.78438 50.503124Q79.26875 50.003124 78.44063 50.003124Q77.55 50.003124 77.00313 50.534374Q76.47188 51.065624 76.47188 52.01875L75.20625 51.878124Q75.33125 50.471874 76.175 49.7375Q77.03438 48.9875 78.45625 48.9875Q79.90938 48.9875 80.7375 49.784374Q81.58125 50.58125 81.58125 51.76875Q81.58125 52.378124 81.33125 52.95625Q81.09688 53.534374 80.51875 54.175Q79.95625 54.815624 78.62813 55.940624Q77.51875 56.8625 77.20625 57.20625Q76.89375 57.534374 76.69063 57.8625L81.59688 57.8625ZM83.12813 54.1125Q83.12813 52.33125 83.4875 51.253124Q83.8625 50.159374 84.58125 49.58125Q85.3 48.9875 86.39375 48.9875Q87.20625 48.9875 87.81563 49.315624Q88.425 49.64375 88.81563 50.253124Q89.22188 50.8625 89.44063 51.7375Q89.65938 52.6125 89.65938 54.1125Q89.65938 55.878124 89.3 56.95625Q88.94063 58.034374 88.22188 58.628124Q87.50313 59.221874 86.39375 59.221874Q84.95625 59.221874 84.12813 58.175Q83.12813 56.925 83.12813 54.1125ZM84.39375 54.1125Q84.39375 56.58125 84.97188 57.39375Q85.55 58.20625 86.39375 58.20625Q87.25313 58.20625 87.83125 57.39375Q88.40938 56.565624 88.40938 54.1125Q88.40938 51.628124 87.83125 50.815624Q87.25313 50.003124 86.37813 50.003124Q85.53438 50.003124 85.03438 50.721874Q84.39375 51.64375 84.39375 54.1125ZM95.08125 59.05L95.08125 56.64375L90.72188 56.64375L90.72188 55.51875L95.3 49.034374L96.3 49.034374L96.3 55.51875L97.65938 55.51875L97.65938 56.64375L96.3 56.64375L96.3 59.05L95.08125 59.05ZM95.08125 55.51875L95.08125 51.003124L91.94063 55.51875L95.08125 55.51875ZM101.01875 53.6125Q100.25313 53.33125 99.87813 52.815624Q99.51875 52.3 99.51875 51.565624Q99.51875 50.471874 100.3 49.7375Q101.09688 48.9875 102.39375 48.9875Q103.70625 48.9875 104.50313 49.753124Q105.31563 50.51875 105.31563 51.6125Q105.31563 52.3 104.94063 52.815624Q104.58125 53.33125 103.83125 53.6125Q104.75313 53.909374 105.2375 54.58125Q105.72188 55.253124 105.72188 56.190624Q105.72188 57.471874 104.81563 58.346874Q103.90938 59.221874 102.425 59.221874Q100.94063 59.221874 100.01875 58.346874Q99.1125 57.45625 99.1125 56.14375Q99.1125 55.175 99.6125 54.51875Q100.1125 53.846874 101.01875 53.6125ZM100.78438 51.534374Q100.78438 52.2375 101.2375 52.690624Q101.69063 53.14375 102.425 53.14375Q103.14375 53.14375 103.59688 52.70625Q104.05 52.253124 104.05 51.596874Q104.05 50.925 103.58125 50.471874Q103.1125 50.003124 102.40938 50.003124Q101.70625 50.003124 101.2375 50.45625Q100.78438 50.89375 100.78438 51.534374ZM100.37813 56.159374Q100.37813 56.690624 100.62813 57.190624Q100.87813 57.675 101.3625 57.940624Q101.8625 58.20625 102.44063 58.20625Q103.31563 58.20625 103.87813 57.64375Q104.45625 57.08125 104.45625 56.20625Q104.45625 55.315624 103.8625 54.7375Q103.28438 54.14375 102.39375 54.14375Q101.51875 54.14375 100.94063 54.721874Q100.37813 55.3 100.37813 56.159374ZM106.65938 59.05L109.3 55.26875L106.84688 51.784374L108.39375 51.784374L109.50313 53.4875Q109.81563 53.971874 110.00313 54.3Q110.31563 53.846874 110.56563 53.503124L111.78438 51.784374L113.25313 51.784374L110.75313 55.20625L113.44063 59.05L111.94063 59.05L110.44063 56.8L110.05 56.190624L108.14375 59.05L106.65938 59.05ZM119.59688 57.8625L119.59688 59.05L112.97188 59.05Q112.95625 58.6125 113.1125 58.190624Q113.37813 57.51875 113.925 56.8625Q114.4875 56.20625 115.53438 55.346874Q117.175 54.003124 117.7375 53.221874Q118.31563 52.440624 118.31563 51.7375Q118.31563 51.003124 117.78438 50.503124Q117.26875 50.003124 116.44063 50.003124Q115.55 50.003124 115.00313 50.534374Q114.47188 51.065624 114.47188 52.01875L113.20625 51.878124Q113.33125 50.471874 114.175 49.7375Q115.03438 48.9875 116.45625 48.9875Q117.90938 48.9875 118.7375 49.784374Q119.58125 50.58125 119.58125 51.76875Q119.58125 52.378124 119.33125 52.95625Q119.09688 53.534374 118.51875 54.175Q117.95625 54.815624 116.62813 55.940624Q115.51875 56.8625 115.20625 57.20625Q114.89375 57.534374 114.69063 57.8625L119.59688 57.8625ZM121.12813 54.1125Q121.12813 52.33125 121.4875 51.253124Q121.8625 50.159374 122.58125 49.58125Q123.3 48.9875 124.39375 48.9875Q125.20625 48.9875 125.81563 49.315624Q126.425 49.64375 126.81563 50.253124Q127.22188 50.8625 127.44063 51.7375Q127.65938 52.6125 127.65938 54.1125Q127.65938 55.878124 127.3 56.95625Q126.94063 58.034374 126.22188 58.628124Q125.50313 59.221874 124.39375 59.221874Q122.95625 59.221874 122.12813 58.175Q121.12813 56.925 121.12813 54.1125ZM122.39375 54.1125Q122.39375 56.58125 122.97188 57.39375Q123.55 58.20625 124.39375 58.20625Q125.25313 58.20625 125.83125 57.39375Q126.40938 56.565624 126.40938 54.1125Q126.40938 51.628124 125.83125 50.815624Q125.25313 50.003124 124.37813 50.003124Q123.53438 50.003124 123.03438 50.721874Q122.39375 51.64375 122.39375 54.1125ZM133.08125 59.05L133.08125 56.64375L128.72188 56.64375L128.72188 55.51875L133.3 49.034374L134.3 49.034374L134.3 55.51875L135.65938 55.51875L135.65938 56.64375L134.3 56.64375L134.3 59.05L133.08125 59.05ZM133.08125 55.51875L133.08125 51.003124L129.94063 55.51875L133.08125 55.51875ZM139.01875 53.6125Q138.25313 53.33125 137.87813 52.815624Q137.51875 52.3 137.51875 51.565624Q137.51875 50.471874 138.3 49.7375Q139.09688 48.9875 140.39375 48.9875Q141.70625 48.9875 142.50313 49.753124Q143.31563 50.51875 143.31563 51.6125Q143.31563 52.3 142.94063 52.815624Q142.58125 53.33125 141.83125 53.6125Q142.75313 53.909374 143.2375 54.58125Q143.72188 55.253124 143.72188 56.190624Q143.72188 57.471874 142.81563 58.346874Q141.90938 59.221874 140.425 59.221874Q138.94063 59.221874 138.01875 58.346874Q137.1125 57.45625 137.1125 56.14375Q137.1125 55.175 137.6125 54.51875Q138.1125 53.846874 139.01875 53.6125ZM138.78438 51.534374Q138.78438 52.2375 139.2375 52.690624Q139.69063 53.14375 140.425 53.14375Q141.14375 53.14375 141.59688 52.70625Q142.05 52.253124 142.05 51.596874Q142.05 50.925 141.58125 50.471874Q141.1125 50.003124 140.40938 50.003124Q139.70625 50.003124 139.2375 50.45625Q138.78438 50.89375 138.78438 51.534374ZM138.37813 56.159374Q138.37813 56.690624 138.62813 57.190624Q138.87813 57.675 139.3625 57.940624Q139.8625 58.20625 140.44063 58.20625Q141.31563 58.20625 141.87813 57.64375Q142.45625 57.08125 142.45625 56.20625Q142.45625 55.315624 141.8625 54.7375Q141.28438 54.14375 140.39375 54.14375Q139.51875 54.14375 138.94063 54.721874Q138.37813 55.3 138.37813 56.159374Z" fill-rule="nonzero"/><path fill="#757575" d="M21.128124 39.55L21.128124 25.2375L27.471874 25.2375Q29.378124 25.2375 30.378124 25.628124Q31.378124 26.003124 31.971874 26.9875Q32.565624 27.95625 32.565624 29.14375Q32.565624 30.659374 31.58125 31.70625Q30.596874 32.753124 28.534374 33.034374Q29.284374 33.39375 29.675 33.753124Q30.503124 34.503124 31.253124 35.659374L33.7375 39.55L31.3625 39.55L29.45625 36.565624Q28.628124 35.284374 28.096874 34.596874Q27.565624 33.909374 27.128124 33.64375Q26.70625 33.3625 26.26875 33.253124Q25.940624 33.190624 25.221874 33.190624L23.01875 33.190624L23.01875 39.55L21.128124 39.55ZM23.01875 31.55L27.096874 31.55Q28.39375 31.55 29.1125 31.284374Q29.846874 31.01875 30.221874 30.425Q30.6125 29.83125 30.6125 29.14375Q30.6125 28.128124 29.878124 27.471874Q29.14375 26.815624 27.55 26.815624L23.01875 26.815624L23.01875 31.55ZM41.659374 39.55L41.659374 38.01875Q40.45625 39.784374 38.378124 39.784374Q37.45625 39.784374 36.659374 39.440624Q35.8625 39.08125 35.471874 38.55Q35.096874 38.01875 34.940624 37.2375Q34.83125 36.721874 34.83125 35.596874L34.83125 29.175L36.58125 29.175L36.58125 34.925Q36.58125 36.3 36.690624 36.784374Q36.8625 37.471874 37.39375 37.878124Q37.940624 38.26875 38.721874 38.26875Q39.51875 38.26875 40.20625 37.8625Q40.909374 37.45625 41.190624 36.76875Q41.4875 36.065624 41.4875 34.7375L41.4875 29.175L43.2375 29.175L43.2375 39.55L41.659374 39.55ZM44.159374 36.45625L45.909374 36.175Q46.05 37.221874 46.721874 37.784374Q47.39375 38.33125 48.596874 38.33125Q49.8 38.33125 50.378124 37.846874Q50.971874 37.346874 50.971874 36.690624Q50.971874 36.096874 50.45625 35.753124Q50.096874 35.51875 48.659374 35.159374Q46.721874 34.659374 45.971874 34.315624Q45.2375 33.95625 44.846874 33.33125Q44.45625 32.690624 44.45625 31.925Q44.45625 31.2375 44.76875 30.64375Q45.096874 30.05 45.64375 29.659374Q46.05 29.3625 46.753124 29.159374Q47.471874 28.940624 48.284374 28.940624Q49.503124 28.940624 50.425 29.3Q51.346874 29.64375 51.784374 30.253124Q52.221874 30.846874 52.39375 31.846874L50.675 32.08125Q50.55 31.284374 49.9875 30.846874Q49.425 30.39375 48.409374 30.39375Q47.190624 30.39375 46.675 30.8Q46.159374 31.190624 46.159374 31.721874Q46.159374 32.065624 46.378124 32.346874Q46.58125 32.628124 47.05 32.815624Q47.315624 32.909374 48.596874 33.253124Q50.471874 33.753124 51.20625 34.08125Q51.940624 34.39375 52.3625 35.003124Q52.784374 35.596874 52.784374 36.503124Q52.784374 37.378124 52.26875 38.159374Q51.753124 38.940624 50.784374 39.3625Q49.815624 39.784374 48.596874 39.784374Q46.58125 39.784374 45.51875 38.940624Q44.45625 38.096874 44.159374 36.45625ZM58.70625 37.971874L58.95625 39.534374Q58.221874 39.690624 57.628124 39.690624Q56.675 39.690624 56.14375 39.39375Q55.628124 39.08125 55.409374 38.596874Q55.190624 38.096874 55.190624 36.51875L55.190624 30.55L53.909374 30.55L53.909374 29.175L55.190624 29.175L55.190624 26.6125L56.940624 25.55L56.940624 29.175L58.70625 29.175L58.70625 30.55L56.940624 30.55L56.940624 36.6125Q56.940624 37.3625 57.034374 37.58125Q57.128124 37.784374 57.33125 37.925Q57.55 38.05 57.940624 38.05Q58.221874 38.05 58.70625 37.971874ZM60.190624 35.253124L60.190624 33.4875L65.58125 33.4875L65.58125 35.253124L60.190624 35.253124ZM78.31563 34.534374L80.20625 35.003124Q79.6125 37.346874 78.06563 38.58125Q76.51875 39.8 74.26875 39.8Q71.95625 39.8 70.50313 38.8625Q69.06563 37.909374 68.3 36.128124Q67.55 34.33125 67.55 32.284374Q67.55 30.05 68.39375 28.39375Q69.25313 26.721874 70.83125 25.8625Q72.40938 24.9875 74.3 24.9875Q76.45625 24.9875 77.90938 26.08125Q79.37813 27.175 79.95625 29.159374L78.09688 29.596874Q77.59688 28.034374 76.64375 27.33125Q75.70625 26.6125 74.26875 26.6125Q72.6125 26.6125 71.50313 27.409374Q70.39375 28.190624 69.94063 29.534374Q69.50313 30.8625 69.50313 32.26875Q69.50313 34.096874 70.03438 35.471874Q70.56563 36.83125 71.69063 37.503124Q72.81563 38.175 74.1125 38.175Q75.70625 38.175 76.81563 37.253124Q77.925 36.33125 78.31563 34.534374ZM91.4875 25.2375L93.37813 25.2375L93.37813 33.503124Q93.37813 35.659374 92.89375 36.940624Q92.40938 38.20625 91.12813 39.003124Q89.8625 39.8 87.78438 39.8Q85.76875 39.8 84.4875 39.1125Q83.22188 38.409374 82.675 37.096874Q82.12813 35.784374 82.12813 33.503124L82.12813 25.2375L84.01875 25.2375L84.01875 33.4875Q84.01875 35.3625 84.3625 36.253124Q84.70625 37.128124 85.55 37.6125Q86.39375 38.08125 87.62813 38.08125Q89.70625 38.08125 90.59688 37.14375Q91.4875 36.190624 91.4875 33.4875L91.4875 25.2375ZM95.09688 39.55L95.09688 25.2375L100.01875 25.2375Q101.69063 25.2375 102.58125 25.440624Q103.8 25.721874 104.675 26.45625Q105.8 27.425 106.3625 28.909374Q106.925 30.39375 106.925 32.315624Q106.925 33.940624 106.55 35.20625Q106.175 36.45625 105.56563 37.284374Q104.97188 38.1125 104.26875 38.596874Q103.56563 39.065624 102.56563 39.315624Q101.56563 39.55 100.25313 39.55L95.09688 39.55ZM96.9875 37.8625L100.05 37.8625Q101.45625 37.8625 102.25313 37.596874Q103.06563 37.33125 103.55 36.846874Q104.22188 36.175 104.59688 35.05Q104.97188 33.909374 104.97188 32.284374Q104.97188 30.034374 104.2375 28.83125Q103.50313 27.628124 102.44063 27.221874Q101.69063 26.925 100.00313 26.925L96.9875 26.925L96.9875 37.8625ZM107.51875 39.55L113.01875 25.2375L115.06563 25.2375L120.925 39.55L118.76875 39.55L117.09688 35.20625L111.1125 35.20625L109.53438 39.55L107.51875 39.55ZM111.65938 33.675L116.50313 33.675L115.01875 29.70625Q114.33125 27.89375 114.00313 26.7375Q113.72188 28.1125 113.22188 29.471874L111.65938 33.675ZM130.75313 39.55L126.8 29.175L128.65938 29.175L130.89375 35.39375Q131.25313 36.39375 131.55 37.471874Q131.78438 36.659374 132.20625 35.503124L134.50313 29.175L136.31563 29.175L132.39375 39.55L130.75313 39.55ZM136.15938 36.45625L137.90938 36.175Q138.05 37.221874 138.72188 37.784374Q139.39375 38.33125 140.59688 38.33125Q141.8 38.33125 142.37813 37.846874Q142.97188 37.346874 142.97188 36.690624Q142.97188 36.096874 142.45625 35.753124Q142.09688 35.51875 140.65938 35.159374Q138.72188 34.659374 137.97188 34.315624Q137.2375 33.95625 136.84688 33.33125Q136.45625 32.690624 136.45625 31.925Q136.45625 31.2375 136.76875 30.64375Q137.09688 30.05 137.64375 29.659374Q138.05 29.3625 138.75313 29.159374Q139.47188 28.940624 140.28438 28.940624Q141.50313 28.940624 142.425 29.3Q143.34688 29.64375 143.78438 30.253124Q144.22188 30.846874 144.39375 31.846874L142.675 32.08125Q142.55 31.284374 141.9875 30.846874Q141.425 30.39375 140.40938 30.39375Q139.19063 30.39375 138.675 30.8Q138.15938 31.190624 138.15938 31.721874Q138.15938 32.065624 138.37813 32.346874Q138.58125 32.628124 139.05 32.815624Q139.31563 32.909374 140.59688 33.253124Q142.47188 33.753124 143.20625 34.08125Q143.94063 34.39375 144.3625 35.003124Q144.78438 35.596874 144.78438 36.503124Q144.78438 37.378124 144.26875 38.159374Q143.75313 38.940624 142.78438 39.3625Q141.81563 39.784374 140.59688 39.784374Q138.58125 39.784374 137.51875 38.940624Q136.45625 38.096874 136.15938 36.45625ZM147.3625 39.55L147.3625 37.55L149.3625 37.55L149.3625 39.55L147.3625 39.55ZM159.08125 39.55L159.08125 25.2375L161.01875 25.2375L168.53438 36.471874L168.53438 25.2375L170.34688 25.2375L170.34688 39.55L168.40938 39.55L160.89375 28.3L160.89375 39.55L159.08125 39.55ZM176.19063 39.55L170.64375 25.2375L172.69063 25.2375L176.40938 35.628124Q176.8625 36.878124 177.15938 37.971874Q177.4875 36.8 177.94063 35.628124L181.8 25.2375L183.7375 25.2375L178.12813 39.55L176.19063 39.55ZM185.40938 39.55L185.40938 25.2375L187.31563 25.2375L187.31563 39.55L185.40938 39.55ZM191.09688 39.55L191.09688 25.2375L196.01875 25.2375Q197.69063 25.2375 198.58125 25.440624Q199.8 25.721874 200.675 26.45625Q201.8 27.425 202.3625 28.909374Q202.925 30.39375 202.925 32.315624Q202.925 33.940624 202.55 35.20625Q202.175 36.45625 201.56563 37.284374Q200.97188 38.1125 200.26875 38.596874Q199.56563 39.065624 198.56563 39.315624Q197.56563 39.55 196.25313 39.55L191.09688 39.55ZM192.9875 37.8625L196.05 37.8625Q197.45625 37.8625 198.25313 37.596874Q199.06563 37.33125 199.55 36.846874Q200.22188 36.175 200.59688 35.05Q200.97188 33.909374 200.97188 32.284374Q200.97188 30.034374 200.2375 28.83125Q199.50313 27.628124 198.44063 27.221874Q197.69063 26.925 196.00313 26.925L192.9875 26.925L192.9875 37.8625ZM205.40938 39.55L205.40938 25.2375L207.31563 25.2375L207.31563 39.55L205.40938 39.55ZM209.51875 39.55L215.01875 25.2375L217.06563 25.2375L222.925 39.55L220.76875 39.55L219.09688 35.20625L213.1125 35.20625L211.53438 39.55L209.51875 39.55ZM213.65938 33.675L218.50313 33.675L217.01875 29.70625Q216.33125 27.89375 216.00313 26.7375Q215.72188 28.1125 215.22188 29.471874L213.65938 33.675ZM236.64375 35.753124L238.3625 35.971874Q238.08125 37.76875 236.90938 38.784374Q235.75313 39.784374 234.05 39.784374Q231.925 39.784374 230.62813 38.39375Q229.33125 37.003124 229.33125 34.409374Q229.33125 32.721874 229.87813 31.471874Q230.44063 30.20625 231.58125 29.58125Q232.72188 28.940624 234.06563 28.940624Q235.75313 28.940624 236.81563 29.8Q237.89375 30.659374 238.20625 32.221874L236.4875 32.4875Q236.25313 31.440624 235.62813 30.925Q235.00313 30.39375 234.12813 30.39375Q232.8 30.39375 231.97188 31.346874Q231.14375 32.3 231.14375 34.346874Q231.14375 36.440624 231.94063 37.39375Q232.7375 38.33125 234.03438 38.33125Q235.06563 38.33125 235.75313 37.70625Q236.45625 37.065624 236.64375 35.753124ZM246.65938 39.55L246.65938 38.01875Q245.45625 39.784374 243.37813 39.784374Q242.45625 39.784374 241.65938 39.440624Q240.8625 39.08125 240.47188 38.55Q240.09688 38.01875 239.94063 37.2375Q239.83125 36.721874 239.83125 35.596874L239.83125 29.175L241.58125 29.175L241.58125 34.925Q241.58125 36.3 241.69063 36.784374Q241.8625 37.471874 242.39375 37.878124Q242.94063 38.26875 243.72188 38.26875Q244.51875 38.26875 245.20625 37.8625Q245.90938 37.45625 246.19063 36.76875Q246.4875 36.065624 246.4875 34.7375L246.4875 29.175L248.2375 29.175L248.2375 39.55L246.65938 39.55ZM250.01875 39.55L250.01875 25.2375L255.39375 25.2375Q257.03436 25.2375 258.01874 25.675Q259.0031 26.096874 259.5656 27.003124Q260.1281 27.909374 260.1281 28.89375Q260.1281 29.815624 259.6281 30.628124Q259.14374 31.440624 258.1281 31.925Q259.425 32.315624 260.1281 33.2375Q260.83124 34.14375 260.83124 35.39375Q260.83124 36.409374 260.39374 37.26875Q259.97186 38.128124 259.34686 38.596874Q258.72186 39.065624 257.78436 39.315624Q256.84686 39.55 255.47188 39.55L250.01875 39.55ZM251.90938 31.253124L255.00313 31.253124Q256.26874 31.253124 256.8156 31.08125Q257.53436 30.8625 257.89374 30.378124Q258.26874 29.878124 258.26874 29.1125Q258.26874 28.409374 257.925 27.8625Q257.58124 27.315624 256.9406 27.128124Q256.3156 26.925 254.76875 26.925L251.90938 26.925L251.90938 31.253124ZM251.90938 37.8625L255.47188 37.8625Q256.39374 37.8625 256.76874 37.784374Q257.425 37.675 257.8625 37.409374Q258.3 37.128124 258.58124 36.6125Q258.8625 36.08125 258.8625 35.39375Q258.8625 34.596874 258.45624 34.003124Q258.05 33.409374 257.3156 33.175Q256.58124 32.940624 255.22188 32.940624L251.90938 32.940624L251.90938 37.8625ZM263.01874 39.55L263.01874 25.2375L264.90936 25.2375L264.90936 37.8625L271.95624 37.8625L271.95624 39.55L263.01874 39.55ZM272.51874 39.55L278.01874 25.2375L280.0656 25.2375L285.925 39.55L283.76874 39.55L282.09686 35.20625L276.1125 35.20625L274.53436 39.55L272.51874 39.55ZM276.65936 33.675L281.5031 33.675L280.01874 29.70625Q279.33124 27.89375 279.0031 26.7375Q278.72186 28.1125 278.22186 29.471874L276.65936 33.675ZM286.45624 34.95625L288.2375 34.8Q288.3625 35.8625 288.8156 36.55Q289.28436 37.2375 290.2531 37.675Q291.2375 38.096874 292.47186 38.096874Q293.55 38.096874 294.3781 37.784374Q295.20624 37.45625 295.6125 36.89375Q296.01874 36.33125 296.01874 35.659374Q296.01874 34.9875 295.6281 34.4875Q295.2375 33.9875 294.34686 33.64375Q293.76874 33.409374 291.78436 32.940624Q289.8156 32.471874 289.03436 32.05Q288.0031 31.51875 287.5031 30.721874Q287.0031 29.925 287.0031 28.940624Q287.0031 27.846874 287.6125 26.909374Q288.22186 25.971874 289.40936 25.4875Q290.59686 24.9875 292.03436 24.9875Q293.6281 24.9875 294.84686 25.503124Q296.0656 26.01875 296.70624 27.01875Q297.3625 28.003124 297.40936 29.26875L295.59686 29.409374Q295.45624 28.05 294.6125 27.3625Q293.76874 26.659374 292.1125 26.659374Q290.39374 26.659374 289.59686 27.3Q288.8156 27.925 288.8156 28.8Q288.8156 29.58125 289.3781 30.08125Q289.925 30.58125 292.2375 31.096874Q294.55 31.6125 295.40936 32.003124Q296.65936 32.58125 297.2531 33.471874Q297.84686 34.346874 297.84686 35.503124Q297.84686 36.64375 297.1906 37.659374Q296.53436 38.675 295.3 39.2375Q294.08124 39.8 292.55 39.8Q290.6125 39.8 289.3 39.2375Q287.9875 38.659374 287.2375 37.51875Q286.4875 36.378124 286.45624 34.95625Z" fill-rule="nonzero"/></svg>