<svg version="1.1" viewBox="0.0 0.0 600.0 371.0" fill="none" stroke="none" stroke-linecap="square" stroke-miterlimit="10" width="600" height="371" xmlns:xlink="http://www.w3.org/1999/xlink" xmlns="http://www.w3.org/2000/svg"><path fill="#ffffff" d="M0 0L600.0 0L600.0 371.0L0 371.0L0 0Z" fill-rule="nonzero"/><path stroke="#333333" stroke-width="1.0" stroke-linecap="butt" d="M53.5 104.5L53.5 300.5" fill-rule="nonzero"/><path stroke="#cccccc" stroke-width="1.0" stroke-linecap="butt" d="M185.5 104.5L185.5 300.5" fill-rule="nonzero"/><path stroke="#cccccc" stroke-width="1.0" stroke-linecap="butt" d="M317.5 104.5L317.5 300.5" fill-rule="nonzero"/><path stroke="#cccccc" stroke-width="1.0" stroke-linecap="butt" d="M449.5 104.5L449.5 300.5" fill-rule="nonzero"/><path stroke="#cccccc" stroke-width="1.0" stroke-linecap="butt" d="M581.5 104.5L581.5 300.5" fill-rule="nonzero"/><clipPath id="id_0"><path d="M53.55 104.78333L581.45 104.78333L581.45 300.45L53.55 300.45L53.55 104.78333Z" clip-rule="nonzero"/></clipPath><path stroke="#000000" stroke-width="2.0" stroke-linecap="butt" stroke-opacity="0.0" clip-path="url(#id_0)" d="M54.0 202.0L54.0 157.0L523.0 157.0C524.10455 157.0 525.0 157.89543 525.0 159.0L525.0 200.0C525.0 201.10457 524.10455 202.0 523.0 202.0Z" fill-rule="nonzero"/><path fill="#4285f4" clip-path="url(#id_0)" d="M54.0 202.0L54.0 157.0L523.0 157.0C524.10455 157.0 525.0 157.89543 525.0 159.0L525.0 200.0C525.0 201.10457 524.10455 202.0 523.0 202.0Z" fill-rule="nonzero"/><path stroke="#000000" stroke-width="2.0" stroke-linecap="butt" stroke-opacity="0.0" clip-path="url(#id_0)" d="M54.0 249.0L54.0 204.0L539.0 204.0C540.10455 204.0 541.0 204.89543 541.0 206.0L541.0 247.0C541.0 248.10457 540.10455 249.0 539.0 249.0Z" fill-rule="nonzero"/><path fill="#ea4335" clip-path="url(#id_0)" d="M54.0 249.0L54.0 204.0L539.0 204.0C540.10455 204.0 541.0 204.89543 541.0 206.0L541.0 247.0C541.0 248.10457 540.10455 249.0 539.0 249.0Z" fill-rule="nonzero"/><path stroke="#4285f4" stroke-width="3.0" stroke-linejoin="round" stroke-linecap="round" d="M498.61447 178.85938Q497.97385 178.59375 497.67697 178.125Q497.39572 177.65625 497.39572 177.09375Q497.39572 176.125 498.0676 175.5Q498.73947 174.875 499.97385 174.875Q501.1926 174.875 501.86447 175.5Q502.55197 176.125 502.55197 177.09375Q502.55197 177.6875 502.23947 178.15625Q501.92697 178.625 501.36447 178.85938Q502.08322 179.15625 502.45822 179.70312Q502.83322 180.25 502.83322 180.96875Q502.83322 182.15625 502.0676 182.90625Q501.3176 183.65625 500.05197 183.65625Q498.8801 183.65625 498.09885 183.03125Q497.17697 182.3125 497.17697 181.04688Q497.17697 180.34375 497.52072 179.76562Q497.86447 179.1875 498.61447 178.85938ZM498.95822 177.20312Q498.95822 177.70312 499.22385 177.98438Q499.5051 178.25 499.97385 178.25Q500.4426 178.25 500.72385 177.96875Q501.0051 177.6875 501.0051 177.20312Q501.0051 176.73438 500.72385 176.46875Q500.4426 176.1875 499.98947 176.1875Q499.52072 176.1875 499.23947 176.46875Q498.95822 176.75 498.95822 177.20312ZM498.80197 180.89062Q498.80197 181.5625 499.14572 181.95312Q499.5051 182.32812 500.02072 182.32812Q500.53635 182.32812 500.86447 181.96875Q501.1926 181.59375 501.1926 180.90625Q501.1926 180.29688 500.84885 179.9375Q500.52072 179.5625 500.0051 179.5625Q499.39572 179.5625 499.09885 179.98438Q498.80197 180.40625 498.80197 180.89062ZM504.23947 181.51562L505.83322 181.34375Q505.89572 181.82812 506.1301 182.0625Q506.3801 182.29688 506.78635 182.29688Q507.30197 182.29688 507.64572 181.82812Q508.0051 181.35938 508.11447 179.875Q507.48947 180.59375 506.55197 180.59375Q505.55197 180.59375 504.80197 179.8125Q504.0676 179.03125 504.0676 177.78125Q504.0676 176.46875 504.84885 175.67188Q505.6301 174.875 506.83322 174.875Q508.1301 174.875 508.97385 175.89062Q509.8176 176.89062 509.8176 179.20312Q509.8176 181.5625 508.9426 182.60938Q508.0676 183.65625 506.66135 183.65625Q505.66135 183.65625 505.03635 183.125Q504.41135 182.57812 504.23947 181.51562ZM507.95822 177.92188Q507.95822 177.125 507.59885 176.6875Q507.23947 176.23438 506.7551 176.23438Q506.30197 176.23438 505.98947 176.59375Q505.6926 176.95312 505.6926 177.78125Q505.6926 178.60938 506.02072 179.0Q506.34885 179.39062 506.83322 179.39062Q507.3176 179.39062 507.6301 179.01562Q507.95822 178.64062 507.95822 177.92188ZM511.52072 181.85938L513.1614 181.85938L513.1614 183.03125Q513.1614 183.75 513.0364 184.15625Q512.9114 184.57812 512.5676 184.90625Q512.2239 185.23438 511.70822 185.42188L511.3801 184.73438Q511.8801 184.57812 512.08325 184.28125Q512.302 184.0 512.3176 183.5L511.52072 183.5L511.52072 181.85938ZM517.427 183.5L517.427 181.76562L513.9114 181.76562L513.9114 180.32812L517.64575 174.875L519.02075 174.875L519.02075 180.32812L520.0989 180.32812L520.0989 181.76562L519.02075 181.76562L519.02075 183.5L517.427 183.5ZM517.427 180.32812L517.427 177.39062L515.45825 180.32812L517.427 180.32812Z" fill-rule="nonzero"/><path fill="#ffffff" d="M498.61447 178.85938Q497.97385 178.59375 497.67697 178.125Q497.39572 177.65625 497.39572 177.09375Q497.39572 176.125 498.0676 175.5Q498.73947 174.875 499.97385 174.875Q501.1926 174.875 501.86447 175.5Q502.55197 176.125 502.55197 177.09375Q502.55197 177.6875 502.23947 178.15625Q501.92697 178.625 501.36447 178.85938Q502.08322 179.15625 502.45822 179.70312Q502.83322 180.25 502.83322 180.96875Q502.83322 182.15625 502.0676 182.90625Q501.3176 183.65625 500.05197 183.65625Q498.8801 183.65625 498.09885 183.03125Q497.17697 182.3125 497.17697 181.04688Q497.17697 180.34375 497.52072 179.76562Q497.86447 179.1875 498.61447 178.85938ZM498.95822 177.20312Q498.95822 177.70312 499.22385 177.98438Q499.5051 178.25 499.97385 178.25Q500.4426 178.25 500.72385 177.96875Q501.0051 177.6875 501.0051 177.20312Q501.0051 176.73438 500.72385 176.46875Q500.4426 176.1875 499.98947 176.1875Q499.52072 176.1875 499.23947 176.46875Q498.95822 176.75 498.95822 177.20312ZM498.80197 180.89062Q498.80197 181.5625 499.14572 181.95312Q499.5051 182.32812 500.02072 182.32812Q500.53635 182.32812 500.86447 181.96875Q501.1926 181.59375 501.1926 180.90625Q501.1926 180.29688 500.84885 179.9375Q500.52072 179.5625 500.0051 179.5625Q499.39572 179.5625 499.09885 179.98438Q498.80197 180.40625 498.80197 180.89062ZM504.23947 181.51562L505.83322 181.34375Q505.89572 181.82812 506.1301 182.0625Q506.3801 182.29688 506.78635 182.29688Q507.30197 182.29688 507.64572 181.82812Q508.0051 181.35938 508.11447 179.875Q507.48947 180.59375 506.55197 180.59375Q505.55197 180.59375 504.80197 179.8125Q504.0676 179.03125 504.0676 177.78125Q504.0676 176.46875 504.84885 175.67188Q505.6301 174.875 506.83322 174.875Q508.1301 174.875 508.97385 175.89062Q509.8176 176.89062 509.8176 179.20312Q509.8176 181.5625 508.9426 182.60938Q508.0676 183.65625 506.66135 183.65625Q505.66135 183.65625 505.03635 183.125Q504.41135 182.57812 504.23947 181.51562ZM507.95822 177.92188Q507.95822 177.125 507.59885 176.6875Q507.23947 176.23438 506.7551 176.23438Q506.30197 176.23438 505.98947 176.59375Q505.6926 176.95312 505.6926 177.78125Q505.6926 178.60938 506.02072 179.0Q506.34885 179.39062 506.83322 179.39062Q507.3176 179.39062 507.6301 179.01562Q507.95822 178.64062 507.95822 177.92188ZM511.52072 181.85938L513.1614 181.85938L513.1614 183.03125Q513.1614 183.75 513.0364 184.15625Q512.9114 184.57812 512.5676 184.90625Q512.2239 185.23438 511.70822 185.42188L511.3801 184.73438Q511.8801 184.57812 512.08325 184.28125Q512.302 184.0 512.3176 183.5L511.52072 183.5L511.52072 181.85938ZM517.427 183.5L517.427 181.76562L513.9114 181.76562L513.9114 180.32812L517.64575 174.875L519.02075 174.875L519.02075 180.32812L520.0989 180.32812L520.0989 181.76562L519.02075 181.76562L519.02075 183.5L517.427 183.5ZM517.427 180.32812L517.427 177.39062L515.45825 180.32812L517.427 180.32812Z" fill-rule="nonzero"/><path stroke="#ea4335" stroke-width="3.0" stroke-linejoin="round" stroke-linecap="round" d="M512.5486 228.51562L514.14233 228.34375Q514.20483 228.82812 514.4392 229.0625Q514.6892 229.29688 515.09546 229.29688Q515.6111 229.29688 515.95483 228.82812Q516.3142 228.35938 516.4236 226.875Q515.7986 227.59375 514.8611 227.59375Q513.8611 227.59375 513.1111 226.8125Q512.3767 226.03125 512.3767 224.78125Q512.3767 223.46875 513.15796 222.67188Q513.9392 221.875 515.14233 221.875Q516.4392 221.875 517.28296 222.89062Q518.1267 223.89062 518.1267 226.20312Q518.1267 228.5625 517.2517 229.60938Q516.3767 230.65625 514.97046 230.65625Q513.97046 230.65625 513.34546 230.125Q512.72046 229.57812 512.5486 228.51562ZM516.26733 224.92188Q516.26733 224.125 515.90796 223.6875Q515.5486 223.23438 515.0642 223.23438Q514.6111 223.23438 514.2986 223.59375Q514.0017 223.95312 514.0017 224.78125Q514.0017 225.60938 514.32983 226.0Q514.65796 226.39062 515.14233 226.39062Q515.6267 226.39062 515.9392 226.01562Q516.26733 225.64062 516.26733 224.92188ZM525.07983 228.96875L525.07983 230.5L519.2986 230.5Q519.39233 229.625 519.8611 228.85938Q520.32983 228.07812 521.72046 226.79688Q522.82983 225.76562 523.07983 225.39062Q523.4236 224.875 523.4236 224.375Q523.4236 223.82812 523.1267 223.53125Q522.82983 223.23438 522.3142 223.23438Q521.7986 223.23438 521.4861 223.54688Q521.1892 223.85938 521.14233 224.57812L519.5017 224.42188Q519.64233 223.0625 520.40796 222.46875Q521.1892 221.875 522.34546 221.875Q523.6267 221.875 524.34546 222.5625Q525.07983 223.25 525.07983 224.26562Q525.07983 224.84375 524.8611 225.375Q524.65796 225.89062 524.20483 226.46875Q523.90796 226.84375 523.1267 227.5625Q522.34546 228.28125 522.14233 228.51562Q521.9392 228.75 521.7986 228.96875L525.07983 228.96875ZM526.82983 228.85938L528.47046 228.85938L528.47046 230.03125Q528.47046 230.75 528.34546 231.15625Q528.22046 231.57812 527.8767 231.90625Q527.53296 232.23438 527.01733 232.42188L526.6892 231.73438Q527.1892 231.57812 527.39233 231.28125Q527.6111 231.0 527.6267 230.5L526.82983 230.5L526.82983 228.85938ZM529.45483 228.21875L531.0486 228.03125Q531.1267 228.64062 531.45483 228.96875Q531.7986 229.28125 532.26733 229.28125Q532.78296 229.28125 533.1267 228.89062Q533.47046 228.5 533.47046 227.84375Q533.47046 227.23438 533.1267 226.875Q532.7986 226.5 532.32983 226.5Q532.0017 226.5 531.5642 226.625L531.7517 225.28125Q532.4236 225.29688 532.76733 225.0Q533.1267 224.6875 533.1267 224.17188Q533.1267 223.75 532.8611 223.5Q532.6111 223.23438 532.1736 223.23438Q531.7517 223.23438 531.45483 223.53125Q531.15796 223.8125 531.09546 224.375L529.57983 224.125Q529.7361 223.34375 530.0486 222.875Q530.3767 222.40625 530.9392 222.14062Q531.51733 221.875 532.22046 221.875Q533.4392 221.875 534.1736 222.64062Q534.76733 223.28125 534.76733 224.07812Q534.76733 225.20312 533.53296 225.875Q534.28296 226.04688 534.72046 226.59375Q535.15796 227.14062 535.15796 227.92188Q535.15796 229.04688 534.32983 229.84375Q533.5017 230.64062 532.28296 230.64062Q531.1111 230.64062 530.34546 229.96875Q529.57983 229.29688 529.45483 228.21875Z" fill-rule="nonzero"/><path fill="#ffffff" d="M512.5486 228.51562L514.14233 228.34375Q514.20483 228.82812 514.4392 229.0625Q514.6892 229.29688 515.09546 229.29688Q515.6111 229.29688 515.95483 228.82812Q516.3142 228.35938 516.4236 226.875Q515.7986 227.59375 514.8611 227.59375Q513.8611 227.59375 513.1111 226.8125Q512.3767 226.03125 512.3767 224.78125Q512.3767 223.46875 513.15796 222.67188Q513.9392 221.875 515.14233 221.875Q516.4392 221.875 517.28296 222.89062Q518.1267 223.89062 518.1267 226.20312Q518.1267 228.5625 517.2517 229.60938Q516.3767 230.65625 514.97046 230.65625Q513.97046 230.65625 513.34546 230.125Q512.72046 229.57812 512.5486 228.51562ZM516.26733 224.92188Q516.26733 224.125 515.90796 223.6875Q515.5486 223.23438 515.0642 223.23438Q514.6111 223.23438 514.2986 223.59375Q514.0017 223.95312 514.0017 224.78125Q514.0017 225.60938 514.32983 226.0Q514.65796 226.39062 515.14233 226.39062Q515.6267 226.39062 515.9392 226.01562Q516.26733 225.64062 516.26733 224.92188ZM525.07983 228.96875L525.07983 230.5L519.2986 230.5Q519.39233 229.625 519.8611 228.85938Q520.32983 228.07812 521.72046 226.79688Q522.82983 225.76562 523.07983 225.39062Q523.4236 224.875 523.4236 224.375Q523.4236 223.82812 523.1267 223.53125Q522.82983 223.23438 522.3142 223.23438Q521.7986 223.23438 521.4861 223.54688Q521.1892 223.85938 521.14233 224.57812L519.5017 224.42188Q519.64233 223.0625 520.40796 222.46875Q521.1892 221.875 522.34546 221.875Q523.6267 221.875 524.34546 222.5625Q525.07983 223.25 525.07983 224.26562Q525.07983 224.84375 524.8611 225.375Q524.65796 225.89062 524.20483 226.46875Q523.90796 226.84375 523.1267 227.5625Q522.34546 228.28125 522.14233 228.51562Q521.9392 228.75 521.7986 228.96875L525.07983 228.96875ZM526.82983 228.85938L528.47046 228.85938L528.47046 230.03125Q528.47046 230.75 528.34546 231.15625Q528.22046 231.57812 527.8767 231.90625Q527.53296 232.23438 527.01733 232.42188L526.6892 231.73438Q527.1892 231.57812 527.39233 231.28125Q527.6111 231.0 527.6267 230.5L526.82983 230.5L526.82983 228.85938ZM529.45483 228.21875L531.0486 228.03125Q531.1267 228.64062 531.45483 228.96875Q531.7986 229.28125 532.26733 229.28125Q532.78296 229.28125 533.1267 228.89062Q533.47046 228.5 533.47046 227.84375Q533.47046 227.23438 533.1267 226.875Q532.7986 226.5 532.32983 226.5Q532.0017 226.5 531.5642 226.625L531.7517 225.28125Q532.4236 225.29688 532.76733 225.0Q533.1267 224.6875 533.1267 224.17188Q533.1267 223.75 532.8611 223.5Q532.6111 223.23438 532.1736 223.23438Q531.7517 223.23438 531.45483 223.53125Q531.15796 223.8125 531.09546 224.375L529.57983 224.125Q529.7361 223.34375 530.0486 222.875Q530.3767 222.40625 530.9392 222.14062Q531.51733 221.875 532.22046 221.875Q533.4392 221.875 534.1736 222.64062Q534.76733 223.28125 534.76733 224.07812Q534.76733 225.20312 533.53296 225.875Q534.28296 226.04688 534.72046 226.59375Q535.15796 227.14062 535.15796 227.92188Q535.15796 229.04688 534.32983 229.84375Q533.5017 230.64062 532.28296 230.64062Q531.1111 230.64062 530.34546 229.96875Q529.57983 229.29688 529.45483 228.21875Z" fill-rule="nonzero"/><path fill="#000000" d="M297.45312 346.075L297.45312 345.075L301.07812 345.0594L301.07812 348.2469Q300.25 348.91876 299.35938 349.2625Q298.46875 349.59064 297.53125 349.59064Q296.26562 349.59064 295.21875 349.0594Q294.1875 348.5125 293.65625 347.4969Q293.14062 346.46564 293.14062 345.2Q293.14062 343.9344 293.65625 342.85626Q294.1875 341.7625 295.17188 341.2469Q296.15625 340.71564 297.4375 340.71564Q298.375 340.71564 299.125 341.0125Q299.875 341.3094 300.29688 341.85626Q300.73438 342.3875 300.95312 343.2625L299.9375 343.54376Q299.73438 342.8875 299.4375 342.5125Q299.15625 342.1375 298.625 341.91876Q298.09375 341.6844 297.45312 341.6844Q296.67188 341.6844 296.09375 341.91876Q295.53125 342.15314 295.17188 342.54376Q294.82812 342.9344 294.64062 343.40314Q294.3125 344.2 294.3125 345.1219Q294.3125 346.27814 294.70312 347.0594Q295.10938 347.825 295.85938 348.2Q296.60938 348.575 297.46875 348.575Q298.20312 348.575 298.90625 348.29376Q299.60938 347.9969 299.96875 347.6844L299.96875 346.075L297.45312 346.075ZM302.48438 349.45L302.48438 340.85626L308.28125 340.85626L308.28125 341.8719L303.625 341.8719L303.625 344.52814L307.65625 344.52814L307.65625 345.54376L303.625 345.54376L303.625 349.45L302.48438 349.45ZM309.375 349.45L309.375 340.85626L310.51562 340.85626L310.51562 348.4344L314.75 348.4344L314.75 349.45L309.375 349.45ZM316.07812 345.2625Q316.07812 343.1219 317.21875 341.91876Q318.375 340.7 320.1875 340.7Q321.39062 340.7 322.34375 341.27814Q323.29688 341.84064 323.79688 342.85626Q324.29688 343.8719 324.29688 345.16876Q324.29688 346.46564 323.76562 347.4969Q323.23438 348.52814 322.26562 349.0594Q321.3125 349.59064 320.1875 349.59064Q318.96875 349.59064 318.01562 349.0125Q317.0625 348.41876 316.5625 347.41876Q316.07812 346.40314 316.07812 345.2625ZM317.25 345.27814Q317.25 346.84064 318.07812 347.73126Q318.92188 348.6219 320.1875 348.6219Q321.46875 348.6219 322.29688 347.73126Q323.125 346.825 323.125 345.15314Q323.125 344.10626 322.76562 343.325Q322.42188 342.54376 321.73438 342.1219Q321.04688 341.6844 320.20312 341.6844Q319.0 341.6844 318.125 342.5125Q317.25 343.34064 317.25 345.27814ZM325.42188 349.45L325.42188 340.85626L328.67188 340.85626Q329.51562 340.85626 329.96875 340.9344Q330.60938 341.04376 331.03125 341.34064Q331.46875 341.6375 331.71875 342.16876Q331.98438 342.7 331.98438 343.34064Q331.98438 344.4344 331.28125 345.2Q330.59375 345.95 328.76562 345.95L326.5625 345.95L326.5625 349.45L325.42188 349.45ZM326.5625 344.95L328.78125 344.95Q329.89062 344.95 330.34375 344.54376Q330.8125 344.1219 330.8125 343.3719Q330.8125 342.84064 330.53125 342.46564Q330.26562 342.075 329.82812 341.95Q329.53125 341.8719 328.76562 341.8719L326.5625 341.8719L326.5625 344.95ZM332.5 349.59064L334.98438 340.71564L335.82812 340.71564L333.34375 349.59064L332.5 349.59064ZM335.875 347.59064L336.90625 347.4344Q337.0 348.0594 337.39062 348.3875Q337.79688 348.71564 338.53125 348.71564Q339.25 348.71564 339.59375 348.4344Q339.95312 348.1375 339.95312 347.73126Q339.95312 347.3719 339.64062 347.16876Q339.42188 347.02814 338.5625 346.8094Q337.40625 346.5125 336.95312 346.3094Q336.51562 346.09064 336.28125 345.71564Q336.04688 345.34064 336.04688 344.8719Q336.04688 344.46564 336.23438 344.10626Q336.42188 343.7469 336.75 343.5125Q337.0 343.34064 337.42188 343.21564Q337.84375 343.09064 338.34375 343.09064Q339.0625 343.09064 339.60938 343.3094Q340.17188 343.5125 340.4375 343.8719Q340.70312 344.23126 340.79688 344.825L339.76562 344.96564Q339.70312 344.4969 339.35938 344.23126Q339.03125 343.95 338.40625 343.95Q337.6875 343.95 337.375 344.2Q337.0625 344.4344 337.0625 344.7625Q337.0625 344.96564 337.1875 345.1219Q337.32812 345.29376 337.59375 345.40314Q337.75 345.46564 338.53125 345.66876Q339.65625 345.98126 340.09375 346.16876Q340.53125 346.35626 340.78125 346.71564Q341.03125 347.075 341.03125 347.6219Q341.03125 348.15314 340.71875 348.6219Q340.42188 349.075 339.84375 349.34064Q339.26562 349.59064 338.53125 349.59064Q337.3125 349.59064 336.67188 349.09064Q336.04688 348.575 335.875 347.59064Z" fill-rule="nonzero"/><path fill="#000000" d="M19.534374 206.61667L19.534374 198.02292L25.33125 198.02292L25.33125 199.03854L20.675 199.03854L20.675 201.6948L24.70625 201.6948L24.70625 202.71042L20.675 202.71042L20.675 206.61667L19.534374 206.61667ZM26.471874 206.61667L26.471874 198.02292L29.721874 198.02292Q30.565624 198.02292 31.01875 198.10104Q31.659374 198.21042 32.08125 198.5073Q32.51875 198.80417 32.76875 199.33542Q33.034374 199.86667 33.034374 200.5073Q33.034374 201.60104 32.33125 202.36667Q31.64375 203.11667 29.815624 203.11667L27.6125 203.11667L27.6125 206.61667L26.471874 206.61667ZM27.6125 202.11667L29.83125 202.11667Q30.940624 202.11667 31.39375 201.71042Q31.8625 201.28854 31.8625 200.53854Q31.8625 200.0073 31.58125 199.6323Q31.315624 199.24167 30.878124 199.11667Q30.58125 199.03854 29.815624 199.03854L27.6125 199.03854L27.6125 202.11667ZM39.51875 200.1323L38.471874 200.21042Q38.33125 199.58542 38.08125 199.30417Q37.64375 198.85104 37.01875 198.85104Q36.51875 198.85104 36.128124 199.1323Q35.64375 199.5073 35.346874 200.21042Q35.065624 200.89792 35.05 202.17917Q35.425 201.60104 35.971874 201.3198Q36.534374 201.03854 37.14375 201.03854Q38.190624 201.03854 38.925 201.8198Q39.675 202.60104 39.675 203.8198Q39.675 204.6323 39.315624 205.33542Q38.971874 206.02292 38.3625 206.39792Q37.753124 206.7573 36.9875 206.7573Q35.659374 206.7573 34.83125 205.78854Q34.003124 204.8198 34.003124 202.60104Q34.003124 200.10104 34.925 198.97604Q35.721874 197.99167 37.08125 197.99167Q38.096874 197.99167 38.7375 198.5698Q39.39375 199.1323 39.51875 200.1323ZM35.221874 203.83542Q35.221874 204.3823 35.440624 204.8823Q35.675 205.36667 36.08125 205.6323Q36.503124 205.89792 36.971874 205.89792Q37.628124 205.89792 38.1125 205.36667Q38.596874 204.8198 38.596874 203.89792Q38.596874 203.0073 38.1125 202.49167Q37.64375 201.97604 36.925 201.97604Q36.20625 201.97604 35.70625 202.49167Q35.221874 203.0073 35.221874 203.83542ZM44.425 206.61667L44.425 204.55417L40.70625 204.55417L40.70625 203.58542L44.628124 198.02292L45.4875 198.02292L45.4875 203.58542L46.64375 203.58542L46.64375 204.55417L45.4875 204.55417L45.4875 206.61667L44.425 206.61667ZM44.425 203.58542L44.425 199.72604L41.7375 203.58542L44.425 203.58542Z" fill-rule="nonzero"/><path fill="#000000" d="M50.55 313.21564Q50.55 311.6844 50.8625 310.7625Q51.175 309.825 51.784374 309.325Q52.409374 308.825 53.346874 308.825Q54.034374 308.825 54.55 309.10626Q55.08125 309.3875 55.425 309.91876Q55.76875 310.4344 55.95625 311.1844Q56.14375 311.9344 56.14375 313.21564Q56.14375 314.73126 55.83125 315.65314Q55.534374 316.575 54.909374 317.09064Q54.3 317.59064 53.346874 317.59064Q52.1125 317.59064 51.39375 316.7Q50.55 315.6375 50.55 313.21564ZM51.628124 313.21564Q51.628124 315.325 52.128124 316.02814Q52.628124 316.73126 53.346874 316.73126Q54.08125 316.73126 54.565624 316.02814Q55.065624 315.325 55.065624 313.21564Q55.065624 311.09064 54.565624 310.40314Q54.08125 309.7 53.33125 309.7Q52.6125 309.7 52.175 310.3094Q51.628124 311.09064 51.628124 313.21564Z" fill-rule="nonzero"/><path fill="#000000" d="M184.57187 316.4344L184.57187 317.45L178.88437 317.45Q178.88437 317.075 179.00937 316.71564Q179.22812 316.1375 179.69687 315.575Q180.18124 315.0125 181.0875 314.27814Q182.49374 313.1219 182.97812 312.45Q183.47812 311.77814 183.47812 311.1844Q183.47812 310.5594 183.025 310.1375Q182.57187 309.7 181.85312 309.7Q181.0875 309.7 180.63437 310.15314Q180.18124 310.60626 180.16562 311.41876L179.0875 311.3094Q179.19687 310.09064 179.91562 309.46564Q180.65 308.825 181.88437 308.825Q183.11874 308.825 183.8375 309.5125Q184.55624 310.2 184.55624 311.21564Q184.55624 311.73126 184.3375 312.23126Q184.13437 312.71564 183.63437 313.27814Q183.15 313.825 182.025 314.77814Q181.07187 315.575 180.79062 315.8719Q180.525 316.15314 180.35312 316.4344L184.57187 316.4344ZM186.025 315.2L187.13437 315.10626Q187.25937 315.91876 187.69687 316.325Q188.15 316.73126 188.79062 316.73126Q189.54062 316.73126 190.07187 316.15314Q190.60312 315.575 190.60312 314.6375Q190.60312 313.73126 190.0875 313.21564Q189.5875 312.6844 188.75937 312.6844Q188.25937 312.6844 187.8375 312.91876Q187.43124 313.15314 187.19687 313.5125L186.2125 313.3875L187.04062 308.98126L191.32187 308.98126L191.32187 309.98126L187.88437 309.98126L187.43124 312.29376Q188.19687 311.7469 189.04062 311.7469Q190.16562 311.7469 190.93124 312.52814Q191.7125 313.3094 191.7125 314.54376Q191.7125 315.7 191.04062 316.5594Q190.2125 317.59064 188.79062 317.59064Q187.61874 317.59064 186.86874 316.9344Q186.13437 316.27814 186.025 315.2Z" fill-rule="nonzero"/><path fill="#000000" d="M311.0 315.2L312.10938 315.10626Q312.23438 315.91876 312.67188 316.325Q313.125 316.73126 313.76562 316.73126Q314.51562 316.73126 315.04688 316.15314Q315.57812 315.575 315.57812 314.6375Q315.57812 313.73126 315.0625 313.21564Q314.5625 312.6844 313.73438 312.6844Q313.23438 312.6844 312.8125 312.91876Q312.40625 313.15314 312.17188 313.5125L311.1875 313.3875L312.01562 308.98126L316.29688 308.98126L316.29688 309.98126L312.85938 309.98126L312.40625 312.29376Q313.17188 311.7469 314.01562 311.7469Q315.14062 311.7469 315.90625 312.52814Q316.6875 313.3094 316.6875 314.54376Q316.6875 315.7 316.01562 316.5594Q315.1875 317.59064 313.76562 317.59064Q312.59375 317.59064 311.84375 316.9344Q311.10938 316.27814 311.0 315.2ZM318.0 313.21564Q318.0 311.6844 318.3125 310.7625Q318.625 309.825 319.23438 309.325Q319.85938 308.825 320.79688 308.825Q321.48438 308.825 322.0 309.10626Q322.53125 309.3875 322.875 309.91876Q323.21875 310.4344 323.40625 311.1844Q323.59375 311.9344 323.59375 313.21564Q323.59375 314.73126 323.28125 315.65314Q322.98438 316.575 322.35938 317.09064Q321.75 317.59064 320.79688 317.59064Q319.5625 317.59064 318.84375 316.7Q318.0 315.6375 318.0 313.21564ZM319.07812 313.21564Q319.07812 315.325 319.57812 316.02814Q320.07812 316.73126 320.79688 316.73126Q321.53125 316.73126 322.01562 316.02814Q322.51562 315.325 322.51562 313.21564Q322.51562 311.09064 322.01562 310.40314Q321.53125 309.7 320.78125 309.7Q320.0625 309.7 319.625 310.3094Q319.07812 311.09064 319.07812 313.21564Z" fill-rule="nonzero"/><path fill="#000000" d="M443.0375 309.98126L443.0375 308.96564L448.6 308.96564L448.6 309.79376Q447.7875 310.66876 446.975 312.1219Q446.17813 313.5594 445.74063 315.09064Q445.4125 316.16876 445.33438 317.45L444.24063 317.45Q444.25626 316.4344 444.63126 314.9969Q445.02188 313.5594 445.725 312.23126Q446.44376 310.90314 447.25626 309.98126L443.0375 309.98126ZM449.975 315.2L451.08438 315.10626Q451.20938 315.91876 451.64688 316.325Q452.1 316.73126 452.74063 316.73126Q453.49063 316.73126 454.02188 316.15314Q454.55313 315.575 454.55313 314.6375Q454.55313 313.73126 454.0375 313.21564Q453.5375 312.6844 452.70938 312.6844Q452.20938 312.6844 451.7875 312.91876Q451.38126 313.15314 451.14688 313.5125L450.1625 313.3875L450.99063 308.98126L455.27188 308.98126L455.27188 309.98126L451.83438 309.98126L451.38126 312.29376Q452.14688 311.7469 452.99063 311.7469Q454.11563 311.7469 454.88126 312.52814Q455.6625 313.3094 455.6625 314.54376Q455.6625 315.7 454.99063 316.5594Q454.1625 317.59064 452.74063 317.59064Q451.56876 317.59064 450.81876 316.9344Q450.08438 316.27814 449.975 315.2Z" fill-rule="nonzero"/><path fill="#000000" d="M575.41876 317.45L574.3719 317.45L574.3719 310.73126Q573.98126 311.09064 573.35626 311.46564Q572.7469 311.825 572.2625 311.9969L572.2625 310.98126Q573.1375 310.5594 573.79376 309.98126Q574.46564 309.3875 574.7469 308.825L575.41876 308.825L575.41876 317.45ZM578.45 313.21564Q578.45 311.6844 578.7625 310.7625Q579.075 309.825 579.6844 309.325Q580.3094 308.825 581.2469 308.825Q581.9344 308.825 582.45 309.10626Q582.98126 309.3875 583.325 309.91876Q583.66876 310.4344 583.85626 311.1844Q584.04376 311.9344 584.04376 313.21564Q584.04376 314.73126 583.73126 315.65314Q583.4344 316.575 582.8094 317.09064Q582.2 317.59064 581.2469 317.59064Q580.0125 317.59064 579.29376 316.7Q578.45 315.6375 578.45 313.21564ZM579.52814 313.21564Q579.52814 315.325 580.02814 316.02814Q580.52814 316.73126 581.2469 316.73126Q581.98126 316.73126 582.46564 316.02814Q582.96564 315.325 582.96564 313.21564Q582.96564 311.09064 582.46564 310.40314Q581.98126 309.7 581.23126 309.7Q580.5125 309.7 580.075 310.3094Q579.52814 311.09064 579.52814 313.21564ZM585.45 313.21564Q585.45 311.6844 585.7625 310.7625Q586.075 309.825 586.6844 309.325Q587.3094 308.825 588.2469 308.825Q588.9344 308.825 589.45 309.10626Q589.98126 309.3875 590.325 309.91876Q590.66876 310.4344 590.85626 311.1844Q591.04376 311.9344 591.04376 313.21564Q591.04376 314.73126 590.73126 315.65314Q590.4344 316.575 589.8094 317.09064Q589.2 317.59064 588.2469 317.59064Q587.0125 317.59064 586.29376 316.7Q585.45 315.6375 585.45 313.21564ZM586.52814 313.21564Q586.52814 315.325 587.02814 316.02814Q587.52814 316.73126 588.2469 316.73126Q588.98126 316.73126 589.46564 316.02814Q589.96564 315.325 589.96564 313.21564Q589.96564 311.09064 589.46564 310.40314Q588.98126 309.7 588.23126 309.7Q587.5125 309.7 587.075 310.3094Q586.52814 311.09064 586.52814 313.21564Z" fill-rule="nonzero"/><path fill="#4285f4" d="M198.0 80.416664C198.0 79.86438 198.44771 79.416664 199.0 79.416664L209.0 79.416664C209.55229 79.416664 210.0 79.86438 210.0 80.416664L210.0 90.416664C210.0 90.96895 209.55229 91.416664 209.0 91.416664L199.0 91.416664C198.44771 91.416664 198.0 90.96895 198.0 90.416664Z" fill-rule="nonzero"/><path fill="#1a1a1a" d="M218.9375 89.416664L218.9375 80.822914L222.75 80.822914Q223.90625 80.822914 224.5 81.05729Q225.09375 81.291664 225.45312 81.885414Q225.8125 82.46354 225.8125 83.166664Q225.8125 84.08854 225.21875 84.71354Q224.625 85.33854 223.39062 85.510414Q223.84375 85.729164 224.07812 85.93229Q224.57812 86.385414 225.01562 87.072914L226.51562 89.416664L225.07812 89.416664L223.95312 87.635414Q223.45312 86.854164 223.125 86.447914Q222.8125 86.041664 222.54688 85.885414Q222.29688 85.71354 222.03125 85.635414Q221.84375 85.604164 221.40625 85.604164L220.07812 85.604164L220.07812 89.416664L218.9375 89.416664ZM220.07812 84.61979L222.53125 84.61979Q223.29688 84.61979 223.73438 84.46354Q224.1875 84.291664 224.40625 83.947914Q224.64062 83.58854 224.64062 83.166664Q224.64062 82.55729 224.1875 82.166664Q223.75 81.77604 222.79688 81.77604L220.07812 81.77604L220.07812 84.61979ZM231.875 89.416664L231.875 88.49479Q231.14062 89.55729 229.89062 89.55729Q229.34375 89.55729 228.85938 89.354164Q228.39062 89.135414 228.15625 88.822914Q227.92188 88.49479 227.82812 88.02604Q227.76562 87.729164 227.76562 87.041664L227.76562 83.197914L228.82812 83.197914L228.82812 86.65104Q228.82812 87.46354 228.89062 87.760414Q228.98438 88.166664 229.29688 88.416664Q229.625 88.65104 230.10938 88.65104Q230.57812 88.65104 230.98438 88.416664Q231.40625 88.166664 231.57812 87.74479Q231.76562 87.322914 231.76562 86.52604L231.76562 83.197914L232.8125 83.197914L232.8125 89.416664L231.875 89.416664ZM234.375 87.55729L235.40625 87.40104Q235.5 88.02604 235.89062 88.354164Q236.29688 88.68229 237.03125 88.68229Q237.75 88.68229 238.09375 88.40104Q238.45312 88.104164 238.45312 87.697914Q238.45312 87.33854 238.14062 87.135414Q237.92188 86.99479 237.0625 86.77604Q235.90625 86.479164 235.45312 86.27604Q235.01562 86.05729 234.78125 85.68229Q234.54688 85.30729 234.54688 84.83854Q234.54688 84.43229 234.73438 84.072914Q234.92188 83.71354 235.25 83.479164Q235.5 83.30729 235.92188 83.18229Q236.34375 83.05729 236.84375 83.05729Q237.5625 83.05729 238.10938 83.27604Q238.67188 83.479164 238.9375 83.83854Q239.20312 84.197914 239.29688 84.791664L238.26562 84.93229Q238.20312 84.46354 237.85938 84.197914Q237.53125 83.916664 236.90625 83.916664Q236.1875 83.916664 235.875 84.166664Q235.5625 84.40104 235.5625 84.729164Q235.5625 84.93229 235.6875 85.08854Q235.82812 85.260414 236.09375 85.36979Q236.25 85.43229 237.03125 85.635414Q238.15625 85.947914 238.59375 86.135414Q239.03125 86.322914 239.28125 86.68229Q239.53125 87.041664 239.53125 87.58854Q239.53125 88.11979 239.21875 88.58854Q238.92188 89.041664 238.34375 89.30729Q237.76562 89.55729 237.03125 89.55729Q235.8125 89.55729 235.17188 89.05729Q234.54688 88.541664 234.375 87.55729ZM244.09375 88.479164L244.25 89.40104Q243.79688 89.49479 243.45312 89.49479Q242.875 89.49479 242.5625 89.322914Q242.25 89.135414 242.10938 88.83854Q241.98438 88.541664 241.98438 87.58854L241.98438 84.010414L241.21875 84.010414L241.21875 83.197914L241.98438 83.197914L241.98438 81.65104L243.03125 81.02604L243.03125 83.197914L244.09375 83.197914L244.09375 84.010414L243.03125 84.010414L243.03125 87.65104Q243.03125 88.104164 243.07812 88.229164Q243.14062 88.354164 243.26562 88.43229Q243.39062 88.510414 243.625 88.510414Q243.8125 88.510414 244.09375 88.479164ZM244.375 86.83854L244.375 85.77604L247.625 85.77604L247.625 86.83854L244.375 86.83854ZM255.0625 86.40104L256.1875 86.697914Q255.82812 88.08854 254.90625 88.822914Q253.98438 89.55729 252.64062 89.55729Q251.25 89.55729 250.375 88.99479Q249.5 88.43229 249.04688 87.36979Q248.59375 86.291664 248.59375 85.05729Q248.59375 83.71354 249.10938 82.71354Q249.625 81.71354 250.5625 81.197914Q251.51562 80.68229 252.65625 80.68229Q253.9375 80.68229 254.8125 81.33854Q255.70312 81.99479 256.04688 83.18229L254.92188 83.447914Q254.625 82.510414 254.04688 82.08854Q253.48438 81.65104 252.625 81.65104Q251.64062 81.65104 250.96875 82.135414Q250.3125 82.604164 250.03125 83.40104Q249.76562 84.197914 249.76562 85.05729Q249.76562 86.15104 250.07812 86.96354Q250.40625 87.77604 251.07812 88.18229Q251.75 88.58854 252.54688 88.58854Q253.5 88.58854 254.15625 88.041664Q254.82812 87.49479 255.0625 86.40104ZM263.5625 80.822914L264.70312 80.822914L264.70312 85.791664Q264.70312 87.08854 264.40625 87.854164Q264.10938 88.604164 263.34375 89.08854Q262.57812 89.55729 261.34375 89.55729Q260.14062 89.55729 259.35938 89.15104Q258.59375 88.729164 258.26562 87.947914Q257.9375 87.15104 257.9375 85.791664L257.9375 80.822914L259.07812 80.822914L259.07812 85.77604Q259.07812 86.90104 259.28125 87.43229Q259.5 87.96354 260.0 88.260414Q260.51562 88.541664 261.25 88.541664Q262.5 88.541664 263.03125 87.979164Q263.5625 87.40104 263.5625 85.77604L263.5625 80.822914ZM266.92188 89.416664L266.92188 80.822914L269.89062 80.822914Q270.89062 80.822914 271.42188 80.947914Q272.15625 81.11979 272.67188 81.55729Q273.35938 82.135414 273.6875 83.041664Q274.03125 83.93229 274.03125 85.072914Q274.03125 86.05729 273.79688 86.80729Q273.57812 87.55729 273.21875 88.05729Q272.85938 88.55729 272.42188 88.83854Q272.0 89.11979 271.40625 89.27604Q270.8125 89.416664 270.03125 89.416664L266.92188 89.416664ZM268.0625 88.40104L269.89062 88.40104Q270.75 88.40104 271.23438 88.24479Q271.71875 88.08854 272.0 87.791664Q272.40625 87.40104 272.625 86.71354Q272.85938 86.02604 272.85938 85.05729Q272.85938 83.71354 272.40625 82.99479Q271.96875 82.260414 271.34375 82.010414Q270.875 81.83854 269.875 81.83854L268.0625 81.83854L268.0625 88.40104ZM274.98438 89.416664L278.28125 80.822914L279.5 80.822914L283.01562 89.416664L281.73438 89.416664L280.71875 86.80729L277.14062 86.80729L276.1875 89.416664L274.98438 89.416664ZM277.46875 85.885414L280.375 85.885414L279.48438 83.510414Q279.0625 82.43229 278.875 81.729164Q278.70312 82.55729 278.40625 83.36979L277.46875 85.885414Z" fill-rule="nonzero"/><path fill="#ea4335" d="M298.0 80.416664C298.0 79.86438 298.44772 79.416664 299.0 79.416664L309.0 79.416664C309.55228 79.416664 310.0 79.86438 310.0 80.416664L310.0 90.416664C310.0 90.96895 309.55228 91.416664 309.0 91.416664L299.0 91.416664C298.44772 91.416664 298.0 90.96895 298.0 90.416664Z" fill-rule="nonzero"/><path fill="#1a1a1a" d="M318.92188 89.416664L318.92188 80.822914L320.07812 80.822914L324.59375 87.572914L324.59375 80.822914L325.6875 80.822914L325.6875 89.416664L324.51562 89.416664L320.0 82.666664L320.0 89.416664L318.92188 89.416664ZM330.375 89.416664L327.04688 80.822914L328.28125 80.822914L330.51562 87.072914Q330.78125 87.822914 330.96875 88.479164Q331.17188 87.77604 331.4375 87.072914L333.75 80.822914L334.90625 80.822914L331.54688 89.416664L330.375 89.416664ZM335.125 89.416664L335.125 80.822914L336.25 80.822914L336.25 89.416664L335.125 89.416664ZM337.92188 89.416664L337.92188 80.822914L340.89062 80.822914Q341.89062 80.822914 342.42188 80.947914Q343.15625 81.11979 343.67188 81.55729Q344.35938 82.135414 344.6875 83.041664Q345.03125 83.93229 345.03125 85.072914Q345.03125 86.05729 344.79688 86.80729Q344.57812 87.55729 344.21875 88.05729Q343.85938 88.55729 343.42188 88.83854Q343.0 89.11979 342.40625 89.27604Q341.8125 89.416664 341.03125 89.416664L337.92188 89.416664ZM339.0625 88.40104L340.89062 88.40104Q341.75 88.40104 342.23438 88.24479Q342.71875 88.08854 343.0 87.791664Q343.40625 87.40104 343.625 86.71354Q343.85938 86.02604 343.85938 85.05729Q343.85938 83.71354 343.40625 82.99479Q342.96875 82.260414 342.34375 82.010414Q341.875 81.83854 340.875 81.83854L339.0625 81.83854L339.0625 88.40104ZM347.125 89.416664L347.125 80.822914L348.25 80.822914L348.25 89.416664L347.125 89.416664ZM348.98438 89.416664L352.28125 80.822914L353.5 80.822914L357.01562 89.416664L355.73438 89.416664L354.71875 86.80729L351.14062 86.80729L350.1875 89.416664L348.98438 89.416664ZM351.46875 85.885414L354.375 85.885414L353.48438 83.510414Q353.0625 82.43229 352.875 81.729164Q352.70312 82.55729 352.40625 83.36979L351.46875 85.885414ZM363.85938 87.135414L364.89062 87.27604Q364.71875 88.33854 364.01562 88.947914Q363.3125 89.55729 362.29688 89.55729Q361.01562 89.55729 360.23438 88.729164Q359.46875 87.885414 359.46875 86.322914Q359.46875 85.322914 359.79688 84.572914Q360.14062 83.80729 360.8125 83.43229Q361.5 83.05729 362.3125 83.05729Q363.3125 83.05729 363.95312 83.572914Q364.60938 84.072914 364.79688 85.02604L363.76562 85.18229Q363.625 84.55729 363.25 84.24479Q362.875 83.916664 362.34375 83.916664Q361.54688 83.916664 361.04688 84.49479Q360.54688 85.05729 360.54688 86.291664Q360.54688 87.55729 361.03125 88.11979Q361.51562 88.68229 362.28125 88.68229Q362.90625 88.68229 363.3125 88.30729Q363.73438 87.93229 363.85938 87.135414ZM369.875 89.416664L369.875 88.49479Q369.14062 89.55729 367.89062 89.55729Q367.34375 89.55729 366.85938 89.354164Q366.39062 89.135414 366.15625 88.822914Q365.92188 88.49479 365.82812 88.02604Q365.76562 87.729164 365.76562 87.041664L365.76562 83.197914L366.82812 83.197914L366.82812 86.65104Q366.82812 87.46354 366.89062 87.760414Q366.98438 88.166664 367.29688 88.416664Q367.625 88.65104 368.10938 88.65104Q368.57812 88.65104 368.98438 88.416664Q369.40625 88.166664 369.57812 87.74479Q369.76562 87.322914 369.76562 86.52604L369.76562 83.197914L370.8125 83.197914L370.8125 89.416664L369.875 89.416664ZM372.875 89.416664L372.875 80.822914L376.10938 80.822914Q377.09375 80.822914 377.6875 81.08854Q378.28125 81.354164 378.60938 81.90104Q378.95312 82.43229 378.95312 83.02604Q378.95312 83.572914 378.65625 84.05729Q378.35938 84.541664 377.75 84.83854Q378.53125 85.072914 378.9375 85.635414Q379.35938 86.18229 379.35938 86.93229Q379.35938 87.52604 379.10938 88.05729Q378.85938 88.572914 378.48438 88.854164Q378.10938 89.135414 377.53125 89.27604Q376.96875 89.416664 376.15625 89.416664L372.875 89.416664ZM374.01562 84.43229L375.875 84.43229Q376.625 84.43229 376.95312 84.33854Q377.39062 84.21354 377.60938 83.916664Q377.82812 83.604164 377.82812 83.15104Q377.82812 82.729164 377.625 82.40104Q377.42188 82.072914 377.03125 81.96354Q376.65625 81.83854 375.73438 81.83854L374.01562 81.83854L374.01562 84.43229ZM374.01562 88.40104L376.15625 88.40104Q376.70312 88.40104 376.92188 88.354164Q377.32812 88.291664 377.57812 88.135414Q377.84375 87.96354 378.01562 87.65104Q378.1875 87.33854 378.1875 86.93229Q378.1875 86.447914 377.9375 86.08854Q377.70312 85.729164 377.26562 85.58854Q376.82812 85.447914 376.0 85.447914L374.01562 85.447914L374.01562 88.40104ZM380.875 89.416664L380.875 80.822914L382.01562 80.822914L382.01562 88.40104L386.25 88.40104L386.25 89.416664L380.875 89.416664ZM386.98438 89.416664L390.28125 80.822914L391.5 80.822914L395.01562 89.416664L393.73438 89.416664L392.71875 86.80729L389.14062 86.80729L388.1875 89.416664L386.98438 89.416664ZM389.46875 85.885414L392.375 85.885414L391.48438 83.510414Q391.0625 82.43229 390.875 81.729164Q390.70312 82.55729 390.40625 83.36979L389.46875 85.885414ZM394.54688 86.65104L395.60938 86.55729Q395.6875 87.21354 395.96875 87.61979Q396.25 88.02604 396.82812 88.291664Q397.42188 88.541664 398.15625 88.541664Q398.79688 88.541664 399.29688 88.354164Q399.79688 88.15104 400.03125 87.822914Q400.28125 87.479164 400.28125 87.08854Q400.28125 86.68229 400.04688 86.385414Q399.8125 86.072914 399.28125 85.86979Q398.92188 85.729164 397.73438 85.447914Q396.5625 85.166664 396.09375 84.916664Q395.46875 84.58854 395.17188 84.11979Q394.875 83.635414 394.875 83.041664Q394.875 82.40104 395.23438 81.83854Q395.60938 81.260414 396.3125 80.979164Q397.03125 80.68229 397.89062 80.68229Q398.84375 80.68229 399.57812 80.99479Q400.3125 81.291664 400.70312 81.90104Q401.09375 82.49479 401.125 83.24479L400.03125 83.322914Q399.9375 82.510414 399.42188 82.104164Q398.92188 81.68229 397.9375 81.68229Q396.90625 81.68229 396.4375 82.05729Q395.96875 82.43229 395.96875 82.96354Q395.96875 83.43229 396.29688 83.729164Q396.625 84.02604 398.0 84.33854Q399.39062 84.65104 399.90625 84.885414Q400.65625 85.24479 401.01562 85.77604Q401.375 86.291664 401.375 86.99479Q401.375 87.68229 400.98438 88.291664Q400.59375 88.885414 399.85938 89.229164Q399.125 89.55729 398.20312 89.55729Q397.03125 89.55729 396.23438 89.229164Q395.45312 88.885414 395.0 88.197914Q394.5625 87.510414 394.54688 86.65104Z" fill-rule="nonzero"/><path fill="#999999" d="M20.628124 59.05L20.628124 49.034374L24.08125 49.034374Q25.253124 49.034374 25.8625 49.175Q26.721874 49.3625 27.33125 49.89375Q28.128124 50.565624 28.51875 51.6125Q28.909374 52.64375 28.909374 53.9875Q28.909374 55.128124 28.64375 56.01875Q28.378124 56.89375 27.95625 57.471874Q27.55 58.05 27.05 58.378124Q26.55 58.70625 25.846874 58.878124Q25.159374 59.05 24.253124 59.05L20.628124 59.05ZM21.95625 57.8625L24.096874 57.8625Q25.08125 57.8625 25.64375 57.690624Q26.221874 57.503124 26.55 57.159374Q27.01875 56.690624 27.284374 55.89375Q27.55 55.096874 27.55 53.95625Q27.55 52.39375 27.034374 51.55Q26.51875 50.70625 25.784374 50.409374Q25.2375 50.20625 24.065624 50.20625L21.95625 50.20625L21.95625 57.8625ZM35.315624 55.1125L35.315624 53.940624L39.565624 53.940624L39.565624 57.659374Q38.58125 58.440624 37.534374 58.83125Q36.503124 59.221874 35.409374 59.221874Q33.940624 59.221874 32.721874 58.596874Q31.51875 57.95625 30.909374 56.76875Q30.3 55.565624 30.3 54.08125Q30.3 52.628124 30.909374 51.3625Q31.51875 50.08125 32.659374 49.471874Q33.815624 48.8625 35.315624 48.8625Q36.39375 48.8625 37.26875 49.221874Q38.159374 49.565624 38.659374 50.190624Q39.159374 50.815624 39.409374 51.83125L38.221874 52.159374Q37.9875 51.39375 37.64375 50.95625Q37.315624 50.51875 36.690624 50.253124Q36.08125 49.9875 35.315624 49.9875Q34.409374 49.9875 33.7375 50.26875Q33.08125 50.55 32.675 51.003124Q32.26875 51.440624 32.05 51.9875Q31.659374 52.925 31.659374 54.003124Q31.659374 55.346874 32.1125 56.253124Q32.58125 57.14375 33.45625 57.58125Q34.346874 58.01875 35.346874 58.01875Q36.20625 58.01875 37.01875 57.690624Q37.846874 57.3625 38.26875 56.9875L38.26875 55.1125L35.315624 55.1125ZM41.659374 59.05L41.659374 49.034374L48.909374 49.034374L48.909374 50.20625L42.9875 50.20625L42.9875 53.284374L48.534374 53.284374L48.534374 54.45625L42.9875 54.45625L42.9875 57.8625L49.14375 57.8625L49.14375 59.05L41.659374 59.05ZM50.596874 59.05L50.596874 49.034374L52.58125 49.034374L54.95625 56.128124Q55.284374 57.1125 55.440624 57.6125Q55.6125 57.065624 55.971874 56.003124L58.3625 49.034374L60.159374 49.034374L60.159374 59.05L58.878124 59.05L58.878124 50.659374L55.95625 59.05L54.76875 59.05L51.8625 50.51875L51.8625 59.05L50.596874 59.05ZM61.596874 59.05L61.596874 49.034374L63.58125 49.034374L65.95625 56.128124Q66.28438 57.1125 66.44063 57.6125Q66.6125 57.065624 66.97188 56.003124L69.3625 49.034374L71.15938 49.034374L71.15938 59.05L69.87813 59.05L69.87813 50.659374L66.95625 59.05L65.76875 59.05L62.8625 50.51875L62.8625 59.05L61.596874 59.05ZM82.59688 57.8625L82.59688 59.05L75.97188 59.05Q75.95625 58.6125 76.1125 58.190624Q76.37813 57.51875 76.925 56.8625Q77.4875 56.20625 78.53438 55.346874Q80.175 54.003124 80.7375 53.221874Q81.31563 52.440624 81.31563 51.7375Q81.31563 51.003124 80.78438 50.503124Q80.26875 50.003124 79.44063 50.003124Q78.55 50.003124 78.00313 50.534374Q77.47188 51.065624 77.47188 52.01875L76.20625 51.878124Q76.33125 50.471874 77.175 49.7375Q78.03438 48.9875 79.45625 48.9875Q80.90938 48.9875 81.7375 49.784374Q82.58125 50.58125 82.58125 51.76875Q82.58125 52.378124 82.33125 52.95625Q82.09688 53.534374 81.51875 54.175Q80.95625 54.815624 79.62813 55.940624Q78.51875 56.8625 78.20625 57.20625Q77.89375 57.534374 77.69063 57.8625L82.59688 57.8625ZM84.12813 54.1125Q84.12813 52.33125 84.4875 51.253124Q84.8625 50.159374 85.58125 49.58125Q86.3 48.9875 87.39375 48.9875Q88.20625 48.9875 88.81563 49.315624Q89.425 49.64375 89.81563 50.253124Q90.22188 50.8625 90.44063 51.7375Q90.65938 52.6125 90.65938 54.1125Q90.65938 55.878124 90.3 56.95625Q89.94063 58.034374 89.22188 58.628124Q88.50313 59.221874 87.39375 59.221874Q85.95625 59.221874 85.12813 58.175Q84.12813 56.925 84.12813 54.1125ZM85.39375 54.1125Q85.39375 56.58125 85.97188 57.39375Q86.55 58.20625 87.39375 58.20625Q88.25313 58.20625 88.83125 57.39375Q89.40938 56.565624 89.40938 54.1125Q89.40938 51.628124 88.83125 50.815624Q88.25313 50.003124 87.37813 50.003124Q86.53438 50.003124 86.03438 50.721874Q85.39375 51.64375 85.39375 54.1125ZM96.08125 59.05L96.08125 56.64375L91.72188 56.64375L91.72188 55.51875L96.3 49.034374L97.3 49.034374L97.3 55.51875L98.65938 55.51875L98.65938 56.64375L97.3 56.64375L97.3 59.05L96.08125 59.05ZM96.08125 55.51875L96.08125 51.003124L92.94063 55.51875L96.08125 55.51875ZM102.01875 53.6125Q101.25313 53.33125 100.87813 52.815624Q100.51875 52.3 100.51875 51.565624Q100.51875 50.471874 101.3 49.7375Q102.09688 48.9875 103.39375 48.9875Q104.70625 48.9875 105.50313 49.753124Q106.31563 50.51875 106.31563 51.6125Q106.31563 52.3 105.94063 52.815624Q105.58125 53.33125 104.83125 53.6125Q105.75313 53.909374 106.2375 54.58125Q106.72188 55.253124 106.72188 56.190624Q106.72188 57.471874 105.81563 58.346874Q104.90938 59.221874 103.425 59.221874Q101.94063 59.221874 101.01875 58.346874Q100.1125 57.45625 100.1125 56.14375Q100.1125 55.175 100.6125 54.51875Q101.1125 53.846874 102.01875 53.6125ZM101.78438 51.534374Q101.78438 52.2375 102.2375 52.690624Q102.69063 53.14375 103.425 53.14375Q104.14375 53.14375 104.59688 52.70625Q105.05 52.253124 105.05 51.596874Q105.05 50.925 104.58125 50.471874Q104.1125 50.003124 103.40938 50.003124Q102.70625 50.003124 102.2375 50.45625Q101.78438 50.89375 101.78438 51.534374ZM101.37813 56.159374Q101.37813 56.690624 101.62813 57.190624Q101.87813 57.675 102.3625 57.940624Q102.8625 58.20625 103.44063 58.20625Q104.31563 58.20625 104.87813 57.64375Q105.45625 57.08125 105.45625 56.20625Q105.45625 55.315624 104.8625 54.7375Q104.28438 54.14375 103.39375 54.14375Q102.51875 54.14375 101.94063 54.721874Q101.37813 55.3 101.37813 56.159374ZM107.65938 59.05L110.3 55.26875L107.84688 51.784374L109.39375 51.784374L110.50313 53.4875Q110.81563 53.971874 111.00313 54.3Q111.31563 53.846874 111.56563 53.503124L112.78438 51.784374L114.25313 51.784374L111.75313 55.20625L114.44063 59.05L112.94063 59.05L111.44063 56.8L111.05 56.190624L109.14375 59.05L107.65938 59.05ZM120.59688 57.8625L120.59688 59.05L113.97188 59.05Q113.95625 58.6125 114.1125 58.190624Q114.37813 57.51875 114.925 56.8625Q115.4875 56.20625 116.53438 55.346874Q118.175 54.003124 118.7375 53.221874Q119.31563 52.440624 119.31563 51.7375Q119.31563 51.003124 118.78438 50.503124Q118.26875 50.003124 117.44063 50.003124Q116.55 50.003124 116.00313 50.534374Q115.47188 51.065624 115.47188 52.01875L114.20625 51.878124Q114.33125 50.471874 115.175 49.7375Q116.03438 48.9875 117.45625 48.9875Q118.90938 48.9875 119.7375 49.784374Q120.58125 50.58125 120.58125 51.76875Q120.58125 52.378124 120.33125 52.95625Q120.09688 53.534374 119.51875 54.175Q118.95625 54.815624 117.62813 55.940624Q116.51875 56.8625 116.20625 57.20625Q115.89375 57.534374 115.69063 57.8625L120.59688 57.8625ZM122.12813 54.1125Q122.12813 52.33125 122.4875 51.253124Q122.8625 50.159374 123.58125 49.58125Q124.3 48.9875 125.39375 48.9875Q126.20625 48.9875 126.81563 49.315624Q127.425 49.64375 127.81563 50.253124Q128.22188 50.8625 128.44063 51.7375Q128.65938 52.6125 128.65938 54.1125Q128.65938 55.878124 128.3 56.95625Q127.94063 58.034374 127.22188 58.628124Q126.50313 59.221874 125.39375 59.221874Q123.95625 59.221874 123.12813 58.175Q122.12813 56.925 122.12813 54.1125ZM123.39375 54.1125Q123.39375 56.58125 123.97188 57.39375Q124.55 58.20625 125.39375 58.20625Q126.25313 58.20625 126.83125 57.39375Q127.40938 56.565624 127.40938 54.1125Q127.40938 51.628124 126.83125 50.815624Q126.25313 50.003124 125.37813 50.003124Q124.53438 50.003124 124.03438 50.721874Q123.39375 51.64375 123.39375 54.1125ZM134.08125 59.05L134.08125 56.64375L129.72188 56.64375L129.72188 55.51875L134.3 49.034374L135.3 49.034374L135.3 55.51875L136.65938 55.51875L136.65938 56.64375L135.3 56.64375L135.3 59.05L134.08125 59.05ZM134.08125 55.51875L134.08125 51.003124L130.94063 55.51875L134.08125 55.51875ZM140.01875 53.6125Q139.25313 53.33125 138.87813 52.815624Q138.51875 52.3 138.51875 51.565624Q138.51875 50.471874 139.3 49.7375Q140.09688 48.9875 141.39375 48.9875Q142.70625 48.9875 143.50313 49.753124Q144.31563 50.51875 144.31563 51.6125Q144.31563 52.3 143.94063 52.815624Q143.58125 53.33125 142.83125 53.6125Q143.75313 53.909374 144.2375 54.58125Q144.72188 55.253124 144.72188 56.190624Q144.72188 57.471874 143.81563 58.346874Q142.90938 59.221874 141.425 59.221874Q139.94063 59.221874 139.01875 58.346874Q138.1125 57.45625 138.1125 56.14375Q138.1125 55.175 138.6125 54.51875Q139.1125 53.846874 140.01875 53.6125ZM139.78438 51.534374Q139.78438 52.2375 140.2375 52.690624Q140.69063 53.14375 141.425 53.14375Q142.14375 53.14375 142.59688 52.70625Q143.05 52.253124 143.05 51.596874Q143.05 50.925 142.58125 50.471874Q142.1125 50.003124 141.40938 50.003124Q140.70625 50.003124 140.2375 50.45625Q139.78438 50.89375 139.78438 51.534374ZM139.37813 56.159374Q139.37813 56.690624 139.62813 57.190624Q139.87813 57.675 140.3625 57.940624Q140.8625 58.20625 141.44063 58.20625Q142.31563 58.20625 142.87813 57.64375Q143.45625 57.08125 143.45625 56.20625Q143.45625 55.315624 142.8625 54.7375Q142.28438 54.14375 141.39375 54.14375Q140.51875 54.14375 139.94063 54.721874Q139.37813 55.3 139.37813 56.159374Z" fill-rule="nonzero"/><path fill="#757575" d="M21.128124 39.55L21.128124 25.2375L27.471874 25.2375Q29.378124 25.2375 30.378124 25.628124Q31.378124 26.003124 31.971874 26.9875Q32.565624 27.95625 32.565624 29.14375Q32.565624 30.659374 31.58125 31.70625Q30.596874 32.753124 28.534374 33.034374Q29.284374 33.39375 29.675 33.753124Q30.503124 34.503124 31.253124 35.659374L33.7375 39.55L31.3625 39.55L29.45625 36.565624Q28.628124 35.284374 28.096874 34.596874Q27.565624 33.909374 27.128124 33.64375Q26.70625 33.3625 26.26875 33.253124Q25.940624 33.190624 25.221874 33.190624L23.01875 33.190624L23.01875 39.55L21.128124 39.55ZM23.01875 31.55L27.096874 31.55Q28.39375 31.55 29.1125 31.284374Q29.846874 31.01875 30.221874 30.425Q30.6125 29.83125 30.6125 29.14375Q30.6125 28.128124 29.878124 27.471874Q29.14375 26.815624 27.55 26.815624L23.01875 26.815624L23.01875 31.55ZM41.659374 39.55L41.659374 38.01875Q40.45625 39.784374 38.378124 39.784374Q37.45625 39.784374 36.659374 39.440624Q35.8625 39.08125 35.471874 38.55Q35.096874 38.01875 34.940624 37.2375Q34.83125 36.721874 34.83125 35.596874L34.83125 29.175L36.58125 29.175L36.58125 34.925Q36.58125 36.3 36.690624 36.784374Q36.8625 37.471874 37.39375 37.878124Q37.940624 38.26875 38.721874 38.26875Q39.51875 38.26875 40.20625 37.8625Q40.909374 37.45625 41.190624 36.76875Q41.4875 36.065624 41.4875 34.7375L41.4875 29.175L43.2375 29.175L43.2375 39.55L41.659374 39.55ZM44.159374 36.45625L45.909374 36.175Q46.05 37.221874 46.721874 37.784374Q47.39375 38.33125 48.596874 38.33125Q49.8 38.33125 50.378124 37.846874Q50.971874 37.346874 50.971874 36.690624Q50.971874 36.096874 50.45625 35.753124Q50.096874 35.51875 48.659374 35.159374Q46.721874 34.659374 45.971874 34.315624Q45.2375 33.95625 44.846874 33.33125Q44.45625 32.690624 44.45625 31.925Q44.45625 31.2375 44.76875 30.64375Q45.096874 30.05 45.64375 29.659374Q46.05 29.3625 46.753124 29.159374Q47.471874 28.940624 48.284374 28.940624Q49.503124 28.940624 50.425 29.3Q51.346874 29.64375 51.784374 30.253124Q52.221874 30.846874 52.39375 31.846874L50.675 32.08125Q50.55 31.284374 49.9875 30.846874Q49.425 30.39375 48.409374 30.39375Q47.190624 30.39375 46.675 30.8Q46.159374 31.190624 46.159374 31.721874Q46.159374 32.065624 46.378124 32.346874Q46.58125 32.628124 47.05 32.815624Q47.315624 32.909374 48.596874 33.253124Q50.471874 33.753124 51.20625 34.08125Q51.940624 34.39375 52.3625 35.003124Q52.784374 35.596874 52.784374 36.503124Q52.784374 37.378124 52.26875 38.159374Q51.753124 38.940624 50.784374 39.3625Q49.815624 39.784374 48.596874 39.784374Q46.58125 39.784374 45.51875 38.940624Q44.45625 38.096874 44.159374 36.45625ZM58.70625 37.971874L58.95625 39.534374Q58.221874 39.690624 57.628124 39.690624Q56.675 39.690624 56.14375 39.39375Q55.628124 39.08125 55.409374 38.596874Q55.190624 38.096874 55.190624 36.51875L55.190624 30.55L53.909374 30.55L53.909374 29.175L55.190624 29.175L55.190624 26.6125L56.940624 25.55L56.940624 29.175L58.70625 29.175L58.70625 30.55L56.940624 30.55L56.940624 36.6125Q56.940624 37.3625 57.034374 37.58125Q57.128124 37.784374 57.33125 37.925Q57.55 38.05 57.940624 38.05Q58.221874 38.05 58.70625 37.971874ZM60.190624 35.253124L60.190624 33.4875L65.58125 33.4875L65.58125 35.253124L60.190624 35.253124ZM78.31563 34.534374L80.20625 35.003124Q79.6125 37.346874 78.06563 38.58125Q76.51875 39.8 74.26875 39.8Q71.95625 39.8 70.50313 38.8625Q69.06563 37.909374 68.3 36.128124Q67.55 34.33125 67.55 32.284374Q67.55 30.05 68.39375 28.39375Q69.25313 26.721874 70.83125 25.8625Q72.40938 24.9875 74.3 24.9875Q76.45625 24.9875 77.90938 26.08125Q79.37813 27.175 79.95625 29.159374L78.09688 29.596874Q77.59688 28.034374 76.64375 27.33125Q75.70625 26.6125 74.26875 26.6125Q72.6125 26.6125 71.50313 27.409374Q70.39375 28.190624 69.94063 29.534374Q69.50313 30.8625 69.50313 32.26875Q69.50313 34.096874 70.03438 35.471874Q70.56563 36.83125 71.69063 37.503124Q72.81563 38.175 74.1125 38.175Q75.70625 38.175 76.81563 37.253124Q77.925 36.33125 78.31563 34.534374ZM91.4875 25.2375L93.37813 25.2375L93.37813 33.503124Q93.37813 35.659374 92.89375 36.940624Q92.40938 38.20625 91.12813 39.003124Q89.8625 39.8 87.78438 39.8Q85.76875 39.8 84.4875 39.1125Q83.22188 38.409374 82.675 37.096874Q82.12813 35.784374 82.12813 33.503124L82.12813 25.2375L84.01875 25.2375L84.01875 33.4875Q84.01875 35.3625 84.3625 36.253124Q84.70625 37.128124 85.55 37.6125Q86.39375 38.08125 87.62813 38.08125Q89.70625 38.08125 90.59688 37.14375Q91.4875 36.190624 91.4875 33.4875L91.4875 25.2375ZM95.09688 39.55L95.09688 25.2375L100.01875 25.2375Q101.69063 25.2375 102.58125 25.440624Q103.8 25.721874 104.675 26.45625Q105.8 27.425 106.3625 28.909374Q106.925 30.39375 106.925 32.315624Q106.925 33.940624 106.55 35.20625Q106.175 36.45625 105.56563 37.284374Q104.97188 38.1125 104.26875 38.596874Q103.56563 39.065624 102.56563 39.315624Q101.56563 39.55 100.25313 39.55L95.09688 39.55ZM96.9875 37.8625L100.05 37.8625Q101.45625 37.8625 102.25313 37.596874Q103.06563 37.33125 103.55 36.846874Q104.22188 36.175 104.59688 35.05Q104.97188 33.909374 104.97188 32.284374Q104.97188 30.034374 104.2375 28.83125Q103.50313 27.628124 102.44063 27.221874Q101.69063 26.925 100.00313 26.925L96.9875 26.925L96.9875 37.8625ZM107.51875 39.55L113.01875 25.2375L115.06563 25.2375L120.925 39.55L118.76875 39.55L117.09688 35.20625L111.1125 35.20625L109.53438 39.55L107.51875 39.55ZM111.65938 33.675L116.50313 33.675L115.01875 29.70625Q114.33125 27.89375 114.00313 26.7375Q113.72188 28.1125 113.22188 29.471874L111.65938 33.675ZM130.75313 39.55L126.8 29.175L128.65938 29.175L130.89375 35.39375Q131.25313 36.39375 131.55 37.471874Q131.78438 36.659374 132.20625 35.503124L134.50313 29.175L136.31563 29.175L132.39375 39.55L130.75313 39.55ZM136.15938 36.45625L137.90938 36.175Q138.05 37.221874 138.72188 37.784374Q139.39375 38.33125 140.59688 38.33125Q141.8 38.33125 142.37813 37.846874Q142.97188 37.346874 142.97188 36.690624Q142.97188 36.096874 142.45625 35.753124Q142.09688 35.51875 140.65938 35.159374Q138.72188 34.659374 137.97188 34.315624Q137.2375 33.95625 136.84688 33.33125Q136.45625 32.690624 136.45625 31.925Q136.45625 31.2375 136.76875 30.64375Q137.09688 30.05 137.64375 29.659374Q138.05 29.3625 138.75313 29.159374Q139.47188 28.940624 140.28438 28.940624Q141.50313 28.940624 142.425 29.3Q143.34688 29.64375 143.78438 30.253124Q144.22188 30.846874 144.39375 31.846874L142.675 32.08125Q142.55 31.284374 141.9875 30.846874Q141.425 30.39375 140.40938 30.39375Q139.19063 30.39375 138.675 30.8Q138.15938 31.190624 138.15938 31.721874Q138.15938 32.065624 138.37813 32.346874Q138.58125 32.628124 139.05 32.815624Q139.31563 32.909374 140.59688 33.253124Q142.47188 33.753124 143.20625 34.08125Q143.94063 34.39375 144.3625 35.003124Q144.78438 35.596874 144.78438 36.503124Q144.78438 37.378124 144.26875 38.159374Q143.75313 38.940624 142.78438 39.3625Q141.81563 39.784374 140.59688 39.784374Q138.58125 39.784374 137.51875 38.940624Q136.45625 38.096874 136.15938 36.45625ZM147.3625 39.55L147.3625 37.55L149.3625 37.55L149.3625 39.55L147.3625 39.55ZM159.08125 39.55L159.08125 25.2375L161.01875 25.2375L168.53438 36.471874L168.53438 25.2375L170.34688 25.2375L170.34688 39.55L168.40938 39.55L160.89375 28.3L160.89375 39.55L159.08125 39.55ZM176.19063 39.55L170.64375 25.2375L172.69063 25.2375L176.40938 35.628124Q176.8625 36.878124 177.15938 37.971874Q177.4875 36.8 177.94063 35.628124L181.8 25.2375L183.7375 25.2375L178.12813 39.55L176.19063 39.55ZM185.40938 39.55L185.40938 25.2375L187.31563 25.2375L187.31563 39.55L185.40938 39.55ZM191.09688 39.55L191.09688 25.2375L196.01875 25.2375Q197.69063 25.2375 198.58125 25.440624Q199.8 25.721874 200.675 26.45625Q201.8 27.425 202.3625 28.909374Q202.925 30.39375 202.925 32.315624Q202.925 33.940624 202.55 35.20625Q202.175 36.45625 201.56563 37.284374Q200.97188 38.1125 200.26875 38.596874Q199.56563 39.065624 198.56563 39.315624Q197.56563 39.55 196.25313 39.55L191.09688 39.55ZM192.9875 37.8625L196.05 37.8625Q197.45625 37.8625 198.25313 37.596874Q199.06563 37.33125 199.55 36.846874Q200.22188 36.175 200.59688 35.05Q200.97188 33.909374 200.97188 32.284374Q200.97188 30.034374 200.2375 28.83125Q199.50313 27.628124 198.44063 27.221874Q197.69063 26.925 196.00313 26.925L192.9875 26.925L192.9875 37.8625ZM205.40938 39.55L205.40938 25.2375L207.31563 25.2375L207.31563 39.55L205.40938 39.55ZM209.51875 39.55L215.01875 25.2375L217.06563 25.2375L222.925 39.55L220.76875 39.55L219.09688 35.20625L213.1125 35.20625L211.53438 39.55L209.51875 39.55ZM213.65938 33.675L218.50313 33.675L217.01875 29.70625Q216.33125 27.89375 216.00313 26.7375Q215.72188 28.1125 215.22188 29.471874L213.65938 33.675ZM236.64375 35.753124L238.3625 35.971874Q238.08125 37.76875 236.90938 38.784374Q235.75313 39.784374 234.05 39.784374Q231.925 39.784374 230.62813 38.39375Q229.33125 37.003124 229.33125 34.409374Q229.33125 32.721874 229.87813 31.471874Q230.44063 30.20625 231.58125 29.58125Q232.72188 28.940624 234.06563 28.940624Q235.75313 28.940624 236.81563 29.8Q237.89375 30.659374 238.20625 32.221874L236.4875 32.4875Q236.25313 31.440624 235.62813 30.925Q235.00313 30.39375 234.12813 30.39375Q232.8 30.39375 231.97188 31.346874Q231.14375 32.3 231.14375 34.346874Q231.14375 36.440624 231.94063 37.39375Q232.7375 38.33125 234.03438 38.33125Q235.06563 38.33125 235.75313 37.70625Q236.45625 37.065624 236.64375 35.753124ZM246.65938 39.55L246.65938 38.01875Q245.45625 39.784374 243.37813 39.784374Q242.45625 39.784374 241.65938 39.440624Q240.8625 39.08125 240.47188 38.55Q240.09688 38.01875 239.94063 37.2375Q239.83125 36.721874 239.83125 35.596874L239.83125 29.175L241.58125 29.175L241.58125 34.925Q241.58125 36.3 241.69063 36.784374Q241.8625 37.471874 242.39375 37.878124Q242.94063 38.26875 243.72188 38.26875Q244.51875 38.26875 245.20625 37.8625Q245.90938 37.45625 246.19063 36.76875Q246.4875 36.065624 246.4875 34.7375L246.4875 29.175L248.2375 29.175L248.2375 39.55L246.65938 39.55ZM250.01875 39.55L250.01875 25.2375L255.39375 25.2375Q257.03436 25.2375 258.01874 25.675Q259.0031 26.096874 259.5656 27.003124Q260.1281 27.909374 260.1281 28.89375Q260.1281 29.815624 259.6281 30.628124Q259.14374 31.440624 258.1281 31.925Q259.425 32.315624 260.1281 33.2375Q260.83124 34.14375 260.83124 35.39375Q260.83124 36.409374 260.39374 37.26875Q259.97186 38.128124 259.34686 38.596874Q258.72186 39.065624 257.78436 39.315624Q256.84686 39.55 255.47188 39.55L250.01875 39.55ZM251.90938 31.253124L255.00313 31.253124Q256.26874 31.253124 256.8156 31.08125Q257.53436 30.8625 257.89374 30.378124Q258.26874 29.878124 258.26874 29.1125Q258.26874 28.409374 257.925 27.8625Q257.58124 27.315624 256.9406 27.128124Q256.3156 26.925 254.76875 26.925L251.90938 26.925L251.90938 31.253124ZM251.90938 37.8625L255.47188 37.8625Q256.39374 37.8625 256.76874 37.784374Q257.425 37.675 257.8625 37.409374Q258.3 37.128124 258.58124 36.6125Q258.8625 36.08125 258.8625 35.39375Q258.8625 34.596874 258.45624 34.003124Q258.05 33.409374 257.3156 33.175Q256.58124 32.940624 255.22188 32.940624L251.90938 32.940624L251.90938 37.8625ZM263.01874 39.55L263.01874 25.2375L264.90936 25.2375L264.90936 37.8625L271.95624 37.8625L271.95624 39.55L263.01874 39.55ZM272.51874 39.55L278.01874 25.2375L280.0656 25.2375L285.925 39.55L283.76874 39.55L282.09686 35.20625L276.1125 35.20625L274.53436 39.55L272.51874 39.55ZM276.65936 33.675L281.5031 33.675L280.01874 29.70625Q279.33124 27.89375 279.0031 26.7375Q278.72186 28.1125 278.22186 29.471874L276.65936 33.675ZM286.45624 34.95625L288.2375 34.8Q288.3625 35.8625 288.8156 36.55Q289.28436 37.2375 290.2531 37.675Q291.2375 38.096874 292.47186 38.096874Q293.55 38.096874 294.3781 37.784374Q295.20624 37.45625 295.6125 36.89375Q296.01874 36.33125 296.01874 35.659374Q296.01874 34.9875 295.6281 34.4875Q295.2375 33.9875 294.34686 33.64375Q293.76874 33.409374 291.78436 32.940624Q289.8156 32.471874 289.03436 32.05Q288.0031 31.51875 287.5031 30.721874Q287.0031 29.925 287.0031 28.940624Q287.0031 27.846874 287.6125 26.909374Q288.22186 25.971874 289.40936 25.4875Q290.59686 24.9875 292.03436 24.9875Q293.6281 24.9875 294.84686 25.503124Q296.0656 26.01875 296.70624 27.01875Q297.3625 28.003124 297.40936 29.26875L295.59686 29.409374Q295.45624 28.05 294.6125 27.3625Q293.76874 26.659374 292.1125 26.659374Q290.39374 26.659374 289.59686 27.3Q288.8156 27.925 288.8156 28.8Q288.8156 29.58125 289.3781 30.08125Q289.925 30.58125 292.2375 31.096874Q294.55 31.6125 295.40936 32.003124Q296.65936 32.58125 297.2531 33.471874Q297.84686 34.346874 297.84686 35.503124Q297.84686 36.64375 297.1906 37.659374Q296.53436 38.675 295.3 39.2375Q294.08124 39.8 292.55 39.8Q290.6125 39.8 289.3 39.2375Q287.9875 38.659374 287.2375 37.51875Q286.4875 36.378124 286.45624 34.95625Z" fill-rule="nonzero"/></svg>