<svg version="1.1" viewBox="0.0 0.0 600.0 371.0" fill="none" stroke="none" stroke-linecap="square" stroke-miterlimit="10" width="600" height="371" xmlns:xlink="http://www.w3.org/1999/xlink" xmlns="http://www.w3.org/2000/svg"><path fill="#ffffff" d="M0 0L600.0 0L600.0 371.0L0 371.0L0 0Z" fill-rule="nonzero"/><path stroke="#333333" stroke-width="1.0" stroke-linecap="butt" d="M50.5 104.5L50.5 300.5" fill-rule="nonzero"/><path stroke="#cccccc" stroke-width="1.0" stroke-linecap="butt" d="M183.5 104.5L183.5 300.5" fill-rule="nonzero"/><path stroke="#cccccc" stroke-width="1.0" stroke-linecap="butt" d="M316.5 104.5L316.5 300.5" fill-rule="nonzero"/><path stroke="#cccccc" stroke-width="1.0" stroke-linecap="butt" d="M448.5 104.5L448.5 300.5" fill-rule="nonzero"/><path stroke="#cccccc" stroke-width="1.0" stroke-linecap="butt" d="M581.5 104.5L581.5 300.5" fill-rule="nonzero"/><clipPath id="id_0"><path d="M50.55 104.78333L581.45 104.78333L581.45 300.45L50.55 300.45L50.55 104.78333Z" clip-rule="nonzero"/></clipPath><path stroke="#000000" stroke-width="2.0" stroke-linecap="butt" stroke-opacity="0.0" clip-path="url(#id_0)" d="M51.0 202.0L51.0 157.0L523.0 157.0C524.10455 157.0 525.0 157.89543 525.0 159.0L525.0 200.0C525.0 201.10457 524.10455 202.0 523.0 202.0Z" fill-rule="nonzero"/><path fill="#4285f4" clip-path="url(#id_0)" d="M51.0 202.0L51.0 157.0L523.0 157.0C524.10455 157.0 525.0 157.89543 525.0 159.0L525.0 200.0C525.0 201.10457 524.10455 202.0 523.0 202.0Z" fill-rule="nonzero"/><path stroke="#000000" stroke-width="2.0" stroke-linecap="butt" stroke-opacity="0.0" clip-path="url(#id_0)" d="M51.0 249.0L51.0 204.0L523.0 204.0C524.10455 204.0 525.0 204.89543 525.0 206.0L525.0 247.0C525.0 248.10457 524.10455 249.0 523.0 249.0Z" fill-rule="nonzero"/><path fill="#ea4335" clip-path="url(#id_0)" d="M51.0 249.0L51.0 204.0L523.0 204.0C524.10455 204.0 525.0 204.89543 525.0 206.0L525.0 247.0C525.0 248.10457 524.10455 249.0 523.0 249.0Z" fill-rule="nonzero"/><path stroke="#4285f4" stroke-width="3.0" stroke-linejoin="round" stroke-linecap="round" d="M498.29648 178.85938Q497.65585 178.59375 497.35898 178.125Q497.07773 177.65625 497.07773 177.09375Q497.07773 176.125 497.7496 175.5Q498.42148 174.875 499.65585 174.875Q500.8746 174.875 501.54648 175.5Q502.23398 176.125 502.23398 177.09375Q502.23398 177.6875 501.92148 178.15625Q501.60898 178.625 501.04648 178.85938Q501.76523 179.15625 502.14023 179.70312Q502.51523 180.25 502.51523 180.96875Q502.51523 182.15625 501.7496 182.90625Q500.9996 183.65625 499.73398 183.65625Q498.5621 183.65625 497.78085 183.03125Q496.85898 182.3125 496.85898 181.04688Q496.85898 180.34375 497.20273 179.76562Q497.54648 179.1875 498.29648 178.85938ZM498.64023 177.20312Q498.64023 177.70312 498.90585 177.98438Q499.1871 178.25 499.65585 178.25Q500.1246 178.25 500.40585 177.96875Q500.6871 177.6875 500.6871 177.20312Q500.6871 176.73438 500.40585 176.46875Q500.1246 176.1875 499.67148 176.1875Q499.20273 176.1875 498.92148 176.46875Q498.64023 176.75 498.64023 177.20312ZM498.48398 180.89062Q498.48398 181.5625 498.82773 181.95312Q499.1871 182.32812 499.70273 182.32812Q500.21835 182.32812 500.54648 181.96875Q500.8746 181.59375 500.8746 180.90625Q500.8746 180.29688 500.53085 179.9375Q500.20273 179.5625 499.6871 179.5625Q499.07773 179.5625 498.78085 179.98438Q498.48398 180.40625 498.48398 180.89062ZM503.92148 181.51562L505.51523 181.34375Q505.57773 181.82812 505.8121 182.0625Q506.0621 182.29688 506.46835 182.29688Q506.98398 182.29688 507.32773 181.82812Q507.6871 181.35938 507.79648 179.875Q507.17148 180.59375 506.23398 180.59375Q505.23398 180.59375 504.48398 179.8125Q503.7496 179.03125 503.7496 177.78125Q503.7496 176.46875 504.53085 175.67188Q505.3121 174.875 506.51523 174.875Q507.8121 174.875 508.65585 175.89062Q509.4996 176.89062 509.4996 179.20312Q509.4996 181.5625 508.6246 182.60938Q507.7496 183.65625 506.34335 183.65625Q505.34335 183.65625 504.71835 183.125Q504.09335 182.57812 503.92148 181.51562ZM507.64023 177.92188Q507.64023 177.125 507.28085 176.6875Q506.92148 176.23438 506.4371 176.23438Q505.98398 176.23438 505.67148 176.59375Q505.3746 176.95312 505.3746 177.78125Q505.3746 178.60938 505.70273 179.0Q506.03085 179.39062 506.51523 179.39062Q506.9996 179.39062 507.3121 179.01562Q507.64023 178.64062 507.64023 177.92188ZM511.20273 181.85938L512.8433 181.85938L512.8433 183.03125Q512.8433 183.75 512.7183 184.15625Q512.5933 184.57812 512.2496 184.90625Q511.90585 185.23438 511.39023 185.42188L511.0621 184.73438Q511.5621 184.57812 511.76523 184.28125Q511.98398 184.0 511.9996 183.5L511.20273 183.5L511.20273 181.85938ZM517.10895 183.5L517.10895 181.76562L513.5933 181.76562L513.5933 180.32812L517.3277 174.875L518.7027 174.875L518.7027 180.32812L519.7808 180.32812L519.7808 181.76562L518.7027 181.76562L518.7027 183.5L517.10895 183.5ZM517.10895 180.32812L517.10895 177.39062L515.1402 180.32812L517.10895 180.32812Z" fill-rule="nonzero"/><path fill="#ffffff" d="M498.29648 178.85938Q497.65585 178.59375 497.35898 178.125Q497.07773 177.65625 497.07773 177.09375Q497.07773 176.125 497.7496 175.5Q498.42148 174.875 499.65585 174.875Q500.8746 174.875 501.54648 175.5Q502.23398 176.125 502.23398 177.09375Q502.23398 177.6875 501.92148 178.15625Q501.60898 178.625 501.04648 178.85938Q501.76523 179.15625 502.14023 179.70312Q502.51523 180.25 502.51523 180.96875Q502.51523 182.15625 501.7496 182.90625Q500.9996 183.65625 499.73398 183.65625Q498.5621 183.65625 497.78085 183.03125Q496.85898 182.3125 496.85898 181.04688Q496.85898 180.34375 497.20273 179.76562Q497.54648 179.1875 498.29648 178.85938ZM498.64023 177.20312Q498.64023 177.70312 498.90585 177.98438Q499.1871 178.25 499.65585 178.25Q500.1246 178.25 500.40585 177.96875Q500.6871 177.6875 500.6871 177.20312Q500.6871 176.73438 500.40585 176.46875Q500.1246 176.1875 499.67148 176.1875Q499.20273 176.1875 498.92148 176.46875Q498.64023 176.75 498.64023 177.20312ZM498.48398 180.89062Q498.48398 181.5625 498.82773 181.95312Q499.1871 182.32812 499.70273 182.32812Q500.21835 182.32812 500.54648 181.96875Q500.8746 181.59375 500.8746 180.90625Q500.8746 180.29688 500.53085 179.9375Q500.20273 179.5625 499.6871 179.5625Q499.07773 179.5625 498.78085 179.98438Q498.48398 180.40625 498.48398 180.89062ZM503.92148 181.51562L505.51523 181.34375Q505.57773 181.82812 505.8121 182.0625Q506.0621 182.29688 506.46835 182.29688Q506.98398 182.29688 507.32773 181.82812Q507.6871 181.35938 507.79648 179.875Q507.17148 180.59375 506.23398 180.59375Q505.23398 180.59375 504.48398 179.8125Q503.7496 179.03125 503.7496 177.78125Q503.7496 176.46875 504.53085 175.67188Q505.3121 174.875 506.51523 174.875Q507.8121 174.875 508.65585 175.89062Q509.4996 176.89062 509.4996 179.20312Q509.4996 181.5625 508.6246 182.60938Q507.7496 183.65625 506.34335 183.65625Q505.34335 183.65625 504.71835 183.125Q504.09335 182.57812 503.92148 181.51562ZM507.64023 177.92188Q507.64023 177.125 507.28085 176.6875Q506.92148 176.23438 506.4371 176.23438Q505.98398 176.23438 505.67148 176.59375Q505.3746 176.95312 505.3746 177.78125Q505.3746 178.60938 505.70273 179.0Q506.03085 179.39062 506.51523 179.39062Q506.9996 179.39062 507.3121 179.01562Q507.64023 178.64062 507.64023 177.92188ZM511.20273 181.85938L512.8434 181.85938L512.8434 183.03125Q512.8434 183.75 512.7184 184.15625Q512.5934 184.57812 512.24963 184.90625Q511.90585 185.23438 511.39023 185.42188L511.0621 184.73438Q511.5621 184.57812 511.76523 184.28125Q511.98398 184.0 511.9996 183.5L511.20273 183.5L511.20273 181.85938ZM517.109 183.5L517.109 181.76562L513.5934 181.76562L513.5934 180.32812L517.32776 174.875L518.70276 174.875L518.70276 180.32812L519.7809 180.32812L519.7809 181.76562L518.70276 181.76562L518.70276 183.5L517.109 183.5ZM517.109 180.32812L517.109 177.39062L515.14026 180.32812L517.109 180.32812Z" fill-rule="nonzero"/><path stroke="#ea4335" stroke-width="3.0" stroke-linejoin="round" stroke-linecap="round" d="M497.76556 225.85938Q497.12494 225.59375 496.82806 225.125Q496.5468 224.65625 496.5468 224.09375Q496.5468 223.125 497.2187 222.5Q497.89056 221.875 499.12494 221.875Q500.3437 221.875 501.01556 222.5Q501.70306 223.125 501.70306 224.09375Q501.70306 224.6875 501.39056 225.15625Q501.07806 225.625 500.51556 225.85938Q501.2343 226.15625 501.6093 226.70312Q501.9843 227.25 501.9843 227.96875Q501.9843 229.15625 501.2187 229.90625Q500.4687 230.65625 499.20306 230.65625Q498.0312 230.65625 497.24994 230.03125Q496.32806 229.3125 496.32806 228.04688Q496.32806 227.34375 496.6718 226.76562Q497.01556 226.1875 497.76556 225.85938ZM498.1093 224.20312Q498.1093 224.70312 498.37494 224.98438Q498.6562 225.25 499.12494 225.25Q499.5937 225.25 499.87494 224.96875Q500.1562 224.6875 500.1562 224.20312Q500.1562 223.73438 499.87494 223.46875Q499.5937 223.1875 499.14056 223.1875Q498.6718 223.1875 498.39056 223.46875Q498.1093 223.75 498.1093 224.20312ZM497.95306 227.89062Q497.95306 228.5625 498.2968 228.95312Q498.6562 229.32812 499.1718 229.32812Q499.68744 229.32812 500.01556 228.96875Q500.3437 228.59375 500.3437 227.90625Q500.3437 227.29688 499.99994 226.9375Q499.6718 226.5625 499.1562 226.5625Q498.5468 226.5625 498.24994 226.98438Q497.95306 227.40625 497.95306 227.89062ZM503.39056 228.51562L504.9843 228.34375Q505.0468 228.82812 505.2812 229.0625Q505.5312 229.29688 505.93744 229.29688Q506.45306 229.29688 506.7968 228.82812Q507.1562 228.35938 507.26556 226.875Q506.64056 227.59375 505.70306 227.59375Q504.70306 227.59375 503.95306 226.8125Q503.2187 226.03125 503.2187 224.78125Q503.2187 223.46875 503.99994 222.67188Q504.7812 221.875 505.9843 221.875Q507.2812 221.875 508.12494 222.89062Q508.9687 223.89062 508.9687 226.20312Q508.9687 228.5625 508.0937 229.60938Q507.2187 230.65625 505.81244 230.65625Q504.81244 230.65625 504.18744 230.125Q503.56244 229.57812 503.39056 228.51562ZM507.1093 224.92188Q507.1093 224.125 506.74994 223.6875Q506.39056 223.23438 505.9062 223.23438Q505.45306 223.23438 505.14056 223.59375Q504.8437 223.95312 504.8437 224.78125Q504.8437 225.60938 505.1718 226.0Q505.49994 226.39062 505.9843 226.39062Q506.4687 226.39062 506.7812 226.01562Q507.1093 225.64062 507.1093 224.92188ZM510.6718 228.85938L512.31244 228.85938L512.31244 230.03125Q512.31244 230.75 512.18744 231.15625Q512.06244 231.57812 511.7187 231.90625Q511.37494 232.23438 510.8593 232.42188L510.5312 231.73438Q511.0312 231.57812 511.2343 231.28125Q511.45306 231.0 511.4687 230.5L510.6718 230.5L510.6718 228.85938ZM513.2968 228.21875L514.89056 228.03125Q514.9687 228.64062 515.2968 228.96875Q515.64056 229.28125 516.1093 229.28125Q516.62494 229.28125 516.9687 228.89062Q517.31244 228.5 517.31244 227.84375Q517.31244 227.23438 516.9687 226.875Q516.64056 226.5 516.1718 226.5Q515.8437 226.5 515.4062 226.625L515.5937 225.28125Q516.26556 225.29688 516.6093 225.0Q516.9687 224.6875 516.9687 224.17188Q516.9687 223.75 516.70306 223.5Q516.45306 223.23438 516.01556 223.23438Q515.5937 223.23438 515.2968 223.53125Q514.99994 223.8125 514.93744 224.375L513.4218 224.125Q513.57806 223.34375 513.89056 222.875Q514.2187 222.40625 514.7812 222.14062Q515.3593 221.875 516.06244 221.875Q517.2812 221.875 518.01556 222.64062Q518.6093 223.28125 518.6093 224.07812Q518.6093 225.20312 517.37494 225.875Q518.12494 226.04688 518.56244 226.59375Q518.99994 227.14062 518.99994 227.92188Q518.99994 229.04688 518.1718 229.84375Q517.3437 230.64062 516.12494 230.64062Q514.95306 230.64062 514.18744 229.96875Q513.4218 229.29688 513.2968 228.21875Z" fill-rule="nonzero"/><path fill="#ffffff" d="M497.76556 225.85938Q497.12494 225.59375 496.82806 225.125Q496.5468 224.65625 496.5468 224.09375Q496.5468 223.125 497.2187 222.5Q497.89056 221.875 499.12494 221.875Q500.3437 221.875 501.01556 222.5Q501.70306 223.125 501.70306 224.09375Q501.70306 224.6875 501.39056 225.15625Q501.07806 225.625 500.51556 225.85938Q501.2343 226.15625 501.6093 226.70312Q501.9843 227.25 501.9843 227.96875Q501.9843 229.15625 501.2187 229.90625Q500.4687 230.65625 499.20306 230.65625Q498.0312 230.65625 497.24994 230.03125Q496.32806 229.3125 496.32806 228.04688Q496.32806 227.34375 496.6718 226.76562Q497.01556 226.1875 497.76556 225.85938ZM498.1093 224.20312Q498.1093 224.70312 498.37494 224.98438Q498.6562 225.25 499.12494 225.25Q499.5937 225.25 499.87494 224.96875Q500.1562 224.6875 500.1562 224.20312Q500.1562 223.73438 499.87494 223.46875Q499.5937 223.1875 499.14056 223.1875Q498.6718 223.1875 498.39056 223.46875Q498.1093 223.75 498.1093 224.20312ZM497.95306 227.89062Q497.95306 228.5625 498.2968 228.95312Q498.6562 229.32812 499.1718 229.32812Q499.68744 229.32812 500.01556 228.96875Q500.3437 228.59375 500.3437 227.90625Q500.3437 227.29688 499.99994 226.9375Q499.6718 226.5625 499.1562 226.5625Q498.5468 226.5625 498.24994 226.98438Q497.95306 227.40625 497.95306 227.89062ZM503.39056 228.51562L504.9843 228.34375Q505.0468 228.82812 505.2812 229.0625Q505.5312 229.29688 505.93744 229.29688Q506.45306 229.29688 506.7968 228.82812Q507.1562 228.35938 507.26556 226.875Q506.64056 227.59375 505.70306 227.59375Q504.70306 227.59375 503.95306 226.8125Q503.2187 226.03125 503.2187 224.78125Q503.2187 223.46875 503.99994 222.67188Q504.7812 221.875 505.9843 221.875Q507.2812 221.875 508.12494 222.89062Q508.9687 223.89062 508.9687 226.20312Q508.9687 228.5625 508.0937 229.60938Q507.2187 230.65625 505.81244 230.65625Q504.81244 230.65625 504.18744 230.125Q503.56244 229.57812 503.39056 228.51562ZM507.1093 224.92188Q507.1093 224.125 506.74994 223.6875Q506.39056 223.23438 505.9062 223.23438Q505.45306 223.23438 505.14056 223.59375Q504.8437 223.95312 504.8437 224.78125Q504.8437 225.60938 505.1718 226.0Q505.49994 226.39062 505.9843 226.39062Q506.4687 226.39062 506.7812 226.01562Q507.1093 225.64062 507.1093 224.92188ZM510.6718 228.85938L512.31244 228.85938L512.31244 230.03125Q512.31244 230.75 512.18744 231.15625Q512.06244 231.57812 511.7187 231.90625Q511.37494 232.23438 510.8593 232.42188L510.5312 231.73438Q511.0312 231.57812 511.2343 231.28125Q511.45306 231.0 511.4687 230.5L510.6718 230.5L510.6718 228.85938ZM513.2968 228.21875L514.89056 228.03125Q514.9687 228.64062 515.2968 228.96875Q515.64056 229.28125 516.1093 229.28125Q516.62494 229.28125 516.9687 228.89062Q517.31244 228.5 517.31244 227.84375Q517.31244 227.23438 516.9687 226.875Q516.64056 226.5 516.1718 226.5Q515.8437 226.5 515.4062 226.625L515.5937 225.28125Q516.26556 225.29688 516.6093 225.0Q516.9687 224.6875 516.9687 224.17188Q516.9687 223.75 516.70306 223.5Q516.45306 223.23438 516.01556 223.23438Q515.5937 223.23438 515.2968 223.53125Q514.99994 223.8125 514.93744 224.375L513.4218 224.125Q513.57806 223.34375 513.89056 222.875Q514.2187 222.40625 514.7812 222.14062Q515.3593 221.875 516.06244 221.875Q517.2812 221.875 518.01556 222.64062Q518.6093 223.28125 518.6093 224.07812Q518.6093 225.20312 517.37494 225.875Q518.12494 226.04688 518.56244 226.59375Q518.99994 227.14062 518.99994 227.92188Q518.99994 229.04688 518.1718 229.84375Q517.3437 230.64062 516.12494 230.64062Q514.95306 230.64062 514.18744 229.96875Q513.4218 229.29688 513.2968 228.21875Z" fill-rule="nonzero"/><path fill="#000000" d="M295.95312 346.075L295.95312 345.075L299.57812 345.0594L299.57812 348.2469Q298.75 348.91876 297.85938 349.2625Q296.96875 349.59064 296.03125 349.59064Q294.76562 349.59064 293.71875 349.0594Q292.6875 348.5125 292.15625 347.4969Q291.64062 346.46564 291.64062 345.2Q291.64062 343.9344 292.15625 342.85626Q292.6875 341.7625 293.67188 341.2469Q294.65625 340.71564 295.9375 340.71564Q296.875 340.71564 297.625 341.0125Q298.375 341.3094 298.79688 341.85626Q299.23438 342.3875 299.45312 343.2625L298.4375 343.54376Q298.23438 342.8875 297.9375 342.5125Q297.65625 342.1375 297.125 341.91876Q296.59375 341.6844 295.95312 341.6844Q295.17188 341.6844 294.59375 341.91876Q294.03125 342.15314 293.67188 342.54376Q293.32812 342.9344 293.14062 343.40314Q292.8125 344.2 292.8125 345.1219Q292.8125 346.27814 293.20312 347.0594Q293.60938 347.825 294.35938 348.2Q295.10938 348.575 295.96875 348.575Q296.70312 348.575 297.40625 348.29376Q298.10938 347.9969 298.46875 347.6844L298.46875 346.075L295.95312 346.075ZM300.98438 349.45L300.98438 340.85626L306.78125 340.85626L306.78125 341.8719L302.125 341.8719L302.125 344.52814L306.15625 344.52814L306.15625 345.54376L302.125 345.54376L302.125 349.45L300.98438 349.45ZM307.875 349.45L307.875 340.85626L309.01562 340.85626L309.01562 348.4344L313.25 348.4344L313.25 349.45L307.875 349.45ZM314.57812 345.2625Q314.57812 343.1219 315.71875 341.91876Q316.875 340.7 318.6875 340.7Q319.89062 340.7 320.84375 341.27814Q321.79688 341.84064 322.29688 342.85626Q322.79688 343.8719 322.79688 345.16876Q322.79688 346.46564 322.26562 347.4969Q321.73438 348.52814 320.76562 349.0594Q319.8125 349.59064 318.6875 349.59064Q317.46875 349.59064 316.51562 349.0125Q315.5625 348.41876 315.0625 347.41876Q314.57812 346.40314 314.57812 345.2625ZM315.75 345.27814Q315.75 346.84064 316.57812 347.73126Q317.42188 348.6219 318.6875 348.6219Q319.96875 348.6219 320.79688 347.73126Q321.625 346.825 321.625 345.15314Q321.625 344.10626 321.26562 343.325Q320.92188 342.54376 320.23438 342.1219Q319.54688 341.6844 318.70312 341.6844Q317.5 341.6844 316.625 342.5125Q315.75 343.34064 315.75 345.27814ZM323.92188 349.45L323.92188 340.85626L327.17188 340.85626Q328.01562 340.85626 328.46875 340.9344Q329.10938 341.04376 329.53125 341.34064Q329.96875 341.6375 330.21875 342.16876Q330.48438 342.7 330.48438 343.34064Q330.48438 344.4344 329.78125 345.2Q329.09375 345.95 327.26562 345.95L325.0625 345.95L325.0625 349.45L323.92188 349.45ZM325.0625 344.95L327.28125 344.95Q328.39062 344.95 328.84375 344.54376Q329.3125 344.1219 329.3125 343.3719Q329.3125 342.84064 329.03125 342.46564Q328.76562 342.075 328.32812 341.95Q328.03125 341.8719 327.26562 341.8719L325.0625 341.8719L325.0625 344.95ZM331.0 349.59064L333.48438 340.71564L334.32812 340.71564L331.84375 349.59064L331.0 349.59064ZM334.375 347.59064L335.40625 347.4344Q335.5 348.0594 335.89062 348.3875Q336.29688 348.71564 337.03125 348.71564Q337.75 348.71564 338.09375 348.4344Q338.45312 348.1375 338.45312 347.73126Q338.45312 347.3719 338.14062 347.16876Q337.92188 347.02814 337.0625 346.8094Q335.90625 346.5125 335.45312 346.3094Q335.01562 346.09064 334.78125 345.71564Q334.54688 345.34064 334.54688 344.8719Q334.54688 344.46564 334.73438 344.10626Q334.92188 343.7469 335.25 343.5125Q335.5 343.34064 335.92188 343.21564Q336.34375 343.09064 336.84375 343.09064Q337.5625 343.09064 338.10938 343.3094Q338.67188 343.5125 338.9375 343.8719Q339.20312 344.23126 339.29688 344.825L338.26562 344.96564Q338.20312 344.4969 337.85938 344.23126Q337.53125 343.95 336.90625 343.95Q336.1875 343.95 335.875 344.2Q335.5625 344.4344 335.5625 344.7625Q335.5625 344.96564 335.6875 345.1219Q335.82812 345.29376 336.09375 345.40314Q336.25 345.46564 337.03125 345.66876Q338.15625 345.98126 338.59375 346.16876Q339.03125 346.35626 339.28125 346.71564Q339.53125 347.075 339.53125 347.6219Q339.53125 348.15314 339.21875 348.6219Q338.92188 349.075 338.34375 349.34064Q337.76562 349.59064 337.03125 349.59064Q335.8125 349.59064 335.17188 349.09064Q334.54688 348.575 334.375 347.59064Z" fill-rule="nonzero"/><path fill="#000000" d="M29.550013 226.1323L20.956263 226.1323L20.956263 220.33542L21.971888 220.33542L21.971888 224.99167L24.628138 224.99167L24.628138 220.96042L25.643763 220.96042L25.643763 224.99167L29.550013 224.99167L29.550013 226.1323ZM29.550013 219.1948L20.956263 219.1948L20.956263 215.9448Q20.956263 215.10104 21.034388 214.64792Q21.143763 214.0073 21.440638 213.58542Q21.737513 213.14792 22.268763 212.89792Q22.800013 212.6323 23.440638 212.6323Q24.534388 212.6323 25.300013 213.33542Q26.050013 214.02292 26.050013 215.85104L26.050013 218.05417L29.550013 218.05417L29.550013 219.1948ZM25.050013 218.05417L25.050013 215.83542Q25.050013 214.72604 24.643763 214.27292Q24.221888 213.80417 23.471888 213.80417Q22.940638 213.80417 22.565638 214.08542Q22.175013 214.35104 22.050013 214.78854Q21.971888 215.08542 21.971888 215.85104L21.971888 218.05417L25.050013 218.05417ZM23.065638 206.14792L23.143763 207.1948Q22.518763 207.33542 22.237513 207.58542Q21.784388 208.02292 21.784388 208.64792Q21.784388 209.14792 22.065638 209.53854Q22.440638 210.02292 23.143763 210.3198Q23.831263 210.60104 25.112513 210.61667Q24.534388 210.24167 24.253138 209.6948Q23.971888 209.1323 23.971888 208.52292Q23.971888 207.47604 24.753138 206.74167Q25.534388 205.99167 26.753138 205.99167Q27.565638 205.99167 28.268763 206.35104Q28.956263 206.6948 29.331263 207.30417Q29.690638 207.91354 29.690638 208.67917Q29.690638 210.0073 28.721888 210.83542Q27.753138 211.66354 25.534388 211.66354Q23.034388 211.66354 21.909388 210.74167Q20.925013 209.9448 20.925013 208.58542Q20.925013 207.5698 21.503138 206.92917Q22.065638 206.27292 23.065638 206.14792ZM26.768763 210.4448Q27.315638 210.4448 27.815638 210.22604Q28.300013 209.99167 28.565638 209.58542Q28.831263 209.16354 28.831263 208.6948Q28.831263 208.03854 28.300013 207.55417Q27.753138 207.0698 26.831263 207.0698Q25.940638 207.0698 25.425013 207.55417Q24.909388 208.02292 24.909388 208.74167Q24.909388 209.46042 25.425013 209.96042Q25.940638 210.4448 26.768763 210.4448ZM29.550013 201.24167L27.487513 201.24167L27.487513 204.96042L26.518763 204.96042L20.956263 201.03854L20.956263 200.17917L26.518763 200.17917L26.518763 199.02292L27.487513 199.02292L27.487513 200.17917L29.550013 200.17917L29.550013 201.24167ZM26.518763 201.24167L22.659388 201.24167L26.518763 203.92917L26.518763 201.24167Z" fill-rule="nonzero"/><path fill="#000000" d="M47.55 313.21564Q47.55 311.6844 47.8625 310.7625Q48.175 309.825 48.784374 309.325Q49.409374 308.825 50.346874 308.825Q51.034374 308.825 51.55 309.10626Q52.08125 309.3875 52.425 309.91876Q52.76875 310.4344 52.95625 311.1844Q53.14375 311.9344 53.14375 313.21564Q53.14375 314.73126 52.83125 315.65314Q52.534374 316.575 51.909374 317.09064Q51.3 317.59064 50.346874 317.59064Q49.1125 317.59064 48.39375 316.7Q47.55 315.6375 47.55 313.21564ZM48.628124 313.21564Q48.628124 315.325 49.128124 316.02814Q49.628124 316.73126 50.346874 316.73126Q51.08125 316.73126 51.565624 316.02814Q52.065624 315.325 52.065624 313.21564Q52.065624 311.09064 51.565624 310.40314Q51.08125 309.7 50.33125 309.7Q49.6125 309.7 49.175 310.3094Q48.628124 311.09064 48.628124 313.21564Z" fill-rule="nonzero"/><path fill="#000000" d="M182.32187 316.4344L182.32187 317.45L176.63437 317.45Q176.63437 317.075 176.75937 316.71564Q176.97812 316.1375 177.44687 315.575Q177.93124 315.0125 178.8375 314.27814Q180.24374 313.1219 180.72812 312.45Q181.22812 311.77814 181.22812 311.1844Q181.22812 310.5594 180.775 310.1375Q180.32187 309.7 179.60312 309.7Q178.8375 309.7 178.38437 310.15314Q177.93124 310.60626 177.91562 311.41876L176.8375 311.3094Q176.94687 310.09064 177.66562 309.46564Q178.4 308.825 179.63437 308.825Q180.86874 308.825 181.5875 309.5125Q182.30624 310.2 182.30624 311.21564Q182.30624 311.73126 182.0875 312.23126Q181.88437 312.71564 181.38437 313.27814Q180.9 313.825 179.775 314.77814Q178.82187 315.575 178.54062 315.8719Q178.275 316.15314 178.10312 316.4344L182.32187 316.4344ZM183.775 315.2L184.88437 315.10626Q185.00937 315.91876 185.44687 316.325Q185.9 316.73126 186.54062 316.73126Q187.29062 316.73126 187.82187 316.15314Q188.35312 315.575 188.35312 314.6375Q188.35312 313.73126 187.8375 313.21564Q187.3375 312.6844 186.50937 312.6844Q186.00937 312.6844 185.5875 312.91876Q185.18124 313.15314 184.94687 313.5125L183.9625 313.3875L184.79062 308.98126L189.07187 308.98126L189.07187 309.98126L185.63437 309.98126L185.18124 312.29376Q185.94687 311.7469 186.79062 311.7469Q187.91562 311.7469 188.68124 312.52814Q189.4625 313.3094 189.4625 314.54376Q189.4625 315.7 188.79062 316.5594Q187.9625 317.59064 186.54062 317.59064Q185.36874 317.59064 184.61874 316.9344Q183.88437 316.27814 183.775 315.2Z" fill-rule="nonzero"/><path fill="#000000" d="M309.5 315.2L310.60938 315.10626Q310.73438 315.91876 311.17188 316.325Q311.625 316.73126 312.26562 316.73126Q313.01562 316.73126 313.54688 316.15314Q314.07812 315.575 314.07812 314.6375Q314.07812 313.73126 313.5625 313.21564Q313.0625 312.6844 312.23438 312.6844Q311.73438 312.6844 311.3125 312.91876Q310.90625 313.15314 310.67188 313.5125L309.6875 313.3875L310.51562 308.98126L314.79688 308.98126L314.79688 309.98126L311.35938 309.98126L310.90625 312.29376Q311.67188 311.7469 312.51562 311.7469Q313.64062 311.7469 314.40625 312.52814Q315.1875 313.3094 315.1875 314.54376Q315.1875 315.7 314.51562 316.5594Q313.6875 317.59064 312.26562 317.59064Q311.09375 317.59064 310.34375 316.9344Q309.60938 316.27814 309.5 315.2ZM316.5 313.21564Q316.5 311.6844 316.8125 310.7625Q317.125 309.825 317.73438 309.325Q318.35938 308.825 319.29688 308.825Q319.98438 308.825 320.5 309.10626Q321.03125 309.3875 321.375 309.91876Q321.71875 310.4344 321.90625 311.1844Q322.09375 311.9344 322.09375 313.21564Q322.09375 314.73126 321.78125 315.65314Q321.48438 316.575 320.85938 317.09064Q320.25 317.59064 319.29688 317.59064Q318.0625 317.59064 317.34375 316.7Q316.5 315.6375 316.5 313.21564ZM317.57812 313.21564Q317.57812 315.325 318.07812 316.02814Q318.57812 316.73126 319.29688 316.73126Q320.03125 316.73126 320.51562 316.02814Q321.01562 315.325 321.01562 313.21564Q321.01562 311.09064 320.51562 310.40314Q320.03125 309.7 319.28125 309.7Q318.5625 309.7 318.125 310.3094Q317.57812 311.09064 317.57812 313.21564Z" fill-rule="nonzero"/><path fill="#000000" d="M442.2875 309.98126L442.2875 308.96564L447.85 308.96564L447.85 309.79376Q447.0375 310.66876 446.225 312.1219Q445.42813 313.5594 444.99063 315.09064Q444.6625 316.16876 444.58438 317.45L443.49063 317.45Q443.50626 316.4344 443.88126 314.9969Q444.27188 313.5594 444.975 312.23126Q445.69376 310.90314 446.50626 309.98126L442.2875 309.98126ZM449.225 315.2L450.33438 315.10626Q450.45938 315.91876 450.89688 316.325Q451.35 316.73126 451.99063 316.73126Q452.74063 316.73126 453.27188 316.15314Q453.80313 315.575 453.80313 314.6375Q453.80313 313.73126 453.2875 313.21564Q452.7875 312.6844 451.95938 312.6844Q451.45938 312.6844 451.0375 312.91876Q450.63126 313.15314 450.39688 313.5125L449.4125 313.3875L450.24063 308.98126L454.52188 308.98126L454.52188 309.98126L451.08438 309.98126L450.63126 312.29376Q451.39688 311.7469 452.24063 311.7469Q453.36563 311.7469 454.13126 312.52814Q454.9125 313.3094 454.9125 314.54376Q454.9125 315.7 454.24063 316.5594Q453.4125 317.59064 451.99063 317.59064Q450.81876 317.59064 450.06876 316.9344Q449.33438 316.27814 449.225 315.2Z" fill-rule="nonzero"/><path fill="#000000" d="M575.41876 317.45L574.3719 317.45L574.3719 310.73126Q573.98126 311.09064 573.35626 311.46564Q572.7469 311.825 572.2625 311.9969L572.2625 310.98126Q573.1375 310.5594 573.79376 309.98126Q574.46564 309.3875 574.7469 308.825L575.41876 308.825L575.41876 317.45ZM578.45 313.21564Q578.45 311.6844 578.7625 310.7625Q579.075 309.825 579.6844 309.325Q580.3094 308.825 581.2469 308.825Q581.9344 308.825 582.45 309.10626Q582.98126 309.3875 583.325 309.91876Q583.66876 310.4344 583.85626 311.1844Q584.04376 311.9344 584.04376 313.21564Q584.04376 314.73126 583.73126 315.65314Q583.4344 316.575 582.8094 317.09064Q582.2 317.59064 581.2469 317.59064Q580.0125 317.59064 579.29376 316.7Q578.45 315.6375 578.45 313.21564ZM579.52814 313.21564Q579.52814 315.325 580.02814 316.02814Q580.52814 316.73126 581.2469 316.73126Q581.98126 316.73126 582.46564 316.02814Q582.96564 315.325 582.96564 313.21564Q582.96564 311.09064 582.46564 310.40314Q581.98126 309.7 581.23126 309.7Q580.5125 309.7 580.075 310.3094Q579.52814 311.09064 579.52814 313.21564ZM585.45 313.21564Q585.45 311.6844 585.7625 310.7625Q586.075 309.825 586.6844 309.325Q587.3094 308.825 588.2469 308.825Q588.9344 308.825 589.45 309.10626Q589.98126 309.3875 590.325 309.91876Q590.66876 310.4344 590.85626 311.1844Q591.04376 311.9344 591.04376 313.21564Q591.04376 314.73126 590.73126 315.65314Q590.4344 316.575 589.8094 317.09064Q589.2 317.59064 588.2469 317.59064Q587.0125 317.59064 586.29376 316.7Q585.45 315.6375 585.45 313.21564ZM586.52814 313.21564Q586.52814 315.325 587.02814 316.02814Q587.52814 316.73126 588.2469 316.73126Q588.98126 316.73126 589.46564 316.02814Q589.96564 315.325 589.96564 313.21564Q589.96564 311.09064 589.46564 310.40314Q588.98126 309.7 588.23126 309.7Q587.5125 309.7 587.075 310.3094Q586.52814 311.09064 586.52814 313.21564Z" fill-rule="nonzero"/><path fill="#4285f4" d="M210.0 80.416664C210.0 79.86438 210.44771 79.416664 211.0 79.416664L221.0 79.416664C221.55229 79.416664 222.0 79.86438 222.0 80.416664L222.0 90.416664C222.0 90.96895 221.55229 91.416664 221.0 91.416664L211.0 91.416664C210.44771 91.416664 210.0 90.96895 210.0 90.416664Z" fill-rule="nonzero"/><path fill="#1a1a1a" d="M230.9375 89.416664L230.9375 80.822914L234.75 80.822914Q235.90625 80.822914 236.5 81.05729Q237.09375 81.291664 237.45312 81.885414Q237.8125 82.46354 237.8125 83.166664Q237.8125 84.08854 237.21875 84.71354Q236.625 85.33854 235.39062 85.510414Q235.84375 85.729164 236.07812 85.93229Q236.57812 86.385414 237.01562 87.072914L238.51562 89.416664L237.07812 89.416664L235.95312 87.635414Q235.45312 86.854164 235.125 86.447914Q234.8125 86.041664 234.54688 85.885414Q234.29688 85.71354 234.03125 85.635414Q233.84375 85.604164 233.40625 85.604164L232.07812 85.604164L232.07812 89.416664L230.9375 89.416664ZM232.07812 84.61979L234.53125 84.61979Q235.29688 84.61979 235.73438 84.46354Q236.1875 84.291664 236.40625 83.947914Q236.64062 83.58854 236.64062 83.166664Q236.64062 82.55729 236.1875 82.166664Q235.75 81.77604 234.79688 81.77604L232.07812 81.77604L232.07812 84.61979ZM243.875 89.416664L243.875 88.49479Q243.14062 89.55729 241.89062 89.55729Q241.34375 89.55729 240.85938 89.354164Q240.39062 89.135414 240.15625 88.822914Q239.92188 88.49479 239.82812 88.02604Q239.76562 87.729164 239.76562 87.041664L239.76562 83.197914L240.82812 83.197914L240.82812 86.65104Q240.82812 87.46354 240.89062 87.760414Q240.98438 88.166664 241.29688 88.416664Q241.625 88.65104 242.10938 88.65104Q242.57812 88.65104 242.98438 88.416664Q243.40625 88.166664 243.57812 87.74479Q243.76562 87.322914 243.76562 86.52604L243.76562 83.197914L244.8125 83.197914L244.8125 89.416664L243.875 89.416664ZM246.375 87.55729L247.40625 87.40104Q247.5 88.02604 247.89062 88.354164Q248.29688 88.68229 249.03125 88.68229Q249.75 88.68229 250.09375 88.40104Q250.45312 88.104164 250.45312 87.697914Q250.45312 87.33854 250.14062 87.135414Q249.92188 86.99479 249.0625 86.77604Q247.90625 86.479164 247.45312 86.27604Q247.01562 86.05729 246.78125 85.68229Q246.54688 85.30729 246.54688 84.83854Q246.54688 84.43229 246.73438 84.072914Q246.92188 83.71354 247.25 83.479164Q247.5 83.30729 247.92188 83.18229Q248.34375 83.05729 248.84375 83.05729Q249.5625 83.05729 250.10938 83.27604Q250.67188 83.479164 250.9375 83.83854Q251.20312 84.197914 251.29688 84.791664L250.26562 84.93229Q250.20312 84.46354 249.85938 84.197914Q249.53125 83.916664 248.90625 83.916664Q248.1875 83.916664 247.875 84.166664Q247.5625 84.40104 247.5625 84.729164Q247.5625 84.93229 247.6875 85.08854Q247.82812 85.260414 248.09375 85.36979Q248.25 85.43229 249.03125 85.635414Q250.15625 85.947914 250.59375 86.135414Q251.03125 86.322914 251.28125 86.68229Q251.53125 87.041664 251.53125 87.58854Q251.53125 88.11979 251.21875 88.58854Q250.92188 89.041664 250.34375 89.30729Q249.76562 89.55729 249.03125 89.55729Q247.8125 89.55729 247.17188 89.05729Q246.54688 88.541664 246.375 87.55729ZM256.09375 88.479164L256.25 89.40104Q255.79688 89.49479 255.45312 89.49479Q254.875 89.49479 254.5625 89.322914Q254.25 89.135414 254.10938 88.83854Q253.98438 88.541664 253.98438 87.58854L253.98438 84.010414L253.21875 84.010414L253.21875 83.197914L253.98438 83.197914L253.98438 81.65104L255.03125 81.02604L255.03125 83.197914L256.09375 83.197914L256.09375 84.010414L255.03125 84.010414L255.03125 87.65104Q255.03125 88.104164 255.07812 88.229164Q255.14062 88.354164 255.26562 88.43229Q255.39062 88.510414 255.625 88.510414Q255.8125 88.510414 256.09375 88.479164ZM256.375 86.83854L256.375 85.77604L259.625 85.77604L259.625 86.83854L256.375 86.83854ZM267.0625 86.40104L268.1875 86.697914Q267.82812 88.08854 266.90625 88.822914Q265.98438 89.55729 264.64062 89.55729Q263.25 89.55729 262.375 88.99479Q261.5 88.43229 261.04688 87.36979Q260.59375 86.291664 260.59375 85.05729Q260.59375 83.71354 261.10938 82.71354Q261.625 81.71354 262.5625 81.197914Q263.51562 80.68229 264.65625 80.68229Q265.9375 80.68229 266.8125 81.33854Q267.70312 81.99479 268.04688 83.18229L266.92188 83.447914Q266.625 82.510414 266.04688 82.08854Q265.48438 81.65104 264.625 81.65104Q263.64062 81.65104 262.96875 82.135414Q262.3125 82.604164 262.03125 83.40104Q261.76562 84.197914 261.76562 85.05729Q261.76562 86.15104 262.07812 86.96354Q262.40625 87.77604 263.07812 88.18229Q263.75 88.58854 264.54688 88.58854Q265.5 88.58854 266.15625 88.041664Q266.82812 87.49479 267.0625 86.40104ZM275.5625 80.822914L276.70312 80.822914L276.70312 85.791664Q276.70312 87.08854 276.40625 87.854164Q276.10938 88.604164 275.34375 89.08854Q274.57812 89.55729 273.34375 89.55729Q272.14062 89.55729 271.35938 89.15104Q270.59375 88.729164 270.26562 87.947914Q269.9375 87.15104 269.9375 85.791664L269.9375 80.822914L271.07812 80.822914L271.07812 85.77604Q271.07812 86.90104 271.28125 87.43229Q271.5 87.96354 272.0 88.260414Q272.51562 88.541664 273.25 88.541664Q274.5 88.541664 275.03125 87.979164Q275.5625 87.40104 275.5625 85.77604L275.5625 80.822914ZM278.92188 89.416664L278.92188 80.822914L281.89062 80.822914Q282.89062 80.822914 283.42188 80.947914Q284.15625 81.11979 284.67188 81.55729Q285.35938 82.135414 285.6875 83.041664Q286.03125 83.93229 286.03125 85.072914Q286.03125 86.05729 285.79688 86.80729Q285.57812 87.55729 285.21875 88.05729Q284.85938 88.55729 284.42188 88.83854Q284.0 89.11979 283.40625 89.27604Q282.8125 89.416664 282.03125 89.416664L278.92188 89.416664ZM280.0625 88.40104L281.89062 88.40104Q282.75 88.40104 283.23438 88.24479Q283.71875 88.08854 284.0 87.791664Q284.40625 87.40104 284.625 86.71354Q284.85938 86.02604 284.85938 85.05729Q284.85938 83.71354 284.40625 82.99479Q283.96875 82.260414 283.34375 82.010414Q282.875 81.83854 281.875 81.83854L280.0625 81.83854L280.0625 88.40104ZM286.98438 89.416664L290.28125 80.822914L291.5 80.822914L295.01562 89.416664L293.73438 89.416664L292.71875 86.80729L289.14062 86.80729L288.1875 89.416664L286.98438 89.416664ZM289.46875 85.885414L292.375 85.885414L291.48438 83.510414Q291.0625 82.43229 290.875 81.729164Q290.70312 82.55729 290.40625 83.36979L289.46875 85.885414Z" fill-rule="nonzero"/><path fill="#ea4335" d="M310.0 80.416664C310.0 79.86438 310.44772 79.416664 311.0 79.416664L321.0 79.416664C321.55228 79.416664 322.0 79.86438 322.0 80.416664L322.0 90.416664C322.0 90.96895 321.55228 91.416664 321.0 91.416664L311.0 91.416664C310.44772 91.416664 310.0 90.96895 310.0 90.416664Z" fill-rule="nonzero"/><path fill="#1a1a1a" d="M337.0625 86.40104L338.1875 86.697914Q337.82812 88.08854 336.90625 88.822914Q335.98438 89.55729 334.64062 89.55729Q333.25 89.55729 332.375 88.99479Q331.5 88.43229 331.04688 87.36979Q330.59375 86.291664 330.59375 85.05729Q330.59375 83.71354 331.10938 82.71354Q331.625 81.71354 332.5625 81.197914Q333.51562 80.68229 334.65625 80.68229Q335.9375 80.68229 336.8125 81.33854Q337.70312 81.99479 338.04688 83.18229L336.92188 83.447914Q336.625 82.510414 336.04688 82.08854Q335.48438 81.65104 334.625 81.65104Q333.64062 81.65104 332.96875 82.135414Q332.3125 82.604164 332.03125 83.40104Q331.76562 84.197914 331.76562 85.05729Q331.76562 86.15104 332.07812 86.96354Q332.40625 87.77604 333.07812 88.18229Q333.75 88.58854 334.54688 88.58854Q335.5 88.58854 336.15625 88.041664Q336.82812 87.49479 337.0625 86.40104ZM345.5625 80.822914L346.70312 80.822914L346.70312 85.791664Q346.70312 87.08854 346.40625 87.854164Q346.10938 88.604164 345.34375 89.08854Q344.57812 89.55729 343.34375 89.55729Q342.14062 89.55729 341.35938 89.15104Q340.59375 88.729164 340.26562 87.947914Q339.9375 87.15104 339.9375 85.791664L339.9375 80.822914L341.07812 80.822914L341.07812 85.77604Q341.07812 86.90104 341.28125 87.43229Q341.5 87.96354 342.0 88.260414Q342.51562 88.541664 343.25 88.541664Q344.5 88.541664 345.03125 87.979164Q345.5625 87.40104 345.5625 85.77604L345.5625 80.822914ZM348.92188 89.416664L348.92188 80.822914L351.89062 80.822914Q352.89062 80.822914 353.42188 80.947914Q354.15625 81.11979 354.67188 81.55729Q355.35938 82.135414 355.6875 83.041664Q356.03125 83.93229 356.03125 85.072914Q356.03125 86.05729 355.79688 86.80729Q355.57812 87.55729 355.21875 88.05729Q354.85938 88.55729 354.42188 88.83854Q354.0 89.11979 353.40625 89.27604Q352.8125 89.416664 352.03125 89.416664L348.92188 89.416664ZM350.0625 88.40104L351.89062 88.40104Q352.75 88.40104 353.23438 88.24479Q353.71875 88.08854 354.0 87.791664Q354.40625 87.40104 354.625 86.71354Q354.85938 86.02604 354.85938 85.05729Q354.85938 83.71354 354.40625 82.99479Q353.96875 82.260414 353.34375 82.010414Q352.875 81.83854 351.875 81.83854L350.0625 81.83854L350.0625 88.40104ZM356.98438 89.416664L360.28125 80.822914L361.5 80.822914L365.01562 89.416664L363.73438 89.416664L362.71875 86.80729L359.14062 86.80729L358.1875 89.416664L356.98438 89.416664ZM359.46875 85.885414L362.375 85.885414L361.48438 83.510414Q361.0625 82.43229 360.875 81.729164Q360.70312 82.55729 360.40625 83.36979L359.46875 85.885414ZM374.0625 86.40104L375.1875 86.697914Q374.82812 88.08854 373.90625 88.822914Q372.98438 89.55729 371.64062 89.55729Q370.25 89.55729 369.375 88.99479Q368.5 88.43229 368.04688 87.36979Q367.59375 86.291664 367.59375 85.05729Q367.59375 83.71354 368.10938 82.71354Q368.625 81.71354 369.5625 81.197914Q370.51562 80.68229 371.65625 80.68229Q372.9375 80.68229 373.8125 81.33854Q374.70312 81.99479 375.04688 83.18229L373.92188 83.447914Q373.625 82.510414 373.04688 82.08854Q372.48438 81.65104 371.625 81.65104Q370.64062 81.65104 369.96875 82.135414Q369.3125 82.604164 369.03125 83.40104Q368.76562 84.197914 368.76562 85.05729Q368.76562 86.15104 369.07812 86.96354Q369.40625 87.77604 370.07812 88.18229Q370.75 88.58854 371.54688 88.58854Q372.5 88.58854 373.15625 88.041664Q373.82812 87.49479 374.0625 86.40104ZM379.0 88.02604L379.0 85.666664L376.67188 85.666664L376.67188 84.68229L379.0 84.68229L379.0 82.354164L380.0 82.354164L380.0 84.68229L382.34375 84.68229L382.34375 85.666664L380.0 85.666664L380.0 88.02604L379.0 88.02604ZM386.0 88.02604L386.0 85.666664L383.67188 85.666664L383.67188 84.68229L386.0 84.68229L386.0 82.354164L387.0 82.354164L387.0 84.68229L389.34375 84.68229L389.34375 85.666664L387.0 85.666664L387.0 88.02604L386.0 88.02604Z" fill-rule="nonzero"/><path fill="#999999" d="M19.628124 63.05L19.628124 53.034374L23.08125 53.034374Q24.253124 53.034374 24.8625 53.175Q25.721874 53.3625 26.33125 53.89375Q27.128124 54.565624 27.51875 55.6125Q27.909374 56.64375 27.909374 57.9875Q27.909374 59.128124 27.64375 60.01875Q27.378124 60.89375 26.95625 61.471874Q26.55 62.05 26.05 62.378124Q25.55 62.70625 24.846874 62.878124Q24.159374 63.05 23.253124 63.05L19.628124 63.05ZM20.95625 61.8625L23.096874 61.8625Q24.08125 61.8625 24.64375 61.690624Q25.221874 61.503124 25.55 61.159374Q26.01875 60.690624 26.284374 59.89375Q26.55 59.096874 26.55 57.95625Q26.55 56.39375 26.034374 55.55Q25.51875 54.70625 24.784374 54.409374Q24.2375 54.20625 23.065624 54.20625L20.95625 54.20625L20.95625 61.8625ZM34.315624 59.1125L34.315624 57.940624L38.565624 57.940624L38.565624 61.659374Q37.58125 62.440624 36.534374 62.83125Q35.503124 63.221874 34.409374 63.221874Q32.940624 63.221874 31.721874 62.596874Q30.51875 61.95625 29.909374 60.76875Q29.3 59.565624 29.3 58.08125Q29.3 56.628124 29.909374 55.3625Q30.51875 54.08125 31.659374 53.471874Q32.815624 52.8625 34.315624 52.8625Q35.39375 52.8625 36.26875 53.221874Q37.159374 53.565624 37.659374 54.190624Q38.159374 54.815624 38.409374 55.83125L37.221874 56.159374Q36.9875 55.39375 36.64375 54.95625Q36.315624 54.51875 35.690624 54.253124Q35.08125 53.9875 34.315624 53.9875Q33.409374 53.9875 32.7375 54.26875Q32.08125 54.55 31.675 55.003124Q31.26875 55.440624 31.05 55.9875Q30.659374 56.925 30.659374 58.003124Q30.659374 59.346874 31.1125 60.253124Q31.58125 61.14375 32.45625 61.58125Q33.346874 62.01875 34.346874 62.01875Q35.20625 62.01875 36.01875 61.690624Q36.846874 61.3625 37.26875 60.9875L37.26875 59.1125L34.315624 59.1125ZM40.659374 63.05L40.659374 53.034374L47.909374 53.034374L47.909374 54.20625L41.9875 54.20625L41.9875 57.284374L47.534374 57.284374L47.534374 58.45625L41.9875 58.45625L41.9875 61.8625L48.14375 61.8625L48.14375 63.05L40.659374 63.05ZM49.596874 63.05L49.596874 53.034374L51.58125 53.034374L53.95625 60.128124Q54.284374 61.1125 54.440624 61.6125Q54.6125 61.065624 54.971874 60.003124L57.3625 53.034374L59.159374 53.034374L59.159374 63.05L57.878124 63.05L57.878124 54.659374L54.95625 63.05L53.76875 63.05L50.8625 54.51875L50.8625 63.05L49.596874 63.05ZM60.596874 63.05L60.596874 53.034374L62.58125 53.034374L64.95625 60.128124Q65.28438 61.1125 65.44063 61.6125Q65.6125 61.065624 65.97188 60.003124L68.3625 53.034374L70.15938 53.034374L70.15938 63.05L68.87813 63.05L68.87813 54.659374L65.95625 63.05L64.76875 63.05L61.8625 54.51875L61.8625 63.05L60.596874 63.05ZM81.59688 61.8625L81.59688 63.05L74.97188 63.05Q74.95625 62.6125 75.1125 62.190624Q75.37813 61.51875 75.925 60.8625Q76.4875 60.20625 77.53438 59.346874Q79.175 58.003124 79.7375 57.221874Q80.31563 56.440624 80.31563 55.7375Q80.31563 55.003124 79.78438 54.503124Q79.26875 54.003124 78.44063 54.003124Q77.55 54.003124 77.00313 54.534374Q76.47188 55.065624 76.47188 56.01875L75.20625 55.878124Q75.33125 54.471874 76.175 53.7375Q77.03438 52.9875 78.45625 52.9875Q79.90938 52.9875 80.7375 53.784374Q81.58125 54.58125 81.58125 55.76875Q81.58125 56.378124 81.33125 56.95625Q81.09688 57.534374 80.51875 58.175Q79.95625 58.815624 78.62813 59.940624Q77.51875 60.8625 77.20625 61.20625Q76.89375 61.534374 76.69063 61.8625L81.59688 61.8625ZM83.12813 58.1125Q83.12813 56.33125 83.4875 55.253124Q83.8625 54.159374 84.58125 53.58125Q85.3 52.9875 86.39375 52.9875Q87.20625 52.9875 87.81563 53.315624Q88.425 53.64375 88.81563 54.253124Q89.22188 54.8625 89.44063 55.7375Q89.65938 56.6125 89.65938 58.1125Q89.65938 59.878124 89.3 60.95625Q88.94063 62.034374 88.22188 62.628124Q87.50313 63.221874 86.39375 63.221874Q84.95625 63.221874 84.12813 62.175Q83.12813 60.925 83.12813 58.1125ZM84.39375 58.1125Q84.39375 60.58125 84.97188 61.39375Q85.55 62.20625 86.39375 62.20625Q87.25313 62.20625 87.83125 61.39375Q88.40938 60.565624 88.40938 58.1125Q88.40938 55.628124 87.83125 54.815624Q87.25313 54.003124 86.37813 54.003124Q85.53438 54.003124 85.03438 54.721874Q84.39375 55.64375 84.39375 58.1125ZM95.08125 63.05L95.08125 60.64375L90.72188 60.64375L90.72188 59.51875L95.3 53.034374L96.3 53.034374L96.3 59.51875L97.65938 59.51875L97.65938 60.64375L96.3 60.64375L96.3 63.05L95.08125 63.05ZM95.08125 59.51875L95.08125 55.003124L91.94063 59.51875L95.08125 59.51875ZM101.01875 57.6125Q100.25313 57.33125 99.87813 56.815624Q99.51875 56.3 99.51875 55.565624Q99.51875 54.471874 100.3 53.7375Q101.09688 52.9875 102.39375 52.9875Q103.70625 52.9875 104.50313 53.753124Q105.31563 54.51875 105.31563 55.6125Q105.31563 56.3 104.94063 56.815624Q104.58125 57.33125 103.83125 57.6125Q104.75313 57.909374 105.2375 58.58125Q105.72188 59.253124 105.72188 60.190624Q105.72188 61.471874 104.81563 62.346874Q103.90938 63.221874 102.425 63.221874Q100.94063 63.221874 100.01875 62.346874Q99.1125 61.45625 99.1125 60.14375Q99.1125 59.175 99.6125 58.51875Q100.1125 57.846874 101.01875 57.6125ZM100.78438 55.534374Q100.78438 56.2375 101.2375 56.690624Q101.69063 57.14375 102.425 57.14375Q103.14375 57.14375 103.59688 56.70625Q104.05 56.253124 104.05 55.596874Q104.05 54.925 103.58125 54.471874Q103.1125 54.003124 102.40938 54.003124Q101.70625 54.003124 101.2375 54.45625Q100.78438 54.89375 100.78438 55.534374ZM100.37813 60.159374Q100.37813 60.690624 100.62813 61.190624Q100.87813 61.675 101.3625 61.940624Q101.8625 62.20625 102.44063 62.20625Q103.31563 62.20625 103.87813 61.64375Q104.45625 61.08125 104.45625 60.20625Q104.45625 59.315624 103.8625 58.7375Q103.28438 58.14375 102.39375 58.14375Q101.51875 58.14375 100.94063 58.721874Q100.37813 59.3 100.37813 60.159374ZM106.65938 63.05L109.3 59.26875L106.84688 55.784374L108.39375 55.784374L109.50313 57.4875Q109.81563 57.971874 110.00313 58.3Q110.31563 57.846874 110.56563 57.503124L111.78438 55.784374L113.25313 55.784374L110.75313 59.20625L113.44063 63.05L111.94063 63.05L110.44063 60.8L110.05 60.190624L108.14375 63.05L106.65938 63.05ZM119.59688 61.8625L119.59688 63.05L112.97188 63.05Q112.95625 62.6125 113.1125 62.190624Q113.37813 61.51875 113.925 60.8625Q114.4875 60.20625 115.53438 59.346874Q117.175 58.003124 117.7375 57.221874Q118.31563 56.440624 118.31563 55.7375Q118.31563 55.003124 117.78438 54.503124Q117.26875 54.003124 116.44063 54.003124Q115.55 54.003124 115.00313 54.534374Q114.47188 55.065624 114.47188 56.01875L113.20625 55.878124Q113.33125 54.471874 114.175 53.7375Q115.03438 52.9875 116.45625 52.9875Q117.90938 52.9875 118.7375 53.784374Q119.58125 54.58125 119.58125 55.76875Q119.58125 56.378124 119.33125 56.95625Q119.09688 57.534374 118.51875 58.175Q117.95625 58.815624 116.62813 59.940624Q115.51875 60.8625 115.20625 61.20625Q114.89375 61.534374 114.69063 61.8625L119.59688 61.8625ZM121.12813 58.1125Q121.12813 56.33125 121.4875 55.253124Q121.8625 54.159374 122.58125 53.58125Q123.3 52.9875 124.39375 52.9875Q125.20625 52.9875 125.81563 53.315624Q126.425 53.64375 126.81563 54.253124Q127.22188 54.8625 127.44063 55.7375Q127.65938 56.6125 127.65938 58.1125Q127.65938 59.878124 127.3 60.95625Q126.94063 62.034374 126.22188 62.628124Q125.50313 63.221874 124.39375 63.221874Q122.95625 63.221874 122.12813 62.175Q121.12813 60.925 121.12813 58.1125ZM122.39375 58.1125Q122.39375 60.58125 122.97188 61.39375Q123.55 62.20625 124.39375 62.20625Q125.25313 62.20625 125.83125 61.39375Q126.40938 60.565624 126.40938 58.1125Q126.40938 55.628124 125.83125 54.815624Q125.25313 54.003124 124.37813 54.003124Q123.53438 54.003124 123.03438 54.721874Q122.39375 55.64375 122.39375 58.1125ZM133.08125 63.05L133.08125 60.64375L128.72188 60.64375L128.72188 59.51875L133.3 53.034374L134.3 53.034374L134.3 59.51875L135.65938 59.51875L135.65938 60.64375L134.3 60.64375L134.3 63.05L133.08125 63.05ZM133.08125 59.51875L133.08125 55.003124L129.94063 59.51875L133.08125 59.51875ZM139.01875 57.6125Q138.25313 57.33125 137.87813 56.815624Q137.51875 56.3 137.51875 55.565624Q137.51875 54.471874 138.3 53.7375Q139.09688 52.9875 140.39375 52.9875Q141.70625 52.9875 142.50313 53.753124Q143.31563 54.51875 143.31563 55.6125Q143.31563 56.3 142.94063 56.815624Q142.58125 57.33125 141.83125 57.6125Q142.75313 57.909374 143.2375 58.58125Q143.72188 59.253124 143.72188 60.190624Q143.72188 61.471874 142.81563 62.346874Q141.90938 63.221874 140.425 63.221874Q138.94063 63.221874 138.01875 62.346874Q137.1125 61.45625 137.1125 60.14375Q137.1125 59.175 137.6125 58.51875Q138.1125 57.846874 139.01875 57.6125ZM138.78438 55.534374Q138.78438 56.2375 139.2375 56.690624Q139.69063 57.14375 140.425 57.14375Q141.14375 57.14375 141.59688 56.70625Q142.05 56.253124 142.05 55.596874Q142.05 54.925 141.58125 54.471874Q141.1125 54.003124 140.40938 54.003124Q139.70625 54.003124 139.2375 54.45625Q138.78438 54.89375 138.78438 55.534374ZM138.37813 60.159374Q138.37813 60.690624 138.62813 61.190624Q138.87813 61.675 139.3625 61.940624Q139.8625 62.20625 140.44063 62.20625Q141.31563 62.20625 141.87813 61.64375Q142.45625 61.08125 142.45625 60.20625Q142.45625 59.315624 141.8625 58.7375Q141.28438 58.14375 140.39375 58.14375Q139.51875 58.14375 138.94063 58.721874Q138.37813 59.3 138.37813 60.159374Z" fill-rule="nonzero"/><path fill="#757575" d="M20.128124 37.55L20.128124 23.2375L26.471874 23.2375Q28.378124 23.2375 29.378124 23.628124Q30.378124 24.003124 30.971874 24.9875Q31.565624 25.95625 31.565624 27.14375Q31.565624 28.659374 30.58125 29.70625Q29.596874 30.753124 27.534374 31.034374Q28.284374 31.39375 28.675 31.753124Q29.503124 32.503124 30.253124 33.659374L32.7375 37.55L30.3625 37.55L28.45625 34.565624Q27.628124 33.284374 27.096874 32.596874Q26.565624 31.909374 26.128124 31.64375Q25.70625 31.3625 25.26875 31.253124Q24.940624 31.190624 24.221874 31.190624L22.01875 31.190624L22.01875 37.55L20.128124 37.55ZM22.01875 29.55L26.096874 29.55Q27.39375 29.55 28.1125 29.284374Q28.846874 29.01875 29.221874 28.425Q29.6125 27.83125 29.6125 27.14375Q29.6125 26.128124 28.878124 25.471874Q28.14375 24.815624 26.55 24.815624L22.01875 24.815624L22.01875 29.55ZM40.659374 37.55L40.659374 36.01875Q39.45625 37.784374 37.378124 37.784374Q36.45625 37.784374 35.659374 37.440624Q34.8625 37.08125 34.471874 36.55Q34.096874 36.01875 33.940624 35.2375Q33.83125 34.721874 33.83125 33.596874L33.83125 27.175L35.58125 27.175L35.58125 32.925Q35.58125 34.3 35.690624 34.784374Q35.8625 35.471874 36.39375 35.878124Q36.940624 36.26875 37.721874 36.26875Q38.51875 36.26875 39.20625 35.8625Q39.909374 35.45625 40.190624 34.76875Q40.4875 34.065624 40.4875 32.7375L40.4875 27.175L42.2375 27.175L42.2375 37.55L40.659374 37.55ZM43.159374 34.45625L44.909374 34.175Q45.05 35.221874 45.721874 35.784374Q46.39375 36.33125 47.596874 36.33125Q48.8 36.33125 49.378124 35.846874Q49.971874 35.346874 49.971874 34.690624Q49.971874 34.096874 49.45625 33.753124Q49.096874 33.51875 47.659374 33.159374Q45.721874 32.659374 44.971874 32.315624Q44.2375 31.95625 43.846874 31.33125Q43.45625 30.690624 43.45625 29.925Q43.45625 29.2375 43.76875 28.64375Q44.096874 28.05 44.64375 27.659374Q45.05 27.3625 45.753124 27.159374Q46.471874 26.940624 47.284374 26.940624Q48.503124 26.940624 49.425 27.3Q50.346874 27.64375 50.784374 28.253124Q51.221874 28.846874 51.39375 29.846874L49.675 30.08125Q49.55 29.284374 48.9875 28.846874Q48.425 28.39375 47.409374 28.39375Q46.190624 28.39375 45.675 28.8Q45.159374 29.190624 45.159374 29.721874Q45.159374 30.065624 45.378124 30.346874Q45.58125 30.628124 46.05 30.815624Q46.315624 30.909374 47.596874 31.253124Q49.471874 31.753124 50.20625 32.08125Q50.940624 32.39375 51.3625 33.003124Q51.784374 33.596874 51.784374 34.503124Q51.784374 35.378124 51.26875 36.159374Q50.753124 36.940624 49.784374 37.3625Q48.815624 37.784374 47.596874 37.784374Q45.58125 37.784374 44.51875 36.940624Q43.45625 36.096874 43.159374 34.45625ZM57.70625 35.971874L57.95625 37.534374Q57.221874 37.690624 56.628124 37.690624Q55.675 37.690624 55.14375 37.39375Q54.628124 37.08125 54.409374 36.596874Q54.190624 36.096874 54.190624 34.51875L54.190624 28.55L52.909374 28.55L52.909374 27.175L54.190624 27.175L54.190624 24.6125L55.940624 23.55L55.940624 27.175L57.70625 27.175L57.70625 28.55L55.940624 28.55L55.940624 34.6125Q55.940624 35.3625 56.034374 35.58125Q56.128124 35.784374 56.33125 35.925Q56.55 36.05 56.940624 36.05Q57.221874 36.05 57.70625 35.971874ZM59.190624 33.253124L59.190624 31.4875L64.58125 31.4875L64.58125 33.253124L59.190624 33.253124ZM77.31563 32.534374L79.20625 33.003124Q78.6125 35.346874 77.06563 36.58125Q75.51875 37.8 73.26875 37.8Q70.95625 37.8 69.50313 36.8625Q68.06563 35.909374 67.3 34.128124Q66.55 32.33125 66.55 30.284374Q66.55 28.05 67.39375 26.39375Q68.25313 24.721874 69.83125 23.8625Q71.40938 22.9875 73.3 22.9875Q75.45625 22.9875 76.90938 24.08125Q78.37813 25.175 78.95625 27.159374L77.09688 27.596874Q76.59688 26.034374 75.64375 25.33125Q74.70625 24.6125 73.26875 24.6125Q71.6125 24.6125 70.50313 25.409374Q69.39375 26.190624 68.94063 27.534374Q68.50313 28.8625 68.50313 30.26875Q68.50313 32.096874 69.03438 33.471874Q69.56563 34.83125 70.69063 35.503124Q71.81563 36.175 73.1125 36.175Q74.70625 36.175 75.81563 35.253124Q76.925 34.33125 77.31563 32.534374ZM90.4875 23.2375L92.37813 23.2375L92.37813 31.503124Q92.37813 33.659374 91.89375 34.940624Q91.40938 36.20625 90.12813 37.003124Q88.8625 37.8 86.78438 37.8Q84.76875 37.8 83.4875 37.1125Q82.22188 36.409374 81.675 35.096874Q81.12813 33.784374 81.12813 31.503124L81.12813 23.2375L83.01875 23.2375L83.01875 31.4875Q83.01875 33.3625 83.3625 34.253124Q83.70625 35.128124 84.55 35.6125Q85.39375 36.08125 86.62813 36.08125Q88.70625 36.08125 89.59688 35.14375Q90.4875 34.190624 90.4875 31.4875L90.4875 23.2375ZM94.09688 37.55L94.09688 23.2375L99.01875 23.2375Q100.69063 23.2375 101.58125 23.440624Q102.8 23.721874 103.675 24.45625Q104.8 25.425 105.3625 26.909374Q105.925 28.39375 105.925 30.315624Q105.925 31.940624 105.55 33.20625Q105.175 34.45625 104.56563 35.284374Q103.97188 36.1125 103.26875 36.596874Q102.56563 37.065624 101.56563 37.315624Q100.56563 37.55 99.25313 37.55L94.09688 37.55ZM95.9875 35.8625L99.05 35.8625Q100.45625 35.8625 101.25313 35.596874Q102.06563 35.33125 102.55 34.846874Q103.22188 34.175 103.59688 33.05Q103.97188 31.909374 103.97188 30.284374Q103.97188 28.034374 103.2375 26.83125Q102.50313 25.628124 101.44063 25.221874Q100.69063 24.925 99.00313 24.925L95.9875 24.925L95.9875 35.8625ZM106.51875 37.55L112.01875 23.2375L114.06563 23.2375L119.925 37.55L117.76875 37.55L116.09688 33.20625L110.1125 33.20625L108.53438 37.55L106.51875 37.55ZM110.65938 31.675L115.50313 31.675L114.01875 27.70625Q113.33125 25.89375 113.00313 24.7375Q112.72188 26.1125 112.22188 27.471874L110.65938 31.675ZM129.75313 37.55L125.8 27.175L127.65938 27.175L129.89375 33.39375Q130.25313 34.39375 130.55 35.471874Q130.78438 34.659374 131.20625 33.503124L133.50313 27.175L135.31563 27.175L131.39375 37.55L129.75313 37.55ZM135.15938 34.45625L136.90938 34.175Q137.05 35.221874 137.72188 35.784374Q138.39375 36.33125 139.59688 36.33125Q140.8 36.33125 141.37813 35.846874Q141.97188 35.346874 141.97188 34.690624Q141.97188 34.096874 141.45625 33.753124Q141.09688 33.51875 139.65938 33.159374Q137.72188 32.659374 136.97188 32.315624Q136.2375 31.95625 135.84688 31.33125Q135.45625 30.690624 135.45625 29.925Q135.45625 29.2375 135.76875 28.64375Q136.09688 28.05 136.64375 27.659374Q137.05 27.3625 137.75313 27.159374Q138.47188 26.940624 139.28438 26.940624Q140.50313 26.940624 141.425 27.3Q142.34688 27.64375 142.78438 28.253124Q143.22188 28.846874 143.39375 29.846874L141.675 30.08125Q141.55 29.284374 140.9875 28.846874Q140.425 28.39375 139.40938 28.39375Q138.19063 28.39375 137.675 28.8Q137.15938 29.190624 137.15938 29.721874Q137.15938 30.065624 137.37813 30.346874Q137.58125 30.628124 138.05 30.815624Q138.31563 30.909374 139.59688 31.253124Q141.47188 31.753124 142.20625 32.08125Q142.94063 32.39375 143.3625 33.003124Q143.78438 33.596874 143.78438 34.503124Q143.78438 35.378124 143.26875 36.159374Q142.75313 36.940624 141.78438 37.3625Q140.81563 37.784374 139.59688 37.784374Q137.58125 37.784374 136.51875 36.940624Q135.45625 36.096874 135.15938 34.45625ZM146.3625 37.55L146.3625 35.55L148.3625 35.55L148.3625 37.55L146.3625 37.55ZM168.31563 32.534374L170.20625 33.003124Q169.6125 35.346874 168.06563 36.58125Q166.51875 37.8 164.26875 37.8Q161.95625 37.8 160.50313 36.8625Q159.06563 35.909374 158.3 34.128124Q157.55 32.33125 157.55 30.284374Q157.55 28.05 158.39375 26.39375Q159.25313 24.721874 160.83125 23.8625Q162.40938 22.9875 164.3 22.9875Q166.45625 22.9875 167.90938 24.08125Q169.37813 25.175 169.95625 27.159374L168.09688 27.596874Q167.59688 26.034374 166.64375 25.33125Q165.70625 24.6125 164.26875 24.6125Q162.6125 24.6125 161.50313 25.409374Q160.39375 26.190624 159.94063 27.534374Q159.50313 28.8625 159.50313 30.26875Q159.50313 32.096874 160.03438 33.471874Q160.56563 34.83125 161.69063 35.503124Q162.81563 36.175 164.1125 36.175Q165.70625 36.175 166.81563 35.253124Q167.925 34.33125 168.31563 32.534374ZM181.4875 23.2375L183.37813 23.2375L183.37813 31.503124Q183.37813 33.659374 182.89375 34.940624Q182.40938 36.20625 181.12813 37.003124Q179.8625 37.8 177.78438 37.8Q175.76875 37.8 174.4875 37.1125Q173.22188 36.409374 172.675 35.096874Q172.12813 33.784374 172.12813 31.503124L172.12813 23.2375L174.01875 23.2375L174.01875 31.4875Q174.01875 33.3625 174.3625 34.253124Q174.70625 35.128124 175.55 35.6125Q176.39375 36.08125 177.62813 36.08125Q179.70625 36.08125 180.59688 35.14375Q181.4875 34.190624 181.4875 31.4875L181.4875 23.2375ZM185.09688 37.55L185.09688 23.2375L190.01875 23.2375Q191.69063 23.2375 192.58125 23.440624Q193.8 23.721874 194.675 24.45625Q195.8 25.425 196.3625 26.909374Q196.925 28.39375 196.925 30.315624Q196.925 31.940624 196.55 33.20625Q196.175 34.45625 195.56563 35.284374Q194.97188 36.1125 194.26875 36.596874Q193.56563 37.065624 192.56563 37.315624Q191.56563 37.55 190.25313 37.55L185.09688 37.55ZM186.9875 35.8625L190.05 35.8625Q191.45625 35.8625 192.25313 35.596874Q193.06563 35.33125 193.55 34.846874Q194.22188 34.175 194.59688 33.05Q194.97188 31.909374 194.97188 30.284374Q194.97188 28.034374 194.2375 26.83125Q193.50313 25.628124 192.44063 25.221874Q191.69063 24.925 190.00313 24.925L186.9875 24.925L186.9875 35.8625ZM197.51875 37.55L203.01875 23.2375L205.06563 23.2375L210.925 37.55L208.76875 37.55L207.09688 33.20625L201.1125 33.20625L199.53438 37.55L197.51875 37.55ZM201.65938 31.675L206.50313 31.675L205.01875 27.70625Q204.33125 25.89375 204.00313 24.7375Q203.72188 26.1125 203.22188 27.471874L201.65938 31.675ZM228.31563 32.534374L230.20625 33.003124Q229.6125 35.346874 228.06563 36.58125Q226.51875 37.8 224.26875 37.8Q221.95625 37.8 220.50313 36.8625Q219.06563 35.909374 218.3 34.128124Q217.55 32.33125 217.55 30.284374Q217.55 28.05 218.39375 26.39375Q219.25313 24.721874 220.83125 23.8625Q222.40938 22.9875 224.3 22.9875Q226.45625 22.9875 227.90938 24.08125Q229.37813 25.175 229.95625 27.159374L228.09688 27.596874Q227.59688 26.034374 226.64375 25.33125Q225.70625 24.6125 224.26875 24.6125Q222.6125 24.6125 221.50313 25.409374Q220.39375 26.190624 219.94063 27.534374Q219.50313 28.8625 219.50313 30.26875Q219.50313 32.096874 220.03438 33.471874Q220.56563 34.83125 221.69063 35.503124Q222.81563 36.175 224.1125 36.175Q225.70625 36.175 226.81563 35.253124Q227.925 34.33125 228.31563 32.534374ZM235.56563 35.2375L235.56563 31.315624L231.65938 31.315624L231.65938 29.675L235.56563 29.675L235.56563 25.76875L237.22188 25.76875L237.22188 29.675L241.1125 29.675L241.1125 31.315624L237.22188 31.315624L237.22188 35.2375L235.56563 35.2375ZM247.56563 35.2375L247.56563 31.315624L243.65938 31.315624L243.65938 29.675L247.56563 29.675L247.56563 25.76875L249.22188 25.76875L249.22188 29.675L253.1125 29.675L253.1125 31.315624L249.22188 31.315624L249.22188 35.2375L247.56563 35.2375Z" fill-rule="nonzero"/></svg>