<?xml version="1.0" encoding="utf-8"?>
<!-- Generator: Adobe Illustrator 19.2.1, SVG Export Plug-In . SVG Version: 6.00 Build 0)  -->
<svg version="1.1" id="layer" xmlns="http://www.w3.org/2000/svg" xmlns:xlink="http://www.w3.org/1999/xlink" x="0px" y="0px"
	 viewBox="0 0 652 652" style="enable-background:new 0 0 652 652;" xml:space="preserve">
<style type="text/css">
	.st0{fill:#62003C;}
</style>
<g>
	<circle class="st0" cx="604.4" cy="236" r="16.9"/>
	<circle class="st0" cx="567.7" cy="268.1" r="10.4"/>
	<path class="st0" d="M145.7,394.1c0-8.6-5.8-13.7-15.5-13.7h-18.8v41.1h9v-13h7.2l8.8,13h10.4l-10-14.6
		C142.2,404.7,145.7,400.8,145.7,394.1z M136.6,394.5c0,3.5-2.6,5.8-7,5.8h-9v-11.8h9C133.8,388.5,136.6,390.6,136.6,394.5z
		 M198.8,396.8c-7.2-1.9-8.8-2.8-8.8-5.3c0-2.1,1.9-3.5,5.3-3.5c3.5,0,7,1.6,10.7,3.9l4.6-6.7c-4.2-3.2-9.3-5.1-15.3-5.1
		c-8.4,0-14.4,4.9-14.4,12.3v0.2c0,8.1,5.3,10.4,13.7,12.5c7,1.9,8.4,3,8.4,5.1v0.2c0,2.3-2.3,3.9-5.8,3.9c-4.6,0-8.6-1.9-12.3-4.9
		l-5.3,6.5c4.9,4.4,11.1,6.5,17.4,6.5c8.8,0,15.1-4.6,15.1-12.8v-0.2C211.8,401.9,207.1,398.9,198.8,396.8z M222,398.9h18.1v8.6H222
		V398.9z M74.9,380.1l-17.6,41.3h9.3l3.7-9.3h17.4l3.7,9.3h9.5l-17.6-41.3C83.2,380.1,74.9,380.1,74.9,380.1z M73.5,404.3l5.3-13.2
		l5.3,13.2C84.2,404.3,73.5,404.3,73.5,404.3z M38.2,380.4H21.5v41.1h9v-12.3h7c9.3,0,16.5-4.9,16.5-14.4
		C54,386.2,48,380.4,38.2,380.4z M44.7,395c0,3.5-2.6,6.3-7.2,6.3h-7v-12.8h7C41.9,388.5,44.7,390.8,44.7,395z M158.7,380.4h9v41.1
		h-9V380.4z M307.4,380.1l-17.6,41.3h9.3l3.7-9.3h17.4l3.7,9.3h9.5l-17.6-41.3H307.4L307.4,380.1z M306,404.3l5.3-13.2l5.3,13.2
		C316.7,404.3,306,404.3,306,404.3z M397.9,380.4h-9v41.1h29.5v-8.4h-20.4V380.4z M360.7,413.8c-7,0-11.8-5.8-11.8-12.8v-0.2
		c0-7,4.9-12.8,11.8-12.8c4.2,0,7.4,1.9,10.4,4.6l5.8-6.5c-3.7-3.7-8.4-6.3-16.2-6.3c-12.5,0-21.3,9.5-21.3,21.1
		c0,11.8,9,21.1,21.1,21.1c7.9,0,12.5-2.8,16.7-7.4l-5.8-5.8C368.4,411.9,365.4,413.8,360.7,413.8z M489.7,396.8l-9.7-16.5h-10.7
		l15.8,24.8v16.2h9V405l15.8-24.6h-10.2L489.7,396.8z M268.9,396.8c-7.2-1.9-8.8-2.8-8.8-5.3c0-2.1,1.9-3.5,5.3-3.5s7,1.6,10.7,3.9
		l4.6-6.7c-4.2-3.2-9.3-5.1-15.3-5.1c-8.4,0-14.4,4.9-14.4,12.3v0.2c0,8.1,5.3,10.4,13.7,12.5c7,1.9,8.4,3,8.4,5.1v0.2
		c0,2.3-2.3,3.9-5.8,3.9c-4.6,0-8.6-1.9-12.3-4.9l-5.3,6.5c4.9,4.4,11.1,6.5,17.4,6.5c8.8,0,15.1-4.6,15.1-12.8v-0.2
		C281.9,401.9,277.2,398.9,268.9,396.8z M443.6,380.1l-17.6,41.3h9.3l3.7-9.3h17.4l3.7,9.3h9.5l-17.6-41.3
		C451.9,380.1,443.6,380.1,443.6,380.1z M442.2,404.3l5.3-13.2l5.3,13.2H442.2z M174,296.1h11.4v63.6H174V296.1z M303,361.1
		c10.7,0,18.8-3.7,26-11.8l0.7-0.7l-7.2-6.5l-0.7,0.7c-5.3,5.8-11.4,8.4-18.6,8.4c-10.7,0-18.8-7.4-20.4-18.6h48.5v-0.9
		c0.2-1.2,0.2-2.1,0.2-3c0-20.2-11.8-33.6-29.7-33.6c-17.4,0-30.4,14.2-30.4,33.2C271.4,347,285.1,361.1,303,361.1z M301.6,304.7
		c11.8,0,17.2,9.5,18.3,18.8h-37.1C284.4,312.4,292.1,304.7,301.6,304.7z M45.9,361.1c8.4,0,14.8-3.2,20-9.7v8.4H77v-63.6H65.8v36.2
		c0,10.7-7.2,18.1-17.4,18.1c-10,0-16-6.5-16-17.4v-36.9H21.3v39.2C21.3,350.9,31,361.1,45.9,361.1z M129,295
		c-8.4,0-15.1,3.2-20,9.5v-8.4H97.6v63.6H109v-36.2c0-10.7,7.2-18.1,17.4-18.1c10,0,16,6.5,16,17.4v36.9h11.1v-39.2
		C153.6,305,143.8,295,129,295z M237.1,360.2l27.6-64h-12.1l-20.2,49.2l-20-49.2h-12.3l27.4,64H237.1z M359.1,308.9v-12.8h-11.4
		v63.6h11.4v-25.5c0-16.5,9-27.1,23.2-27.1h1.9v-11.8h-0.9C373.3,294.7,364.5,299.9,359.1,308.9L359.1,308.9z M508.5,275.3
		l-11.4,6.3v14.6h-11.8v10.2h11.8v36c0,11.8,6.5,18.3,18.3,18.3c4.2,0,7.9-0.9,11.6-2.8l0.5-0.2v-10.2l-1.6,0.7
		c-3,1.4-5.3,2.1-8.4,2.1c-6.3,0-9.3-3-9.3-9v-34.8h19.5v-10.2h-19.3V275.3z M568.4,295c-17.4,0-30.4,14.2-30.4,33.2
		c0,18.8,13.7,33.2,31.8,33.2c10.7,0,18.8-3.7,26-11.8l0.7-0.7l-7.2-6.5l-0.7,0.7c-5.3,5.8-11.4,8.4-18.6,8.4
		c-10.7,0-18.8-7.4-20.4-18.6h48.5v-0.9c0.2-1.2,0.2-2.1,0.2-3C598.1,308.4,586.3,295,568.4,295L568.4,295z M549.6,323.5
		c1.6-11.1,9-18.8,18.8-18.8c11.8,0,17.2,9.5,18.3,18.8H549.6z M442.4,341.4v-0.2c0-12.5-12.3-16.2-20.4-18.6h-0.2
		c-7.7-2.3-14.8-4.4-14.8-9.7c0-4.6,4.4-7.9,10.9-7.9c5.6,0,11.8,2.1,17.6,5.8l0.9,0.7l5.3-8.8l-0.9-0.5c-6.5-4.4-15.1-7-22.7-7
		c-13,0-22,7.7-22,18.6v0.2c0,12.3,12.1,15.8,21.1,18.3c8.1,2.3,14.6,4.4,14.6,10c0,5.1-4.6,8.6-11.6,8.6c-6.7,0-13.9-2.6-20.6-7.7
		l-0.9-0.7l-5.8,8.4l0.7,0.7c7,5.8,16.9,9.3,26,9.3C433.4,360.9,442.4,353,442.4,341.4L442.4,341.4z M460.5,296.1h11.4v63.6h-11.4
		V296.1z"/>
</g>
</svg>

