<?xml version="1.0" encoding="UTF-8"?><svg id="uuid-5c21ed8e-fa97-402d-8ba1-a78002d1111d" xmlns="http://www.w3.org/2000/svg" viewBox="0 0 805.79 419.74"><defs><style>.uuid-e657f32e-83de-4c94-ae7e-195b188f8442{stroke:#6a8ec2;}.uuid-e657f32e-83de-4c94-ae7e-195b188f8442,.uuid-822c14a2-d729-4acc-b98d-d634b4b67513{stroke-width:4px;}.uuid-e657f32e-83de-4c94-ae7e-195b188f8442,.uuid-822c14a2-d729-4acc-b98d-d634b4b67513,.uuid-d47286ac-a1d5-4061-81df-bdb7b345c018,.uuid-90f7bad4-7b15-4d15-b943-df0ce8721b31,.uuid-304c4917-41c4-4da2-8a85-763e8c075611,.uuid-71ddb76b-6298-4ac1-8781-61733dd112b3{stroke-miterlimit:10;}.uuid-e657f32e-83de-4c94-ae7e-195b188f8442,.uuid-822c14a2-d729-4acc-b98d-d634b4b67513,.uuid-d47286ac-a1d5-4061-81df-bdb7b345c018,.uuid-71ddb76b-6298-4ac1-8781-61733dd112b3{fill:none;}.uuid-822c14a2-d729-4acc-b98d-d634b4b67513{stroke:#6a8ec1;}.uuid-d47286ac-a1d5-4061-81df-bdb7b345c018{stroke:#1d1d1b;}.uuid-90f7bad4-7b15-4d15-b943-df0ce8721b31{fill:#d6e7d3;}.uuid-90f7bad4-7b15-4d15-b943-df0ce8721b31,.uuid-71ddb76b-6298-4ac1-8781-61733dd112b3{stroke:#7fb366;stroke-width:.48px;}.uuid-62b6d9a0-cdda-47ff-86e0-1cf50d366119{fill:#6a8ec2;}.uuid-304c4917-41c4-4da2-8a85-763e8c075611{fill:#e2d6e7;stroke:#9473a6;stroke-width:.5px;}.uuid-82fc8ec4-13be-4f41-9b82-76493d68a90e{fill:#6a8ec1;}.uuid-1c528915-10cf-4b4e-a163-232bf7035c45{fill:#1d1d1b;}</style></defs><rect class="uuid-90f7bad4-7b15-4d15-b943-df0ce8721b31" x="266.29" y="65.66" width="263.34" height="99.48"/><line class="uuid-71ddb76b-6298-4ac1-8781-61733dd112b3" x1="397.96" y1="65.66" x2="397.96" y2="165.14"/><line class="uuid-71ddb76b-6298-4ac1-8781-61733dd112b3" x1="266.29" y1="102.9" x2="529.63" y2="102.9"/><g><path class="uuid-1c528915-10cf-4b4e-a163-232bf7035c45" d="M443.47,89.77l-3.15-11.17h1.94l1.47,5.63,.98,3.79h.1l.98-3.79,1.49-5.63h1.86l-3.15,11.17h-2.5Z"/><path class="uuid-1c528915-10cf-4b4e-a163-232bf7035c45" d="M456.91,89.77l-.85-2.99h-3.55l-.85,2.99h-1.82l3.26-11.17h2.45l3.26,11.17h-1.9Zm-2.56-9.36h-.13l-1.38,4.9h2.88l-1.38-4.9Z"/><path class="uuid-1c528915-10cf-4b4e-a163-232bf7035c45" d="M460.84,89.77v-11.17h1.79v9.66h5.09v1.5h-6.88Z"/><path class="uuid-1c528915-10cf-4b4e-a163-232bf7035c45" d="M471.61,78.6v6.88c0,.46,.01,.88,.04,1.25,.03,.37,.1,.69,.23,.95s.32,.46,.58,.6,.61,.21,1.06,.21,.8-.07,1.06-.21c.26-.14,.45-.34,.58-.6s.21-.58,.23-.95,.04-.79,.04-1.25v-6.88h1.79v6.54c0,.8-.05,1.5-.14,2.1-.09,.6-.27,1.1-.54,1.5-.27,.4-.64,.7-1.13,.9-.49,.2-1.12,.3-1.9,.3s-1.41-.1-1.9-.3c-.49-.2-.86-.5-1.13-.9-.27-.4-.45-.9-.54-1.5-.09-.6-.14-1.3-.14-2.1v-6.54h1.79Z"/><path class="uuid-1c528915-10cf-4b4e-a163-232bf7035c45" d="M479.69,89.77v-11.17h6.99v1.5h-5.2v3.25h5.01v1.5h-5.01v3.41h5.2v1.5h-6.99Z"/></g><g><path class="uuid-1c528915-10cf-4b4e-a163-232bf7035c45" d="M460.47,136.6v-2.19h-5.5v-1.18l4.83-7.79h1.95v7.87h1.66v1.1h-1.66v2.19h-1.28Zm-4.3-3.3h4.3v-6.83h-.06l-4.24,6.83Z"/><path class="uuid-1c528915-10cf-4b4e-a163-232bf7035c45" d="M472.62,136.6h-7.46v-1.38l3.73-3.36c.54-.49,.99-.99,1.34-1.51s.53-1.06,.53-1.64v-.19c0-.67-.18-1.19-.53-1.56-.35-.37-.88-.55-1.57-.55s-1.21,.17-1.58,.52-.64,.81-.82,1.38l-1.2-.45c.11-.33,.25-.65,.44-.97,.19-.31,.42-.59,.71-.84,.29-.25,.64-.44,1.05-.59s.89-.22,1.43-.22,1.05,.08,1.48,.24,.79,.38,1.09,.67,.52,.63,.67,1.02,.23,.83,.23,1.3c0,.43-.06,.83-.18,1.2-.12,.37-.29,.73-.51,1.07-.22,.34-.48,.67-.79,1-.3,.33-.64,.65-1.02,.97l-3.12,2.72h6.06v1.17Z"/></g><g><path class="uuid-1c528915-10cf-4b4e-a163-232bf7035c45" d="M297.39,89.77l-3.15-11.17h1.94l1.47,5.63,.98,3.79h.1l.98-3.79,1.49-5.63h1.86l-3.15,11.17h-2.5Z"/><path class="uuid-1c528915-10cf-4b4e-a163-232bf7035c45" d="M310.83,89.77l-.85-2.99h-3.55l-.85,2.99h-1.82l3.26-11.17h2.45l3.26,11.17h-1.9Zm-2.56-9.36h-.13l-1.38,4.9h2.88l-1.38-4.9Z"/><path class="uuid-1c528915-10cf-4b4e-a163-232bf7035c45" d="M316.16,89.77h-1.78v-11.17h4.18c1.07,0,1.88,.3,2.44,.89,.56,.6,.84,1.42,.84,2.46,0,.85-.21,1.55-.62,2.11s-1.01,.89-1.79,1.02l2.58,4.69h-1.98l-2.37-4.53h-1.49v4.53Zm2.14-5.95c1.11,0,1.66-.51,1.66-1.53v-.69c0-1.02-.55-1.53-1.66-1.53h-2.14v3.74h2.14Z"/><path class="uuid-1c528915-10cf-4b4e-a163-232bf7035c45" d="M323.92,89.77v-1.36h2.62v-8.45h-2.62v-1.36h7.04v1.36h-2.62v8.45h2.62v1.36h-7.04Z"/><path class="uuid-1c528915-10cf-4b4e-a163-232bf7035c45" d="M339.63,89.77l-.85-2.99h-3.55l-.85,2.99h-1.82l3.26-11.17h2.45l3.26,11.17h-1.9Zm-2.56-9.36h-.13l-1.38,4.9h2.88l-1.38-4.9Z"/><path class="uuid-1c528915-10cf-4b4e-a163-232bf7035c45" d="M343.17,78.6h3.86c1.01,0,1.8,.26,2.36,.78s.84,1.24,.84,2.14c0,.65-.16,1.17-.48,1.55-.32,.38-.75,.66-1.3,.82v.08c.65,.15,1.17,.43,1.57,.86,.39,.42,.59,1.02,.59,1.78,0,.46-.07,.88-.22,1.26-.15,.38-.36,.72-.64,1-.28,.28-.61,.5-1,.66-.39,.16-.82,.23-1.29,.23h-4.29v-11.17Zm3.49,4.8c.56,0,.99-.11,1.29-.33,.29-.22,.44-.58,.44-1.1v-.58c0-.51-.15-.88-.44-1.1-.29-.22-.72-.33-1.29-.33h-1.73v3.42h1.73Zm.26,4.99c.6,0,1.06-.12,1.38-.37,.32-.25,.48-.64,.48-1.18v-.58c0-.54-.16-.94-.48-1.18-.32-.25-.78-.37-1.38-.37h-1.98v3.68h1.98Z"/><path class="uuid-1c528915-10cf-4b4e-a163-232bf7035c45" d="M353.17,89.77v-11.17h1.79v9.66h5.09v1.5h-6.88Z"/><path class="uuid-1c528915-10cf-4b4e-a163-232bf7035c45" d="M362.41,89.77v-11.17h6.99v1.5h-5.2v3.25h5.01v1.5h-5.01v3.41h5.2v1.5h-6.99Z"/></g><g><path class="uuid-1c528915-10cf-4b4e-a163-232bf7035c45" d="M319.28,136.6v-11.17h7.04v1.17h-5.7v3.76h5.22v1.17h-5.22v5.07h-1.34Z"/><path class="uuid-1c528915-10cf-4b4e-a163-232bf7035c45" d="M332.24,136.8c-.68,0-1.27-.13-1.76-.39-.49-.26-.9-.64-1.22-1.13-.32-.49-.55-1.09-.7-1.81s-.22-1.53-.22-2.45,.07-1.72,.22-2.44c.15-.72,.38-1.33,.7-1.82,.32-.49,.72-.87,1.22-1.13,.49-.26,1.08-.39,1.76-.39s1.27,.13,1.76,.39c.49,.26,.9,.64,1.22,1.13,.32,.49,.55,1.1,.7,1.82,.15,.72,.22,1.53,.22,2.44s-.08,1.73-.22,2.45c-.15,.71-.38,1.32-.7,1.81-.32,.49-.73,.87-1.22,1.13-.49,.26-1.08,.39-1.76,.39Zm0-1.17c.45,0,.83-.09,1.14-.26,.31-.18,.57-.42,.77-.74,.2-.32,.35-.71,.44-1.16,.09-.45,.14-.96,.14-1.53v-1.82c0-.55-.05-1.06-.14-1.52-.09-.46-.24-.85-.44-1.17-.2-.32-.46-.57-.77-.74-.31-.18-.69-.26-1.14-.26s-.83,.09-1.14,.26-.57,.42-.77,.74c-.2,.32-.35,.71-.44,1.17-.09,.46-.14,.96-.14,1.52v1.82c0,.57,.04,1.07,.14,1.53,.09,.45,.24,.84,.44,1.16,.2,.32,.46,.57,.77,.74s.69,.26,1.14,.26Z"/><path class="uuid-1c528915-10cf-4b4e-a163-232bf7035c45" d="M341.84,136.8c-.68,0-1.27-.13-1.76-.39-.49-.26-.9-.64-1.22-1.13-.32-.49-.55-1.09-.7-1.81s-.22-1.53-.22-2.45,.07-1.72,.22-2.44c.15-.72,.38-1.33,.7-1.82,.32-.49,.72-.87,1.22-1.13,.49-.26,1.08-.39,1.76-.39s1.27,.13,1.76,.39c.49,.26,.9,.64,1.22,1.13,.32,.49,.55,1.1,.7,1.82,.15,.72,.22,1.53,.22,2.44s-.08,1.73-.22,2.45c-.15,.71-.38,1.32-.7,1.81-.32,.49-.73,.87-1.22,1.13-.49,.26-1.08,.39-1.76,.39Zm0-1.17c.45,0,.83-.09,1.14-.26,.31-.18,.57-.42,.77-.74,.2-.32,.35-.71,.44-1.16,.09-.45,.14-.96,.14-1.53v-1.82c0-.55-.05-1.06-.14-1.52-.09-.46-.24-.85-.44-1.17-.2-.32-.46-.57-.77-.74-.31-.18-.69-.26-1.14-.26s-.83,.09-1.14,.26-.57,.42-.77,.74c-.2,.32-.35,.71-.44,1.17-.09,.46-.14,.96-.14,1.52v1.82c0,.57,.04,1.07,.14,1.53,.09,.45,.24,.84,.44,1.16,.2,.32,.46,.57,.77,.74s.69,.26,1.14,.26Z"/></g><rect class="uuid-304c4917-41c4-4da2-8a85-763e8c075611" x="106.28" y="208.21" width="263.34" height="99.48"/><line class="uuid-304c4917-41c4-4da2-8a85-763e8c075611" x1="237.95" y1="208.21" x2="237.95" y2="307.69"/><line class="uuid-304c4917-41c4-4da2-8a85-763e8c075611" x1="106.28" y1="245.45" x2="369.61" y2="245.45"/><g><path class="uuid-1c528915-10cf-4b4e-a163-232bf7035c45" d="M283.45,232.32l-3.15-11.17h1.94l1.47,5.63,.98,3.79h.1l.98-3.79,1.49-5.63h1.86l-3.15,11.17h-2.5Z"/><path class="uuid-1c528915-10cf-4b4e-a163-232bf7035c45" d="M296.89,232.32l-.85-2.99h-3.55l-.85,2.99h-1.82l3.26-11.17h2.45l3.26,11.17h-1.9Zm-2.56-9.36h-.13l-1.38,4.9h2.88l-1.38-4.9Z"/><path class="uuid-1c528915-10cf-4b4e-a163-232bf7035c45" d="M300.83,232.32v-11.17h1.79v9.66h5.09v1.5h-6.88Z"/><path class="uuid-1c528915-10cf-4b4e-a163-232bf7035c45" d="M311.6,221.15v6.88c0,.46,.01,.88,.04,1.25,.03,.37,.1,.69,.23,.95s.32,.46,.58,.6,.61,.21,1.06,.21,.8-.07,1.06-.21c.26-.14,.45-.34,.58-.6s.21-.58,.23-.95,.04-.79,.04-1.25v-6.88h1.79v6.54c0,.8-.05,1.5-.14,2.1-.09,.6-.27,1.1-.54,1.5-.27,.4-.64,.7-1.13,.9-.49,.2-1.12,.3-1.9,.3s-1.41-.1-1.9-.3c-.49-.2-.86-.5-1.13-.9-.27-.4-.45-.9-.54-1.5-.09-.6-.14-1.3-.14-2.1v-6.54h1.79Z"/><path class="uuid-1c528915-10cf-4b4e-a163-232bf7035c45" d="M319.68,232.32v-11.17h6.99v1.5h-5.2v3.25h5.01v1.5h-5.01v3.41h5.2v1.5h-6.99Z"/></g><g><path class="uuid-1c528915-10cf-4b4e-a163-232bf7035c45" d="M137.38,232.32l-3.15-11.17h1.94l1.47,5.63,.98,3.79h.1l.98-3.79,1.49-5.63h1.86l-3.15,11.17h-2.5Z"/><path class="uuid-1c528915-10cf-4b4e-a163-232bf7035c45" d="M150.82,232.32l-.85-2.99h-3.55l-.85,2.99h-1.82l3.26-11.17h2.45l3.26,11.17h-1.9Zm-2.56-9.36h-.13l-1.38,4.9h2.88l-1.38-4.9Z"/><path class="uuid-1c528915-10cf-4b4e-a163-232bf7035c45" d="M156.15,232.32h-1.78v-11.17h4.18c1.07,0,1.88,.3,2.44,.89,.56,.6,.84,1.42,.84,2.46,0,.85-.21,1.55-.62,2.11s-1.01,.89-1.79,1.02l2.58,4.69h-1.98l-2.37-4.53h-1.49v4.53Zm2.14-5.95c1.11,0,1.66-.51,1.66-1.53v-.69c0-1.02-.55-1.53-1.66-1.53h-2.14v3.74h2.14Z"/><path class="uuid-1c528915-10cf-4b4e-a163-232bf7035c45" d="M163.91,232.32v-1.36h2.62v-8.45h-2.62v-1.36h7.04v1.36h-2.62v8.45h2.62v1.36h-7.04Z"/><path class="uuid-1c528915-10cf-4b4e-a163-232bf7035c45" d="M179.62,232.32l-.85-2.99h-3.55l-.85,2.99h-1.82l3.26-11.17h2.45l3.26,11.17h-1.9Zm-2.56-9.36h-.13l-1.38,4.9h2.88l-1.38-4.9Z"/><path class="uuid-1c528915-10cf-4b4e-a163-232bf7035c45" d="M183.15,221.15h3.86c1.01,0,1.8,.26,2.36,.78s.84,1.24,.84,2.14c0,.65-.16,1.17-.48,1.55-.32,.38-.75,.66-1.3,.82v.08c.65,.15,1.17,.43,1.57,.86,.39,.42,.59,1.02,.59,1.78,0,.46-.07,.88-.22,1.26-.15,.38-.36,.72-.64,1-.28,.28-.61,.5-1,.66-.39,.16-.82,.23-1.29,.23h-4.29v-11.17Zm3.49,4.8c.56,0,.99-.11,1.29-.33,.29-.22,.44-.58,.44-1.1v-.58c0-.51-.15-.88-.44-1.1-.29-.22-.72-.33-1.29-.33h-1.73v3.42h1.73Zm.26,4.99c.6,0,1.06-.12,1.38-.37,.32-.25,.48-.64,.48-1.18v-.58c0-.54-.16-.94-.48-1.18-.32-.25-.78-.37-1.38-.37h-1.98v3.68h1.98Z"/><path class="uuid-1c528915-10cf-4b4e-a163-232bf7035c45" d="M193.15,232.32v-11.17h1.79v9.66h5.09v1.5h-6.88Z"/><path class="uuid-1c528915-10cf-4b4e-a163-232bf7035c45" d="M202.4,232.32v-11.17h6.99v1.5h-5.2v3.25h5.01v1.5h-5.01v3.41h5.2v1.5h-6.99Z"/></g><g><path class="uuid-1c528915-10cf-4b4e-a163-232bf7035c45" d="M159.23,267.99h3.79c.96,0,1.71,.26,2.26,.78s.82,1.22,.82,2.1c0,.67-.16,1.2-.49,1.58s-.74,.66-1.26,.82v.05c.63,.15,1.15,.43,1.55,.84,.41,.41,.61,1.01,.61,1.78,0,.45-.08,.87-.22,1.26s-.36,.74-.63,1.02c-.27,.29-.59,.51-.96,.68-.37,.17-.77,.25-1.19,.25h-4.27v-11.17Zm3.65,4.85c.57,0,1.01-.12,1.33-.38,.32-.25,.48-.63,.48-1.14v-.62c0-.51-.16-.9-.48-1.15-.32-.26-.76-.38-1.33-.38h-2.3v3.68h2.3Zm.22,5.15c.62,0,1.1-.14,1.46-.42,.35-.28,.53-.7,.53-1.28v-.66c0-.57-.18-.99-.53-1.27-.35-.28-.84-.42-1.46-.42h-2.53v4.05h2.53Z"/><path class="uuid-1c528915-10cf-4b4e-a163-232bf7035c45" d="M175.12,279.15l-.94-3.18h-3.92l-.94,3.18h-1.39l3.42-11.17h1.78l3.42,11.17h-1.42Zm-2.83-9.74h-.14l-1.57,5.39h3.28l-1.57-5.39Z"/><path class="uuid-1c528915-10cf-4b4e-a163-232bf7035c45" d="M179.81,279.15h-1.34v-11.17h4.06c1.03,0,1.82,.28,2.37,.85,.54,.57,.82,1.36,.82,2.37,0,.91-.24,1.63-.7,2.18-.47,.54-1.15,.86-2.05,.94l2.85,4.83h-1.5l-2.72-4.77h-1.78v4.77Zm2.69-5.9c.57,0,1.01-.14,1.32-.42,.31-.28,.47-.69,.47-1.21v-.83c0-.52-.16-.92-.47-1.21-.31-.28-.75-.42-1.32-.42h-2.69v4.1h2.69Z"/></g><g><path class="uuid-82fc8ec4-13be-4f41-9b82-76493d68a90e" d="M149.94,348.48h-1.34v-11.17h4.06c1.03,0,1.82,.28,2.37,.85,.54,.57,.82,1.36,.82,2.37,0,.91-.24,1.63-.7,2.18-.47,.54-1.15,.86-2.05,.94l2.85,4.83h-1.5l-2.72-4.77h-1.78v4.77Zm2.69-5.9c.57,0,1.01-.14,1.32-.42,.31-.28,.47-.69,.47-1.21v-.83c0-.52-.16-.92-.47-1.21-.31-.28-.75-.42-1.32-.42h-2.69v4.1h2.69Z"/><path class="uuid-82fc8ec4-13be-4f41-9b82-76493d68a90e" d="M158.2,348.48v-11.17h6.88v1.17h-5.54v3.76h5.34v1.17h-5.34v3.9h5.54v1.17h-6.88Z"/><path class="uuid-82fc8ec4-13be-4f41-9b82-76493d68a90e" d="M174.06,348.48l-.94-3.18h-3.92l-.94,3.18h-1.39l3.42-11.17h1.78l3.42,11.17h-1.42Zm-2.83-9.74h-.14l-1.57,5.39h3.28l-1.57-5.39Z"/><path class="uuid-82fc8ec4-13be-4f41-9b82-76493d68a90e" d="M177.48,337.31h3.12c1.37,0,2.38,.47,3.06,1.41s1.01,2.33,1.01,4.18-.34,3.24-1.01,4.18-1.69,1.41-3.06,1.41h-3.12v-11.17Zm3.06,10c.9,0,1.57-.31,2.02-.93,.45-.62,.68-1.49,.68-2.62v-1.73c0-1.13-.23-2-.68-2.62-.45-.62-1.13-.93-2.02-.93h-1.71v8.83h1.71Z"/><path class="uuid-82fc8ec4-13be-4f41-9b82-76493d68a90e" d="M188.04,344.29v-1.34h4.64v1.34h-4.64Z"/><path class="uuid-82fc8ec4-13be-4f41-9b82-76493d68a90e" d="M199.96,348.67c-.68,0-1.27-.13-1.76-.39-.49-.26-.9-.64-1.22-1.13-.32-.49-.55-1.09-.7-1.81s-.22-1.53-.22-2.45,.07-1.72,.22-2.44c.15-.72,.38-1.33,.7-1.82,.32-.49,.72-.87,1.22-1.13,.49-.26,1.08-.39,1.76-.39s1.27,.13,1.76,.39c.49,.26,.9,.64,1.22,1.13,.32,.49,.55,1.1,.7,1.82,.15,.72,.22,1.53,.22,2.44s-.08,1.73-.22,2.45c-.15,.71-.38,1.32-.7,1.81-.32,.49-.73,.87-1.22,1.13-.49,.26-1.08,.39-1.76,.39Zm0-1.17c.45,0,.83-.09,1.14-.26,.31-.18,.57-.42,.77-.74,.2-.32,.35-.71,.44-1.16,.09-.45,.14-.96,.14-1.53v-1.82c0-.55-.05-1.06-.14-1.52-.09-.46-.24-.85-.44-1.17-.2-.32-.46-.57-.77-.74-.31-.18-.69-.26-1.14-.26s-.83,.09-1.14,.26-.57,.42-.77,.74c-.2,.32-.35,.71-.44,1.17-.09,.46-.14,.96-.14,1.52v1.82c0,.57,.04,1.07,.14,1.53,.09,.45,.24,.84,.44,1.16,.2,.32,.46,.57,.77,.74s.69,.26,1.14,.26Z"/><path class="uuid-82fc8ec4-13be-4f41-9b82-76493d68a90e" d="M207.37,339.07h-.11v9.41h-1.22v-11.17h1.9l3.81,9.41h.11v-9.41h1.22v11.17h-1.9l-3.81-9.41Z"/><path class="uuid-82fc8ec4-13be-4f41-9b82-76493d68a90e" d="M216.28,348.48v-11.17h1.34v10h5.3v1.17h-6.64Z"/><path class="uuid-82fc8ec4-13be-4f41-9b82-76493d68a90e" d="M228.09,348.48v-4.38l-3.86-6.78h1.54l1.6,2.91,1.36,2.54h.06l1.39-2.54,1.6-2.91h1.5l-3.86,6.78v4.38h-1.34Z"/><path class="uuid-82fc8ec4-13be-4f41-9b82-76493d68a90e" d="M244.57,337.31h3.79c.96,0,1.71,.26,2.26,.78s.82,1.22,.82,2.1c0,.67-.16,1.2-.49,1.58s-.74,.66-1.26,.82v.05c.63,.15,1.15,.43,1.55,.84,.41,.41,.61,1.01,.61,1.78,0,.45-.08,.87-.22,1.26s-.36,.74-.63,1.02c-.27,.29-.59,.51-.96,.68-.37,.17-.77,.25-1.19,.25h-4.27v-11.17Zm3.65,4.85c.57,0,1.01-.12,1.33-.38,.32-.25,.48-.63,.48-1.14v-.62c0-.51-.16-.9-.48-1.15-.32-.26-.76-.38-1.33-.38h-2.3v3.68h2.3Zm.22,5.15c.62,0,1.1-.14,1.46-.42,.35-.28,.53-.7,.53-1.28v-.66c0-.57-.18-.99-.53-1.27-.35-.28-.84-.42-1.46-.42h-2.53v4.05h2.53Z"/><path class="uuid-82fc8ec4-13be-4f41-9b82-76493d68a90e" d="M257.56,348.67c-.68,0-1.27-.13-1.76-.39-.49-.26-.9-.64-1.22-1.13-.32-.49-.55-1.09-.7-1.81s-.22-1.53-.22-2.45,.07-1.72,.22-2.44c.15-.72,.38-1.33,.7-1.82,.32-.49,.72-.87,1.22-1.13,.49-.26,1.08-.39,1.76-.39s1.27,.13,1.76,.39c.49,.26,.9,.64,1.22,1.13,.32,.49,.55,1.1,.7,1.82,.15,.72,.22,1.53,.22,2.44s-.08,1.73-.22,2.45c-.15,.71-.38,1.32-.7,1.81-.32,.49-.73,.87-1.22,1.13-.49,.26-1.08,.39-1.76,.39Zm0-1.17c.45,0,.83-.09,1.14-.26,.31-.18,.57-.42,.77-.74,.2-.32,.35-.71,.44-1.16,.09-.45,.14-.96,.14-1.53v-1.82c0-.55-.05-1.06-.14-1.52-.09-.46-.24-.85-.44-1.17-.2-.32-.46-.57-.77-.74-.31-.18-.69-.26-1.14-.26s-.83,.09-1.14,.26-.57,.42-.77,.74c-.2,.32-.35,.71-.44,1.17-.09,.46-.14,.96-.14,1.52v1.82c0,.57,.04,1.07,.14,1.53,.09,.45,.24,.84,.44,1.16,.2,.32,.46,.57,.77,.74s.69,.26,1.14,.26Z"/><path class="uuid-82fc8ec4-13be-4f41-9b82-76493d68a90e" d="M265.14,348.48h-1.34v-11.17h4.06c1.03,0,1.82,.28,2.37,.85,.54,.57,.82,1.36,.82,2.37,0,.91-.24,1.63-.7,2.18-.47,.54-1.15,.86-2.05,.94l2.85,4.83h-1.5l-2.72-4.77h-1.78v4.77Zm2.69-5.9c.57,0,1.01-.14,1.32-.42,.31-.28,.47-.69,.47-1.21v-.83c0-.52-.16-.92-.47-1.21-.31-.28-.75-.42-1.32-.42h-2.69v4.1h2.69Z"/><path class="uuid-82fc8ec4-13be-4f41-9b82-76493d68a90e" d="M274.74,348.48h-1.34v-11.17h4.06c1.03,0,1.82,.28,2.37,.85,.54,.57,.82,1.36,.82,2.37,0,.91-.24,1.63-.7,2.18-.47,.54-1.15,.86-2.05,.94l2.85,4.83h-1.5l-2.72-4.77h-1.78v4.77Zm2.69-5.9c.57,0,1.01-.14,1.32-.42,.31-.28,.47-.69,.47-1.21v-.83c0-.52-.16-.92-.47-1.21-.31-.28-.75-.42-1.32-.42h-2.69v4.1h2.69Z"/><path class="uuid-82fc8ec4-13be-4f41-9b82-76493d68a90e" d="M286.36,348.67c-.68,0-1.27-.13-1.76-.39-.49-.26-.9-.64-1.22-1.13-.32-.49-.55-1.09-.7-1.81s-.22-1.53-.22-2.45,.07-1.72,.22-2.44c.15-.72,.38-1.33,.7-1.82,.32-.49,.72-.87,1.22-1.13,.49-.26,1.08-.39,1.76-.39s1.27,.13,1.76,.39c.49,.26,.9,.64,1.22,1.13,.32,.49,.55,1.1,.7,1.82,.15,.72,.22,1.53,.22,2.44s-.08,1.73-.22,2.45c-.15,.71-.38,1.32-.7,1.81-.32,.49-.73,.87-1.22,1.13-.49,.26-1.08,.39-1.76,.39Zm0-1.17c.45,0,.83-.09,1.14-.26,.31-.18,.57-.42,.77-.74,.2-.32,.35-.71,.44-1.16,.09-.45,.14-.96,.14-1.53v-1.82c0-.55-.05-1.06-.14-1.52-.09-.46-.24-.85-.44-1.17-.2-.32-.46-.57-.77-.74-.31-.18-.69-.26-1.14-.26s-.83,.09-1.14,.26-.57,.42-.77,.74c-.2,.32-.35,.71-.44,1.17-.09,.46-.14,.96-.14,1.52v1.82c0,.57,.04,1.07,.14,1.53,.09,.45,.24,.84,.44,1.16,.2,.32,.46,.57,.77,.74s.69,.26,1.14,.26Z"/><path class="uuid-82fc8ec4-13be-4f41-9b82-76493d68a90e" d="M292.6,348.48l-.88-11.17h1.2l.46,6.4,.24,3.38h.13l1.47-6.86h1.5l1.47,6.86h.13l.24-3.38,.46-6.4h1.17l-.88,11.17h-1.94l-1.36-6.67h-.13l-1.36,6.67h-1.94Z"/></g><line class="uuid-d47286ac-a1d5-4061-81df-bdb7b345c018" x1="316.31" y1="281.99" x2="291.25" y2="281.99"/><rect class="uuid-304c4917-41c4-4da2-8a85-763e8c075611" x="426.31" y="208.21" width="263.34" height="99.48"/><line class="uuid-304c4917-41c4-4da2-8a85-763e8c075611" x1="557.97" y1="208.21" x2="557.97" y2="307.69"/><line class="uuid-304c4917-41c4-4da2-8a85-763e8c075611" x1="426.31" y1="245.45" x2="689.64" y2="245.45"/><g><path class="uuid-1c528915-10cf-4b4e-a163-232bf7035c45" d="M603.48,232.32l-3.15-11.17h1.94l1.47,5.63,.98,3.79h.1l.98-3.79,1.49-5.63h1.86l-3.15,11.17h-2.5Z"/><path class="uuid-1c528915-10cf-4b4e-a163-232bf7035c45" d="M616.92,232.32l-.85-2.99h-3.55l-.85,2.99h-1.82l3.26-11.17h2.45l3.26,11.17h-1.9Zm-2.56-9.36h-.13l-1.38,4.9h2.88l-1.38-4.9Z"/><path class="uuid-1c528915-10cf-4b4e-a163-232bf7035c45" d="M620.86,232.32v-11.17h1.79v9.66h5.09v1.5h-6.88Z"/><path class="uuid-1c528915-10cf-4b4e-a163-232bf7035c45" d="M631.63,221.15v6.88c0,.46,.01,.88,.04,1.25,.03,.37,.1,.69,.23,.95s.32,.46,.58,.6,.61,.21,1.06,.21,.8-.07,1.06-.21c.26-.14,.45-.34,.58-.6s.21-.58,.23-.95,.04-.79,.04-1.25v-6.88h1.79v6.54c0,.8-.05,1.5-.14,2.1-.09,.6-.27,1.1-.54,1.5-.27,.4-.64,.7-1.13,.9-.49,.2-1.12,.3-1.9,.3s-1.41-.1-1.9-.3c-.49-.2-.86-.5-1.13-.9-.27-.4-.45-.9-.54-1.5-.09-.6-.14-1.3-.14-2.1v-6.54h1.79Z"/><path class="uuid-1c528915-10cf-4b4e-a163-232bf7035c45" d="M639.7,232.32v-11.17h6.99v1.5h-5.2v3.25h5.01v1.5h-5.01v3.41h5.2v1.5h-6.99Z"/></g><g><path class="uuid-1c528915-10cf-4b4e-a163-232bf7035c45" d="M457.41,232.32l-3.15-11.17h1.94l1.47,5.63,.98,3.79h.1l.98-3.79,1.49-5.63h1.86l-3.15,11.17h-2.5Z"/><path class="uuid-1c528915-10cf-4b4e-a163-232bf7035c45" d="M470.85,232.32l-.85-2.99h-3.55l-.85,2.99h-1.82l3.26-11.17h2.45l3.26,11.17h-1.9Zm-2.56-9.36h-.13l-1.38,4.9h2.88l-1.38-4.9Z"/><path class="uuid-1c528915-10cf-4b4e-a163-232bf7035c45" d="M476.17,232.32h-1.78v-11.17h4.18c1.07,0,1.88,.3,2.44,.89,.56,.6,.84,1.42,.84,2.46,0,.85-.21,1.55-.62,2.11s-1.01,.89-1.79,1.02l2.58,4.69h-1.98l-2.37-4.53h-1.49v4.53Zm2.14-5.95c1.11,0,1.66-.51,1.66-1.53v-.69c0-1.02-.55-1.53-1.66-1.53h-2.14v3.74h2.14Z"/><path class="uuid-1c528915-10cf-4b4e-a163-232bf7035c45" d="M483.93,232.32v-1.36h2.62v-8.45h-2.62v-1.36h7.04v1.36h-2.62v8.45h2.62v1.36h-7.04Z"/><path class="uuid-1c528915-10cf-4b4e-a163-232bf7035c45" d="M499.64,232.32l-.85-2.99h-3.55l-.85,2.99h-1.82l3.26-11.17h2.45l3.26,11.17h-1.9Zm-2.56-9.36h-.13l-1.38,4.9h2.88l-1.38-4.9Z"/><path class="uuid-1c528915-10cf-4b4e-a163-232bf7035c45" d="M503.18,221.15h3.86c1.01,0,1.8,.26,2.36,.78s.84,1.24,.84,2.14c0,.65-.16,1.17-.48,1.55-.32,.38-.75,.66-1.3,.82v.08c.65,.15,1.17,.43,1.57,.86,.39,.42,.59,1.02,.59,1.78,0,.46-.07,.88-.22,1.26-.15,.38-.36,.72-.64,1-.28,.28-.61,.5-1,.66-.39,.16-.82,.23-1.29,.23h-4.29v-11.17Zm3.49,4.8c.56,0,.99-.11,1.29-.33,.29-.22,.44-.58,.44-1.1v-.58c0-.51-.15-.88-.44-1.1-.29-.22-.72-.33-1.29-.33h-1.73v3.42h1.73Zm.26,4.99c.6,0,1.06-.12,1.38-.37,.32-.25,.48-.64,.48-1.18v-.58c0-.54-.16-.94-.48-1.18-.32-.25-.78-.37-1.38-.37h-1.98v3.68h1.98Z"/><path class="uuid-1c528915-10cf-4b4e-a163-232bf7035c45" d="M513.18,232.32v-11.17h1.79v9.66h5.09v1.5h-6.88Z"/><path class="uuid-1c528915-10cf-4b4e-a163-232bf7035c45" d="M522.43,232.32v-11.17h6.99v1.5h-5.2v3.25h5.01v1.5h-5.01v3.41h5.2v1.5h-6.99Z"/></g><g><path class="uuid-1c528915-10cf-4b4e-a163-232bf7035c45" d="M479.26,267.99h3.79c.96,0,1.71,.26,2.26,.78s.82,1.22,.82,2.1c0,.67-.16,1.2-.49,1.58s-.74,.66-1.26,.82v.05c.63,.15,1.15,.43,1.55,.84,.41,.41,.61,1.01,.61,1.78,0,.45-.08,.87-.22,1.26s-.36,.74-.63,1.02c-.27,.29-.59,.51-.96,.68-.37,.17-.77,.25-1.19,.25h-4.27v-11.17Zm3.65,4.85c.57,0,1.01-.12,1.33-.38,.32-.25,.48-.63,.48-1.14v-.62c0-.51-.16-.9-.48-1.15-.32-.26-.76-.38-1.33-.38h-2.3v3.68h2.3Zm.22,5.15c.62,0,1.1-.14,1.46-.42,.35-.28,.53-.7,.53-1.28v-.66c0-.57-.18-.99-.53-1.27-.35-.28-.84-.42-1.46-.42h-2.53v4.05h2.53Z"/><path class="uuid-1c528915-10cf-4b4e-a163-232bf7035c45" d="M495.15,279.15l-.94-3.18h-3.92l-.94,3.18h-1.39l3.42-11.17h1.78l3.42,11.17h-1.42Zm-2.83-9.74h-.14l-1.57,5.39h3.28l-1.57-5.39Z"/><path class="uuid-1c528915-10cf-4b4e-a163-232bf7035c45" d="M505.89,279.15h-8.06v-1.2l6.32-8.8h-6.05v-1.17h7.52v1.2l-6.34,8.8h6.61v1.17Z"/></g><line class="uuid-d47286ac-a1d5-4061-81df-bdb7b345c018" x1="636.34" y1="281.99" x2="611.27" y2="281.99"/><g><line class="uuid-822c14a2-d729-4acc-b98d-d634b4b67513" x1="141.17" y1="343.48" x2="114.22" y2="343.48"/><polygon class="uuid-82fc8ec4-13be-4f41-9b82-76493d68a90e" points="115.97 337.5 105.61 343.48 115.97 349.46 115.97 337.5"/></g><g><path class="uuid-822c14a2-d729-4acc-b98d-d634b4b67513" d="M639.25,273.84c29.27,0,60.94-12.38,60.94-52.69,0-85.09-124.08-88.93-211.22-89.08"/><polygon class="uuid-82fc8ec4-13be-4f41-9b82-76493d68a90e" points="490.75 126.14 480.35 132.06 490.67 138.11 490.75 126.14"/></g><g><path class="uuid-e657f32e-83de-4c94-ae7e-195b188f8442" d="M316.31,274.52c68.07,0,136.87-74.48,144.67-122.4"/><polygon class="uuid-62b6d9a0-cdda-47ff-86e0-1cf50d366119" points="466.65 154.45 461.72 143.55 454.74 153.27 466.65 154.45"/></g></svg>